<?xml version="1.0" encoding="UTF-8" standalone="no"?>
<svg width="19px" height="24px" viewBox="0 0 19 24" version="1.1" xmlns="http://www.w3.org/2000/svg" xmlns:xlink="http://www.w3.org/1999/xlink">
    <!-- Generator: Sketch 3.8.3 (29802) - http://www.bohemiancoding.com/sketch -->
    <title>Page 1</title>
    <desc>Created with Sketch.</desc>
    <defs>
        <polygon id="path-1" points="0 24 0 0 9.49987045 0 18.9997409 0 18.9997409 24 9.49987045 24"></polygon>
    </defs>
    <g id="Page-1" stroke="none" stroke-width="1" fill="none" fill-rule="evenodd">
        <g>
            <path d="M4.31818182,8.25 C4.31818182,8.457 4.51163636,8.625 4.75,8.625 C4.98836364,8.625 5.18181818,8.457 5.18181818,8.25 C5.18181818,6.18225 7.11895455,4.5 9.5,4.5 C9.73836364,4.5 9.93181818,4.332 9.93181818,4.125 C9.93181818,3.918 9.7375,3.75 9.5,3.75 C6.64222727,3.75 4.31818182,5.76825 4.31818182,8.25" id="Fill-1" fill="#5C9BFA"></path>
            <g id="Group-5">
                <mask id="mask-2" fill="white">
                    <use xlink:href="#path-1"></use>
                </mask>
                <g id="Clip-4"></g>
                <path d="M12.8566955,17.25 C12.7504682,17.51925 12.6442409,17.78925 12.5526955,18.04425 L6.68083182,18.681 C6.52365,18.23025 6.34660455,17.754 6.14969545,17.25 L12.8566955,17.25 Z M12.0483318,19.485 C11.9360591,19.8225 11.83415,20.115 11.7382864,20.382 L7.45637727,20.84625 C7.30351364,20.46225 7.13942273,20.013 6.93992273,19.4265 C6.93733182,19.41975 6.93387727,19.41075 6.93215,19.40325 L12.2763318,18.8235 C12.2003318,19.04475 12.11915,19.27725 12.0483318,19.485 L12.0483318,19.485 Z M9.49974091,22.5 C8.62487727,22.5 8.22242273,22.41225 7.77505909,21.5625 L11.43515,21.16425 C10.9048773,22.40475 10.5188318,22.5 9.49974091,22.5 L9.49974091,22.5 Z M9.49974091,0 C4.25228636,0 -0.000259090909,3.693 -0.000259090909,8.25 C-0.000259090909,11.27325 3.18483182,14.47725 4.34469545,17.29125 C6.07455909,21.4875 5.88283182,24 9.49974091,24 C13.1701955,24 12.9240591,21.4995 14.6547864,17.3085 C14.9717409,16.54125 15.4389682,15.7425 15.9502409,14.92575 L14.6789682,13.8225 C14.27565,14.46 13.87665,15.105 13.53465,15.75 L5.47433182,15.75 C5.04424091,14.94 4.52778636,14.13 4.01824091,13.33725 C2.89205909,11.586 1.72701364,9.77475 1.72701364,8.25 C1.72701364,4.52775 5.21351364,1.5 9.49974091,1.5 C13.7859682,1.5 17.2724682,4.52775 17.2724682,8.25 C17.2724682,9.3105 16.6964227,10.5225 15.9657864,11.7585 L17.2482864,12.87225 C18.1956955,11.3265 18.9997409,9.75825 18.9997409,8.25 C18.9997409,3.693 14.7463318,0 9.49974091,0 L9.49974091,0 Z" id="Fill-3" fill="#5C9BFA" mask="url(#mask-2)"></path>
            </g>
        </g>
    </g>
</svg>