<?xml version="1.0" standalone="no"?>
<!DOCTYPE svg PUBLIC "-//W3C//DTD SVG 1.1//EN" "http://www.w3.org/Graphics/SVG/1.1/DTD/svg11.dtd" >
<svg xmlns="http://www.w3.org/2000/svg">
<metadata></metadata>
<defs>
<font id="movistar_textitalic" horiz-adv-x="1085" >
<font-face units-per-em="2048" ascent="1536" descent="-512" />
<missing-glyph horiz-adv-x="409" />
<glyph unicode="&#xfb01;" horiz-adv-x="1077" d="M16 -461l236 1338h-178l16 98l182 26l19 103q18 111 51 180.5t76 110.5q51 49 132 76.5t204 27.5q49 0 108.5 -6t108.5 -16l-23 -129q-51 6 -101 9t-91 3q-150 0 -217 -68q-33 -31 -51.5 -78t-28.5 -110l-17 -100h572l-178 -1004h-168l155 877h-403l-236 -1338h-168z" />
<glyph unicode="&#xfb02;" horiz-adv-x="1079" d="M16 -461l236 1338h-178l16 98l182 26l19 103q18 111 51 180.5t76 110.5q51 49 132 76.5t204 27.5q180 0 346 -31l-258 -1468h-168l237 1350q-41 4 -87 7t-68 3q-150 0 -217 -68q-29 -29 -48.5 -72.5t-31.5 -115.5l-17 -100h260l-22 -127h-260l-236 -1338h-168z" />
<glyph horiz-adv-x="2048" />
<glyph horiz-adv-x="2048" />
<glyph unicode="&#xd;" horiz-adv-x="409" />
<glyph unicode=" "  horiz-adv-x="409" />
<glyph unicode="&#x09;" horiz-adv-x="409" />
<glyph unicode="&#xa0;" horiz-adv-x="409" />
<glyph unicode="!" horiz-adv-x="507" d="M66 47q0 39 11 73t27 50q31 31 84 31h15q84 0 84 -76q0 -39 -11.5 -73t-27.5 -50q-31 -31 -84 -31h-14q-84 0 -84 76zM162 375l151 1026h179l-207 -1026h-123z" />
<glyph unicode="&#x22;" horiz-adv-x="774" d="M193 971l55 430h164l-97 -430h-122zM502 971l55 430h164l-96 -430h-123z" />
<glyph unicode="#" horiz-adv-x="1107" d="M74 0l157 436h-139l21 121h161l105 285h-217l20 121h242l158 438h133l-160 -438h266l158 438h133l-160 -438h142l-21 -121h-164l-104 -285h221l-20 -121h-244l-158 -436h-133l158 436h-264l-158 -436h-133zM408 557h264l104 285h-264z" />
<glyph unicode="$" horiz-adv-x="1107" d="M61 31l39 143q80 -25 162 -39t158 -14h16l94 532q-57 31 -113.5 65t-101.5 78t-72.5 103t-27.5 139q0 170 121 275q59 49 141 78.5t191 33.5l45 252h116l-45 -254q72 -4 148 -20.5t141 -40.5l-45 -133q-59 18 -132 30.5t-138 16.5l-88 -502q57 -31 114.5 -64.5 t101.5 -77.5t71.5 -99.5t27.5 -129.5q0 -94 -33.5 -169.5t-97.5 -131.5q-59 -53 -141 -83.5t-185 -41.5l-45 -256h-116l43 250q-86 2 -180.5 18.5t-168.5 41.5zM387 1059q0 -78 51 -129t125 -96l78 440q-119 -10 -182 -62q-35 -29 -53.5 -66.5t-18.5 -86.5zM555 131 q102 18 164 66q43 33 67.5 77t24.5 101q0 78 -50 130t-122 93z" />
<glyph unicode="%" horiz-adv-x="1851" d="M172 944q0 92 26.5 179t77 155t124 108.5t169.5 40.5q129 0 209 -85t80 -232q0 -92 -26.5 -179t-76.5 -154.5t-125 -108.5t-169 -41q-129 0 -209 85t-80 232zM322 948q0 -98 42 -144t107 -46q53 0 93 23.5t69 60.5q41 53 58.5 125.5t17.5 138.5q0 98 -42 144t-108 46 q-53 0 -93 -23.5t-69 -60.5q-41 -53 -58 -125.5t-17 -138.5zM426 -37l958 1456h160l-958 -1456h-160zM1051 289q0 92 26.5 179t76.5 154.5t124 108.5t170 41q129 0 209 -85t80 -232q0 -92 -27 -179.5t-77 -155t-124.5 -108.5t-169.5 -41q-129 0 -208.5 85t-79.5 233z M1200 293q0 -98 42 -144.5t108 -46.5q53 0 93 24t68 60q41 53 58.5 126t17.5 139q0 98 -42 144t-107 46q-53 0 -93 -23.5t-69 -60.5q-41 -53 -58.5 -126t-17.5 -138z" />
<glyph unicode="&#x26;" horiz-adv-x="1349" d="M66 324q0 145 94 254.5t286 201.5q-63 90 -86.5 158t-23.5 135q0 74 25.5 138.5t72.5 111.5t114.5 73.5t151.5 26.5q131 0 204 -68.5t73 -178.5q0 -127 -85 -229.5t-241 -184.5l301 -412q49 63 90 156.5t66 191.5h135q-29 -129 -80 -245.5t-131 -212.5l156 -215l-129 -93 l-146 195q-96 -78 -210.5 -119t-243.5 -41q-82 0 -154 23.5t-125 68.5t-83.5 112t-30.5 153zM240 354q0 -115 68.5 -180t197.5 -65q92 0 176 32.5t156 91.5l-332 457q-127 -66 -196.5 -146.5t-69.5 -189.5zM485 1085q0 -43 19.5 -97t87.5 -144q127 72 185.5 153.5 t58.5 159.5q0 66 -35 103.5t-111 37.5q-92 0 -148.5 -60t-56.5 -153z" />
<glyph unicode="'" horiz-adv-x="464" d="M193 971l55 430h164l-97 -430h-122z" />
<glyph unicode="(" horiz-adv-x="667" d="M131 276q0 166 36 334t110.5 330t188.5 312.5t267 277.5l94 -82q-252 -260 -375.5 -550t-134.5 -605q-4 -199 43.5 -370t143.5 -318l-103 -70q-129 137 -199.5 326.5t-70.5 414.5z" />
<glyph unicode=")" horiz-adv-x="667" d="M-168 -383q252 260 376 550t134 605q4 199 -43 370t-143 318l102 70q129 -137 199.5 -327t70.5 -415q0 -166 -35.5 -333.5t-110.5 -329.5t-188.5 -312.5t-267.5 -277.5z" />
<glyph unicode="*" horiz-adv-x="880" d="M143 1065l68 135l252 -129l33 330h151l-78 -330l295 125l21 -139l-307 -88l159 -240l-125 -86l-120 264l-213 -264l-101 94l240 240z" />
<glyph unicode="+" d="M225 610l23 129h266l51 281h129l-49 -281h270l-22 -129h-270l-50 -280h-131l50 280h-267z" />
<glyph unicode="," horiz-adv-x="454" d="M45 55q0 37 11.5 68t27.5 47q31 31 84 31h10q88 0 88 -82q0 -29 -6 -60q-6 -37 -18.5 -82t-26.5 -92t-30.5 -92t-30.5 -82h-78l45 256q-76 18 -76 88z" />
<glyph unicode="-" horiz-adv-x="645" d="M119 459l26 145h406l-27 -145h-405z" />
<glyph unicode="." horiz-adv-x="454" d="M49 47q0 39 11.5 73t27.5 50q31 31 84 31h14q84 0 84 -76q0 -39 -11 -73t-28 -50q-31 -31 -84 -31h-14q-84 0 -84 76z" />
<glyph unicode="/" horiz-adv-x="847" d="M-53 -29l844 1456h165l-843 -1456h-166z" />
<glyph unicode="0" horiz-adv-x="1107" d="M84 453q0 104 17.5 221t54.5 230.5t92 215t131 174.5q66 61 145.5 97t177.5 36q182 0 280.5 -121.5t98.5 -359.5q0 -104 -17 -221t-54 -230.5t-92.5 -215t-131.5 -175.5q-66 -61 -145.5 -97t-177.5 -36q-182 0 -280.5 122t-98.5 360zM256 451q0 -334 215 -334 q82 0 142.5 39t107.5 104q49 70 85 160t59.5 184t33.5 184t10 160q0 334 -215 334q-82 0 -142 -39t-108 -104q-49 -70 -84.5 -160t-59.5 -184.5t-34 -184.5t-10 -159z" />
<glyph unicode="1" horiz-adv-x="1107" d="M168 0l22 131h238l203 1147h-234l21 115q31 4 69.5 8t77.5 7t76 5t64 2q59 0 79.5 -14.5t20.5 -48.5q0 -8 -2 -26.5t-6 -35.5l-205 -1159h209l-23 -131h-610z" />
<glyph unicode="2" horiz-adv-x="1107" d="M45 13v10q0 25 4 45t16.5 41.5t34 48t58.5 63.5l385 393q86 88 143 156t92 123t49.5 103t14.5 98q0 92 -58 141q-66 53 -219 53q-127 0 -276 -31l22 132q72 18 149 28t154 10q111 0 190 -25.5t128 -72.5q86 -82 86 -213q0 -72 -18.5 -133t-60.5 -129t-111.5 -145.5 t-172.5 -178.5l-399 -395h616l-22 -135h-803q-2 8 -2 13z" />
<glyph unicode="3" horiz-adv-x="1107" d="M57 6l23 135q53 -12 126 -20t138 -8q94 0 171 21.5t132 66.5q49 41 78 99t29 136q0 111 -73 163t-232 52h-35l20 127h33q80 0 147.5 20.5t116.5 59.5t77 94.5t28 124.5q0 94 -52 146q-33 33 -87 49t-142 16q-53 0 -125 -7t-137 -17l24 131q59 14 136 23t147 9 q98 0 180 -22.5t135 -75.5q43 -41 68 -99.5t25 -135.5q0 -127 -76 -225.5t-197 -143.5q88 -35 141.5 -104.5t53.5 -176.5q0 -123 -47 -212t-127 -147t-184.5 -86t-217.5 -28q-78 0 -158.5 9.5t-138.5 25.5z" />
<glyph unicode="4" horiz-adv-x="1107" d="M53 342q0 27 3 49.5t10.5 45t20.5 51t34 67.5l436 846h170l-481 -922h456l62 355h164l-62 -355h166l-24 -137h-166l-62 -342h-164l62 342h-625z" />
<glyph unicode="5" horiz-adv-x="1107" d="M84 4l25 133q53 -10 118.5 -16t114.5 -6q117 0 193.5 27.5t130.5 78.5q109 98 108 260q0 100 -55 150q-41 35 -109.5 48t-171.5 13h-200q-2 10 -2 18.5v20.5q0 35 14 98l125 572h659l-24 -135h-516l-97 -437h80q131 0 226.5 -24.5t154.5 -79.5q43 -41 66.5 -100.5 t23.5 -139.5q0 -106 -39 -196t-108 -158q-78 -76 -190.5 -118t-258.5 -42q-72 0 -143.5 9.5t-124.5 23.5z" />
<glyph unicode="6" horiz-adv-x="1107" d="M113 442q0 102 14 206t49 214q37 119 96.5 220.5t137.5 177.5q84 78 192.5 122.5t245.5 44.5q47 0 100 -7t101 -17l-25 -129q-45 6 -91 11t-93 5q-113 0 -197 -39.5t-145 -107.5q-63 -70 -106.5 -162t-69.5 -199q80 35 165.5 56.5t163.5 21.5q92 0 154.5 -21.5 t103.5 -62.5q90 -88 90 -254q0 -113 -37.5 -226.5t-127.5 -199.5q-61 -59 -143.5 -92t-184.5 -33q-94 0 -167 33t-123 94.5t-76.5 148.5t-26.5 195zM281 438q0 -154 65 -243q31 -41 74 -62.5t106 -21.5q59 0 110.5 22.5t88.5 63.5q57 59 84 140t27 169q0 102 -54 160 q-53 57 -168 57q-70 0 -155.5 -17.5t-159.5 -43.5q-18 -104 -18 -224z" />
<glyph unicode="7" horiz-adv-x="1107" d="M260 0l672 1266h-664l25 135h825q2 -10 2 -15.5v-9.5q0 -57 -43 -143l-624 -1233h-193z" />
<glyph unicode="8" horiz-adv-x="1107" d="M74 315q0 125 83 236t257 192q-78 59 -118 131t-40 166q0 82 30.5 152t87 122t135.5 81.5t175 29.5q74 0 141.5 -20.5t119.5 -60t83 -100t31 -138.5q0 -109 -77 -204t-234 -169q123 -76 184 -156t61 -182q0 -92 -37.5 -170t-105.5 -134t-161 -89t-204 -33 q-96 0 -171.5 25.5t-129 72t-82 110t-28.5 138.5zM244 334q0 -104 67.5 -163.5t184.5 -59.5q68 0 127 18t103 53t69.5 83t25.5 108q0 55 -24.5 97t-65.5 78t-94.5 66.5t-110.5 61.5q-143 -72 -212.5 -155t-69.5 -187zM418 1063q0 -74 45 -133.5t168 -130.5q137 68 203.5 135 t66.5 160q0 92 -63.5 142t-161.5 50q-115 0 -186.5 -61.5t-71.5 -161.5z" />
<glyph unicode="9" horiz-adv-x="1107" d="M117 -4l24 129q45 -6 91.5 -11t93.5 -5q113 0 197 39.5t145 107.5q63 70 106 162t70 198q-80 -35 -166 -56t-164 -21q-92 0 -154.5 21.5t-103.5 62.5q-90 88 -90 254q0 113 38 226.5t128 199.5q61 59 143 91.5t184 32.5q94 0 167 -33.5t123 -95t77 -148.5t27 -194 q0 -102 -14.5 -205.5t-49.5 -213.5q-37 -119 -96 -220.5t-137 -177.5q-84 -78 -192.5 -123t-246.5 -45q-47 0 -100 7.5t-100 17.5zM330 893q0 -102 53 -160q53 -57 168 -57q70 0 156 17.5t159 43.5q18 104 19 224q0 154 -66 243q-31 41 -74 62.5t-106 21.5 q-59 0 -110.5 -22.5t-88.5 -63.5q-57 -59 -83.5 -140t-26.5 -169z" />
<glyph unicode=":" horiz-adv-x="454" d="M49 47q0 39 11.5 73t27.5 50q31 31 84 31h14q84 0 84 -76q0 -39 -11 -73t-28 -50q-31 -31 -84 -31h-14q-84 0 -84 76zM160 684q0 39 11 73t28 50q31 31 84 31h14q84 0 84 -76q0 -39 -11.5 -73t-27.5 -50q-31 -31 -84 -31h-14q-84 0 -84 76z" />
<glyph unicode=";" horiz-adv-x="450" d="M45 55q0 37 11.5 68t27.5 47q31 31 84 31h10q88 0 88 -82q0 -29 -6 -60q-6 -37 -18.5 -82t-26.5 -92t-30.5 -92t-30.5 -82h-78l45 256q-76 18 -76 88zM156 684q0 39 11 73t28 50q31 31 84 31h14q84 0 84 -76q0 -39 -11.5 -73t-27.5 -50q-31 -31 -84 -31h-14q-84 0 -84 76 z" />
<glyph unicode="&#x3c;" d="M195 606l24 139l727 340l-26 -153l-570 -262l479 -256l-26 -146z" />
<glyph unicode="=" d="M225 426l23 129h667l-22 -129h-668zM289 795l22 129h668l-23 -129h-667z" />
<glyph unicode="&#x3e;" d="M197 268l26 158l570 256l-480 262l27 141l606 -340l-24 -139z" />
<glyph unicode="?" horiz-adv-x="839" d="M164 47q0 39 11 73t28 50q31 31 84 31h14q84 0 84 -76q0 -39 -11.5 -73t-27.5 -50q-31 -31 -84 -31h-14q-84 0 -84 76zM195 1380q49 20 127.5 33.5t156.5 13.5q96 0 170 -21.5t121 -66.5q41 -39 65.5 -92t24.5 -125q0 -84 -30.5 -150.5t-80 -125t-106.5 -110.5 t-110.5 -107.5t-95.5 -116.5t-56 -137h-123q0 80 32 144.5t79 121.5t101 109.5t101 105.5t79 112.5t32 131.5q0 86 -51 133q-57 51 -185 51q-53 0 -120.5 -9t-120.5 -24z" />
<glyph unicode="@" horiz-adv-x="1601" d="M111 596q0 178 59 329.5t166.5 263t257 175t330.5 63.5q152 0 268.5 -44t196 -120.5t121.5 -179t42 -219.5q0 -98 -26.5 -195.5t-78.5 -175t-128 -126t-174 -48.5q-72 0 -116 23t-66 61q-51 -37 -112 -60.5t-120 -23.5q-119 0 -179 81t-60 200q0 98 28.5 183t80.5 147.5 t124 99.5t158 37q51 0 95 -14.5t79 -40.5l22 37l95 -9l-93 -458q-4 -16 -6 -34t-2 -30q0 -43 22.5 -64.5t63.5 -21.5q70 0 117 46t74.5 111.5t40 140.5t12.5 132q0 203 -129 315.5t-359 112.5q-133 0 -250.5 -48t-205.5 -138t-139.5 -219t-51.5 -291q0 -129 39 -221 t110.5 -152.5t172 -88.5t223.5 -28q43 0 95.5 4.5t104.5 10.5t100 13t79 15l-14 -122q-80 -23 -188.5 -38.5t-219.5 -15.5q-147 0 -269 42t-208 122t-134 197t-48 264zM635 618q0 -180 135 -180q41 0 87 16.5t81 39.5v24q0 25 5 57.5t15 86.5l56 274q-25 10 -55.5 17.5 t-61.5 7.5q-61 0 -110.5 -29t-83 -76t-51 -108.5t-17.5 -129.5z" />
<glyph unicode="A" horiz-adv-x="1183" d="M-57 0l675 1401h201l225 -1401h-178l-55 373h-514l-176 -373h-178zM365 516h426l-101 684h-2z" />
<glyph unicode="B" horiz-adv-x="1185" d="M68 0l247 1401h336q129 0 214 -24.5t136 -78.5q76 -80 76 -208q0 -121 -68.5 -214.5t-172.5 -136.5q96 -27 159.5 -98.5t63.5 -181.5q0 -117 -51.5 -216.5t-151.5 -158.5q-70 -41 -165 -62.5t-224 -21.5h-399zM272 143h162q121 0 194.5 17.5t125.5 52.5q59 41 87.5 104.5 t28.5 135.5q0 53 -19.5 91t-53.5 60q-41 27 -101.5 37t-152.5 10h-181zM389 795h164q92 0 153.5 20.5t102.5 56.5q88 78 88 211q0 84 -49 127q-31 27 -78 37t-123 10h-176z" />
<glyph unicode="C" horiz-adv-x="1112" d="M106 512q0 96 19.5 195.5t54.5 193.5t84 177t111 145q92 96 213 150t284 54q72 0 147 -13t146 -44l-53 -133q-66 23 -124 32t-118 9q-125 0 -216 -46t-156 -124q-94 -109 -148.5 -267.5t-54.5 -328.5q0 -197 89 -293t282 -96q55 0 128.5 9t131.5 22l-6 -142 q-61 -16 -145.5 -28.5t-162.5 -12.5q-256 0 -381 141.5t-125 399.5z" />
<glyph unicode="D" horiz-adv-x="1284" d="M68 0l247 1401h310q154 0 279.5 -31t211.5 -123q55 -59 87 -150t32 -227q0 -80 -15.5 -171t-48 -181t-84 -175t-122.5 -155q-88 -86 -210 -137t-304 -51h-383zM272 143h174q127 0 219.5 37t159.5 103q57 53 99.5 122.5t70 147.5t41 161t13.5 165q0 104 -22.5 172.5 t-68.5 111.5q-57 55 -149 74.5t-229 19.5h-109z" />
<glyph unicode="E" horiz-adv-x="1054" d="M68 0l247 1401h785l-41 -144h-588l-84 -473h479l-26 -149h-480l-88 -492h623l-27 -143h-800z" />
<glyph unicode="F" horiz-adv-x="999" d="M68 0l247 1401h766l-41 -144h-569l-84 -473h459l-27 -149h-459l-112 -635h-180z" />
<glyph unicode="G" horiz-adv-x="1263" d="M106 518q0 201 71 388.5t206 322.5q96 96 218 147t284 51q90 0 178 -15t154 -42l-48 -135q-68 23 -138 33t-136 10q-125 0 -218 -40t-165 -118q-98 -106 -157.5 -265t-59.5 -335q0 -201 92 -300t272 -99q47 0 107.5 6t101.5 16l74 424h-217l25 142h391l-119 -680 q-74 -23 -176.5 -40.5t-200.5 -17.5q-131 0 -231.5 36t-165.5 102q-68 66 -105 170t-37 239z" />
<glyph unicode="H" horiz-adv-x="1316" d="M68 0l247 1401h181l-109 -619h631l108 619h181l-248 -1401h-180l112 635h-631l-112 -635h-180z" />
<glyph unicode="I" horiz-adv-x="514" d="M72 0l247 1401h181l-248 -1401h-180z" />
<glyph unicode="J" horiz-adv-x="741" d="M-16 -12l8 141q31 -4 70.5 -7t72.5 -3q59 0 97 12t67 39q25 25 42 68t34 133l182 1030h180l-182 -1030q-12 -68 -24.5 -117t-28 -85t-32.5 -62.5t-40 -47.5q-43 -41 -116.5 -64.5t-170.5 -23.5q-41 0 -86 4.5t-73 12.5z" />
<glyph unicode="K" horiz-adv-x="1189" d="M68 0l247 1401h181l-129 -723l696 723h213l-576 -584l349 -817h-195l-281 690l-249 -256l-76 -434h-180z" />
<glyph unicode="L" horiz-adv-x="987" d="M68 0l247 1401h181l-224 -1258h600l-26 -143h-778z" />
<glyph unicode="M" horiz-adv-x="1589" d="M68 0l247 1401h138l325 -934l643 934h158l-248 -1401h-172l182 1030l-514 -737h-149l-262 741l-183 -1034h-165z" />
<glyph unicode="N" horiz-adv-x="1361" d="M68 0l247 1401h136l542 -1100l195 1100h164l-248 -1401h-135l-543 1100l-195 -1100h-163z" />
<glyph unicode="O" horiz-adv-x="1298" d="M106 496q0 98 17.5 202.5t51.5 203.5t83 188.5t115 158.5q78 84 182 131t231 47q227 0 345 -141t118 -383q0 -98 -17.5 -202.5t-51 -204t-83.5 -188.5t-114 -158q-78 -84 -182.5 -131.5t-231.5 -47.5q-227 0 -345 141.5t-118 383.5zM295 487q0 -74 15.5 -139t49 -114.5 t87 -78t131.5 -28.5q195 0 319 186q39 57 69.5 131t51 153t32 160t11.5 154q0 74 -15.5 139.5t-49 114.5t-88 78t-130.5 29q-195 0 -319 -187q-39 -59 -70 -131.5t-51.5 -151.5t-31.5 -160t-11 -155z" />
<glyph unicode="P" horiz-adv-x="1132" d="M68 0l247 1401h371q248 0 361 -101q98 -88 98 -247q0 -117 -37 -211t-104 -164q-74 -74 -183.5 -115t-245.5 -41h-235l-92 -522h-180zM365 666h182q111 0 187.5 28.5t127.5 81.5q47 49 73 118t26 148q0 55 -17.5 94.5t-46.5 63.5q-37 33 -98.5 45t-139.5 12h-188z" />
<glyph unicode="Q" horiz-adv-x="1298" d="M106 496q0 98 17.5 202.5t51.5 203.5t83 188.5t115 158.5q78 84 182 131t231 47q227 0 345 -141t118 -383q0 -98 -17.5 -202.5t-51 -204t-83.5 -188.5t-114 -158q-55 -61 -133 -107q43 -4 90 -14.5t92 -24.5t86 -33.5t70 -42.5q-6 -14 -18.5 -35.5t-28 -44t-29.5 -43 t-25 -30.5l-284 145q-29 14 -52.5 24.5t-47 16.5t-52 8t-67.5 2h-15q-227 0 -345 141.5t-118 383.5zM295 487q0 -74 15.5 -139t49 -114.5t87 -78t131.5 -28.5q195 0 319 186q39 57 69.5 131t51 153t32 160t11.5 154q0 74 -15.5 139.5t-49 114.5t-88 78t-130.5 29 q-195 0 -319 -187q-39 -59 -70 -131.5t-51.5 -151.5t-31.5 -160t-11 -155z" />
<glyph unicode="R" horiz-adv-x="1181" d="M68 0l247 1401h379q254 0 367 -111q41 -41 64.5 -100.5t23.5 -136.5q0 -98 -35 -192.5t-106 -164.5q-90 -86 -211 -125l198 -571h-188l-172 541q-25 -4 -50.5 -4h-54.5h-188l-94 -537h-180zM369 682h196q106 0 177 27.5t118 74.5q49 49 77 118t28 145q0 90 -47 141 q-35 37 -93.5 53t-156.5 16h-197z" />
<glyph unicode="S" horiz-adv-x="1062" d="M23 31l38 143q80 -25 162 -39t158 -14q197 0 299 76q43 33 67.5 76.5t24.5 101.5q0 74 -44 123t-110.5 89t-143.5 77.5t-143.5 87t-110.5 117t-44 169.5q0 170 121 275q132 114 377 114h4q80 0 178 -17t178 -48l-45 -133q-70 23 -158 36t-159 13q-172 0 -252 -66 q-35 -29 -53.5 -66.5t-18.5 -86.5q0 -72 44 -121t110.5 -90t144.5 -80t144.5 -88t110.5 -115.5t44 -161.5q0 -94 -33.5 -169.5t-97.5 -131.5q-72 -66 -181.5 -98.5t-248.5 -32.5q-88 0 -186.5 16.5t-175.5 43.5z" />
<glyph unicode="T" horiz-adv-x="1144" d="M166 1257l27 144h1062l-41 -144h-432l-221 -1257h-180l221 1257h-436z" />
<glyph unicode="U" horiz-adv-x="1310" d="M133 354q0 41 6 90.5t17 108.5l149 848h180l-149 -844q-10 -53 -15.5 -97t-5.5 -83q0 -129 74 -189.5t207 -60.5q88 0 157.5 28.5t116.5 77.5q37 37 68 105t51 184l156 879h164l-162 -914q-12 -70 -27.5 -123t-35 -96t-43 -77.5t-54.5 -65.5q-72 -74 -177 -114t-235 -40 q-96 0 -177 24.5t-140 72t-92 119t-33 167.5z" />
<glyph unicode="V" horiz-adv-x="1179" d="M180 1401h178l172 -1202h5l567 1202h184l-684 -1401h-203z" />
<glyph unicode="W" horiz-adv-x="1775" d="M180 1401h178l109 -1192h4l477 1192h178l91 -1184h4l493 1184h168l-602 -1401h-201l-84 1118h-4l-452 -1118h-209z" />
<glyph unicode="X" d="M-45 0l522 698l-266 703h176l201 -570l393 570h190l-522 -711l264 -690h-176l-200 553l-387 -553h-195z" />
<glyph unicode="Y" horiz-adv-x="1155" d="M174 1401h184l240 -678l483 678h193l-612 -832l-101 -569h-178l100 561z" />
<glyph unicode="Z" horiz-adv-x="1095" d="M-8 0l16 104l905 1153h-690l23 144h911l-16 -111l-901 -1147h702l-24 -143h-926z" />
<glyph unicode="[" horiz-adv-x="684" d="M70 -424l338 1913h399l-23 -133h-225l-291 -1647h224l-23 -133h-399z" />
<glyph unicode="\" horiz-adv-x="847" d="M209 1427h147l340 -1456h-147z" />
<glyph unicode="]" horiz-adv-x="684" d="M-131 -424l22 133h226l291 1647h-224l23 133h399l-338 -1913h-399z" />
<glyph unicode="^" d="M176 815l428 586h133l228 -586h-148l-164 457l-319 -457h-158z" />
<glyph unicode="_" horiz-adv-x="862" d="M-61 -182l22 125h774l-22 -125h-774z" />
<glyph unicode="`" horiz-adv-x="823" d="M258 1425l102 115l299 -319l-67 -76z" />
<glyph unicode="a" d="M78 371q0 131 42 268t132 238q61 72 148 113.5t198 41.5q74 0 144.5 -26.5t119.5 -67.5l29 66h129l-137 -766q-8 -45 -11.5 -91.5t-3.5 -109.5v-37h-155l-8 72q-70 -47 -147 -74t-163 -27q-78 0 -137 31t-99 84t-60.5 127t-20.5 158zM250 375q0 -141 54.5 -200.5 t148.5 -59.5q63 0 132.5 23.5t123.5 58.5l112 630q-47 29 -104.5 46.5t-116.5 17.5q-68 0 -123 -26.5t-96 -73.5q-63 -72 -97 -182.5t-34 -233.5z" />
<glyph unicode="b" horiz-adv-x="1081" d="M59 0l260 1464h168l-92 -520q66 41 138.5 64.5t150.5 23.5t137.5 -30.5t99.5 -85t60 -127t20 -156.5q0 -131 -41.5 -268.5t-132.5 -237.5q-61 -72 -148 -114t-198 -42q-74 0 -144.5 27t-119.5 68l-29 -66h-129zM258 176q47 -29 104.5 -45t116.5 -16q68 0 123 26.5 t96 73.5q63 72 97 181.5t34 232.5q0 141 -54 200.5t-148 59.5q-63 0 -133 -23.5t-123 -58.5z" />
<glyph unicode="c" horiz-adv-x="872" d="M74 387q0 139 47 268t137 219q78 78 176 118t234 40q59 0 120.5 -12t108.5 -29l-29 -129q-45 14 -99 22.5t-99 8.5q-98 0 -165 -27.5t-114 -77.5q-72 -76 -107.5 -181t-35.5 -214q0 -115 45 -184q29 -47 88 -71.5t151 -24.5q47 0 115 7t121 19l-6 -125 q-66 -20 -139.5 -31.5t-139.5 -11.5q-193 0 -301 102.5t-108 313.5z" />
<glyph unicode="d" horiz-adv-x="1089" d="M78 371q0 131 42 268t132 238q61 72 148 113.5t198 41.5q68 0 134.5 -23.5t115.5 -58.5l90 514h168l-219 -1226q-8 -45 -11.5 -91.5t-3.5 -109.5v-37h-155l-8 72q-70 -47 -149 -74t-165 -27q-78 0 -137 31t-99 84t-60.5 127t-20.5 158zM250 375q0 -141 54.5 -200.5 t148.5 -59.5q63 0 134.5 23.5t125.5 58.5l112 630q-47 29 -106.5 45.5t-118.5 16.5q-68 0 -123 -26.5t-96 -74.5q-63 -72 -97 -181t-34 -232z" />
<glyph unicode="e" horiz-adv-x="1017" d="M74 385q0 145 46 277.5t132 224.5q63 68 147 106.5t179 38.5q92 0 156.5 -28.5t107.5 -75.5q49 -55 70.5 -131t21.5 -158q0 -70 -12 -139q-6 -35 -17.5 -45.5t-42.5 -10.5h-612q-2 -16 -2 -29.5v-27.5q0 -137 69 -205q35 -35 93.5 -52t150.5 -17q29 0 63.5 3t69.5 7t67 9 t56 11l-10 -133q-70 -16 -148.5 -27.5t-140.5 -11.5q-229 0 -340 113q-104 109 -104 301zM264 569h500q6 39 6 76q0 55 -12.5 101.5t-40.5 80.5q-25 29 -62 46.5t-86 17.5q-57 0 -105 -23.5t-87 -64.5q-41 -45 -68.5 -103.5t-44.5 -130.5z" />
<glyph unicode="f" horiz-adv-x="657" d="M16 -461l236 1340h-178l16 96l184 26l25 140q33 186 123 270q49 47 115.5 67.5t154.5 20.5q43 0 97.5 -6t93.5 -16l-21 -131q-39 4 -85 8t-85 4q-57 0 -94 -11.5t-59 -33.5q-27 -25 -43.5 -65t-28.5 -105l-25 -139h281l-23 -125h-280l-236 -1340h-168z" />
<glyph unicode="g" horiz-adv-x="1081" d="M78 371q0 131 42 268t132 238q61 72 147 113.5t197 41.5q74 0 145.5 -26.5t120.5 -67.5l29 66h131l-195 -1082q-18 -104 -50 -174t-79 -121q-110 -116 -334 -116h-4q-47 0 -106 7t-104 19l8 133q18 -4 41.5 -7t50 -5t51.5 -4t45 -2q80 0 134.5 16.5t90.5 57.5 q31 33 53.5 84t37.5 129l20 118q-66 -41 -137.5 -63.5t-149.5 -22.5t-137 31t-99 84t-60.5 127t-20.5 158zM250 375q0 -141 54.5 -200.5t148.5 -59.5q63 0 132.5 23.5t123.5 58.5l112 630q-47 29 -104.5 45.5t-116.5 16.5q-68 0 -123 -26.5t-96 -74.5q-63 -72 -97 -181 t-34 -232z" />
<glyph unicode="h" horiz-adv-x="1099" d="M59 0l258 1464h168l-94 -530q74 47 158 72.5t162 25.5q129 0 209.5 -67.5t80.5 -202.5q0 -29 -4 -63.5t-12 -77.5l-108 -621h-168l110 618q12 76 12 117q0 82 -46 115t-128 33q-66 0 -144.5 -21.5t-143.5 -52.5l-142 -809h-168z" />
<glyph unicode="i" horiz-adv-x="473" d="M63 0l179 1004h168l-179 -1004h-168zM272 1260q0 35 10.5 68.5t26.5 49.5q29 29 84 29h13q43 0 62 -18.5t19 -47.5q0 -35 -10 -68.5t-26 -49.5q-29 -29 -84 -29h-13q-43 0 -62.5 18.5t-19.5 47.5z" />
<glyph unicode="j" horiz-adv-x="473" d="M-287 -483l6 133q98 4 152.5 22.5t89.5 53.5q33 31 55.5 85t40.5 156l185 1037h168l-181 -1014q-14 -80 -28.5 -136.5t-31.5 -97.5t-40 -71.5t-49 -57.5q-59 -55 -148.5 -82.5t-218.5 -27.5zM272 1260q0 35 10.5 68.5t26.5 49.5q29 29 84 29h13q43 0 62 -18.5t19 -47.5 q0 -35 -10 -68.5t-26 -49.5q-29 -29 -84 -29h-13q-43 0 -62.5 18.5t-19.5 47.5z" />
<glyph unicode="k" horiz-adv-x="1007" d="M59 0l258 1464h168l-170 -958l529 498h200l-434 -400l273 -604h-176l-213 498l-213 -199l-54 -299h-168z" />
<glyph unicode="l" horiz-adv-x="468" d="M61 0l258 1464h168l-258 -1464h-168z" />
<glyph unicode="m" horiz-adv-x="1697" d="M59 0l179 1004h141l-6 -78q76 47 162 76.5t167 29.5q84 0 146.5 -29.5t97.5 -89.5q92 57 186.5 88t180.5 31q129 0 207.5 -68.5t78.5 -201.5q0 -29 -4 -63.5t-12 -77.5l-108 -621h-168l110 618q12 76 13 117q0 82 -46.5 115t-121.5 33q-55 0 -125 -14.5t-158 -55.5 q2 -12 3 -24.5t1 -26.5q0 -29 -4 -63.5t-12 -77.5l-109 -621h-168l111 618q12 76 12 117q0 82 -44 115t-120 33q-59 0 -134 -20.5t-146 -55.5l-142 -807h-168z" />
<glyph unicode="n" horiz-adv-x="1101" d="M59 0l179 1004h141l-2 -80q78 51 167 79.5t169 28.5q129 0 210 -67.5t81 -202.5q0 -29 -4.5 -63.5t-12.5 -77.5l-108 -621h-168l110 618q12 76 13 117q0 82 -46.5 114t-128.5 32q-66 0 -144.5 -20.5t-143.5 -51.5l-144 -809h-168z" />
<glyph unicode="o" horiz-adv-x="1073" d="M74 375q0 152 48 285t136 223q68 70 158 109.5t200 39.5q94 0 166 -29.5t120 -84t72.5 -128t24.5 -161.5q0 -152 -48 -285t-136 -223q-68 -70 -158 -110t-200 -40q-94 0 -166 30t-120 84t-72.5 128t-24.5 162zM248 387q0 -57 13 -106.5t41 -86t70 -57t99 -20.5 q72 0 130 28.5t101 81.5q61 74 92 177t31 212q0 57 -13 106.5t-41 86.5t-70 57.5t-99 20.5q-72 0 -130 -29t-101 -82q-61 -74 -92 -177t-31 -212z" />
<glyph unicode="p" horiz-adv-x="1081" d="M-20 -461l258 1465h143l4 -64q63 39 142 65.5t157 26.5t137.5 -30.5t99.5 -85t60 -127t20 -156.5q0 -131 -41.5 -268.5t-132.5 -237.5q-61 -72 -148 -114t-198 -42q-66 0 -130 21.5t-113 56.5l-91 -510h-167zM258 176q47 -29 104.5 -45t116.5 -16q68 0 123 26.5t96 73.5 q63 72 97 181.5t34 232.5q0 141 -54 199.5t-148 58.5q-63 0 -133 -22.5t-123 -57.5z" />
<glyph unicode="q" horiz-adv-x="1081" d="M78 371q0 131 42 268t132 238q61 72 148 113.5t198 41.5q74 0 144.5 -26.5t119.5 -67.5l29 66h131l-258 -1453l-170 -24l92 530q-66 -41 -139.5 -63.5t-151.5 -22.5t-137 31t-99 84t-60.5 127t-20.5 158zM250 375q0 -141 54.5 -200.5t148.5 -59.5q63 0 133.5 23.5 t124.5 58.5l110 630q-47 29 -104.5 45.5t-116.5 16.5q-68 0 -123 -26.5t-96 -74.5q-63 -72 -97 -181t-34 -232z" />
<glyph unicode="r" horiz-adv-x="681" d="M59 0l179 1004h139l-6 -86q80 59 150.5 86.5t148.5 27.5q31 0 65 -6l-26 -154q-16 2 -41 3.5t-47 1.5q-129 0 -252 -72l-142 -805h-168z" />
<glyph unicode="s" horiz-adv-x="856" d="M16 27l29 131q61 -20 137 -33.5t142 -13.5q125 0 194.5 45t69.5 118q0 55 -34 87t-84 55.5t-109.5 44t-109.5 53.5t-84 84t-34 133q0 74 30 130.5t82 94t121.5 57t149.5 19.5q66 0 140.5 -10t138.5 -31l-31 -127q-57 14 -120.5 22.5t-123.5 8.5q-109 0 -171 -38t-62 -116 q0 -47 33.5 -77.5t85 -54t109.5 -46t109.5 -57.5t85 -85t33.5 -130q0 -84 -33.5 -143.5t-91 -99.5t-134 -58.5t-162.5 -18.5q-82 0 -168 16.5t-138 39.5z" />
<glyph unicode="t" horiz-adv-x="712" d="M68 879l16 96l184 26l41 230q37 12 87 21.5t87 9.5l-47 -258h277l-23 -125h-276l-99 -555q-6 -33 -10 -64t-4 -49q0 -51 27.5 -75.5t95.5 -24.5q33 0 91 7t97 15l-14 -125q-49 -14 -112.5 -25.5t-127.5 -11.5q-111 0 -168 58.5t-57 163.5q0 27 4 59.5t13 77.5l96 549 h-178z" />
<glyph unicode="u" horiz-adv-x="1103" d="M98 242q0 29 4 63.5t13 77.5l108 621h168l-110 -619q-6 -39 -9.5 -66.5t-3.5 -50.5q0 -82 46 -114.5t128 -32.5q66 0 143 20.5t142 53.5l143 809h168l-137 -766q-8 -45 -11 -91.5t-3 -109.5v-37h-156l-6 80q-78 -51 -167 -80t-169 -29q-129 0 -210 67.5t-81 203.5z" />
<glyph unicode="v" horiz-adv-x="935" d="M106 1004h170l130 -830l407 830h178l-522 -1004h-186z" />
<glyph unicode="w" horiz-adv-x="1431" d="M106 1004h166l76 -826l359 826h170l92 -836l348 836h164l-445 -1004h-194l-90 768l-340 -768h-195z" />
<glyph unicode="x" horiz-adv-x="954" d="M-35 0l422 502l-240 502h170l189 -392l295 392h186l-424 -510l238 -494h-172l-185 385l-292 -385h-187z" />
<glyph unicode="y" horiz-adv-x="1097" d="M98 242q0 29 4 63.5t13 77.5l108 621h168l-110 -619q-6 -39 -9.5 -66.5t-3.5 -50.5q0 -82 46 -114.5t128 -32.5q66 0 143 20.5t142 53.5l143 809h168l-190 -1082q-18 -104 -50 -174t-79 -121q-110 -116 -334 -116h-4q-47 0 -107.5 7t-105.5 19l8 133q18 -4 43 -7t50.5 -5 l51 -4t46.5 -2q80 0 134 16.5t91 57.5q31 33 53.5 84t36.5 129l23 127q-74 -45 -158 -70t-158 -25q-129 0 -210 67.5t-81 203.5z" />
<glyph unicode="z" horiz-adv-x="843" d="M-16 0l16 94l641 785h-498l21 125h704l-16 -101l-635 -778h508l-23 -125h-718z" />
<glyph unicode="{" horiz-adv-x="720" d="M111 463l24 139q70 12 108 27.5t66 40.5q33 29 54.5 78t37.5 141l60 338q25 139 80 194q39 41 99 54.5t153 13.5h49l-23 -133h-35q-53 0 -76.5 -7.5t-35.5 -19.5q-27 -27 -41 -112l-58 -324q-10 -61 -21 -104.5t-25.5 -75t-31 -56t-38.5 -45.5q-53 -49 -129 -80 q80 -37 110 -96q25 -47 25 -112q0 -31 -4 -67t-13 -83l-59 -336q-6 -37 -6 -61q0 -33 16 -49q12 -10 34 -14.5t63 -4.5h34l-22 -133h-49q-78 0 -128 13.5t-79 41.5q-43 39 -43 111q0 20 2 41.5t6 50.5l59 336q6 39 10.5 69.5t4.5 57.5q0 37 -6.5 59.5t-20.5 38.5 q-20 25 -56 40.5t-95 27.5z" />
<glyph unicode="|" horiz-adv-x="471" d="M-33 -518l365 2066h141l-364 -2066h-142z" />
<glyph unicode="}" horiz-adv-x="720" d="M-129 -424l23 133h34q53 0 77 7.5t36 19.5q27 27 41 112l57 324q10 61 21.5 104t26 75t30.5 55.5t39 46.5q51 49 129 79q-80 37 -111 97q-25 45 -24 112q0 31 4 67t12 83l60 336q6 37 6 61q0 33 -17 49q-12 10 -33.5 14.5t-62.5 4.5h-35l23 133h49q78 0 128 -13.5 t79 -41.5q43 -41 43 -111q0 -20 -2 -41.5t-6 -50.5l-60 -336q-6 -39 -10 -69.5t-4 -57.5q0 -37 6 -59.5t21 -38.5q20 -25 56 -40.5t95 -27.5l-24 -139q-70 -12 -108 -27.5t-67 -40.5q-33 -29 -54 -78t-38 -141l-59 -338q-25 -139 -80 -194q-39 -41 -99.5 -54.5t-152.5 -13.5 h-49z" />
<glyph unicode="~" d="M176 657q43 201 219 201q49 0 96.5 -13.5t91.5 -28.5t88 -27.5t89 -12.5q41 0 65.5 23.5t40.5 64.5l101 -22q-43 -201 -219 -201q-49 0 -96.5 12.5t-91.5 27.5t-88 28.5t-89 13.5q-41 0 -65.5 -23.5t-41.5 -64.5z" />
<glyph unicode="&#xa1;" horiz-adv-x="507" d="M-21 -398l207 1026h123l-151 -1026h-179zM184 878q0 39 11.5 73t27.5 50q31 31 84 31h14q84 0 84 -76q0 -39 -11 -73t-27 -50q-31 -31 -84 -31h-15q-84 0 -84 76z" />
<glyph unicode="&#xa2;" horiz-adv-x="1107" d="M164 387q0 139 47 268t137 219q63 63 141 101.5t179 50.5l41 236h116l-41 -232q53 -2 107.5 -12t95.5 -27l-29 -127q-45 14 -99 22.5t-99 8.5l-137 -784q47 0 114.5 7t120.5 19l-6 -123q-59 -18 -127 -28.5t-127 -14.5l-41 -229h-117l41 235q-152 23 -234.5 123.5 t-82.5 286.5zM338 393q0 -115 45 -184q37 -61 125 -86l133 760q-51 -12 -90 -35.5t-70 -56.5q-72 -76 -107.5 -182.5t-35.5 -215.5z" />
<glyph unicode="&#xa3;" horiz-adv-x="1107" d="M61 35q0 43 14.5 73.5t55.5 73.5q55 57 91 104.5t56.5 93.5t28.5 98t8 118v29.5t-2 44.5h-184l16 94l166 16q-2 16 -3 47t-1 91q0 135 34 229t103 160q127 121 383 120q66 0 143 -9t134 -25l-21 -129q-53 10 -122.5 17t-129.5 7q-197 0 -272 -86q-47 -53 -65.5 -124.5 t-18.5 -176.5v-62.5t2 -50.5h354l-20 -118h-330q2 -27 2 -39.5v-30.5q0 -72 -11 -131t-36.5 -113.5t-67.5 -107.5t-104 -113h701l-23 -135h-876q-4 16 -5 35z" />
<glyph unicode="&#xa4;" horiz-adv-x="1107" d="M70 338l180 158q-31 63 -31 153q0 78 26.5 150.5t73.5 130.5l-120 153l96 82l119 -151q49 31 107 48t124 17q121 0 197 -63l178 158l74 -91l-183 -157q31 -66 31 -152q0 -84 -28.5 -158.5t-82.5 -134.5l121 -151l-96 -82l-123 153q-96 -57 -217 -57q-119 0 -194 59 l-179 -155zM375 649q0 -78 40 -127t124 -49q49 0 94 21.5t78.5 61.5t54 95.5t20.5 122.5q0 78 -39.5 127t-123.5 49q-49 0 -94.5 -21.5t-79 -61.5t-54 -95t-20.5 -123z" />
<glyph unicode="&#xa5;" horiz-adv-x="1105" d="M127 301l20 117h269l18 96h-268l20 117h240l-240 770h166l199 -680l446 680h185l-525 -770h238l-21 -117h-272l-18 -96h272l-20 -117h-273l-53 -301h-168l53 301h-268z" />
<glyph unicode="&#xa6;" horiz-adv-x="471" d="M-33 -518l139 797h142l-139 -797h-142zM190 752l142 796h141l-141 -796h-142z" />
<glyph unicode="&#xa7;" horiz-adv-x="1112" d="M152 20l26 127q63 -18 143 -30.5t152 -12.5q115 0 179.5 40t64.5 118q0 49 -38 77t-95.5 47.5t-124 37.5t-123.5 50t-95 81t-38 133q0 94 49 157.5t129 100.5q-41 29 -66.5 74t-25.5 115q0 74 29.5 129t81 91t120 54t146.5 18q66 0 140.5 -10t137.5 -31l-31 -122 q-53 12 -115.5 21t-127.5 9q-109 0 -169.5 -34.5t-60.5 -110.5q0 -53 38 -83t93.5 -51.5t122 -40t121.5 -49t93 -80.5t38 -134q2 -90 -48 -152.5t-128 -101.5q43 -29 70.5 -73t27.5 -112q0 -125 -84 -202q-104 -98 -327 -99q-76 0 -160 13.5t-145 35.5zM356 707 q0 -47 26 -77t65.5 -50.5t91 -35t102.5 -30.5q76 23 114 74t38 104q0 47 -25 78t-64.5 50.5t-90 34.5t-99.5 32q-80 -20 -119 -70.5t-39 -109.5z" />
<glyph unicode="&#xa8;" horiz-adv-x="823" d="M115 1313q0 37 10 71.5t29 53.5q29 29 86 28h8q47 0 66.5 -18t19.5 -49q0 -37 -10.5 -72t-28.5 -53q-29 -29 -86 -29h-8q-47 0 -66.5 18.5t-19.5 49.5zM494 1313q0 37 10 71.5t28 53.5q29 29 86 28h9q47 0 66.5 -18t19.5 -49q0 -37 -10.5 -72t-28.5 -53q-29 -29 -86 -29 h-8q-47 0 -66.5 18.5t-19.5 49.5z" />
<glyph unicode="&#xa9;" horiz-adv-x="1587" d="M111 580q0 178 55 332.5t158.5 269t252 180t334.5 65.5q145 0 261 -45t196 -125.5t123 -192.5t43 -245q0 -178 -55.5 -332.5t-158.5 -269.5t-251.5 -180.5t-335.5 -65.5q-145 0 -261 45t-195.5 126t-122.5 192.5t-43 245.5zM250 586q0 -115 34.5 -206t100.5 -155.5 t160 -98.5t211 -34q147 0 265 54.5t201 149.5t128 227t45 290q0 115 -35 206t-100.5 155.5t-159.5 98.5t-211 34q-147 0 -266 -54.5t-202 -149.5t-127 -228.5t-44 -288.5zM528 612q0 82 22.5 164t70 146.5t117 104.5t165.5 40q47 0 87 -8t77 -23l-27 -90q-63 20 -131 21 q-70 0 -119 -31t-79.5 -81t-45 -112.5t-14.5 -126.5q0 -78 38 -126t130 -48q37 0 79 6.5t73 14.5l-4 -92q-39 -12 -89.5 -20.5t-93.5 -8.5q-127 0 -191.5 71.5t-64.5 198.5z" />
<glyph unicode="&#xaa;" horiz-adv-x="817" d="M182 899q0 37 13.5 79t48.5 77q37 39 99.5 59.5t160.5 20.5h133l10 55q2 10 3 19.5t1 17.5q0 51 -31.5 70.5t-103.5 19.5q-41 0 -95 -5t-99 -16l12 107q45 10 104.5 17t112.5 7q121 0 176 -42t55 -130q0 -12 -2 -31.5t-6 -39.5l-80 -459h-102l-4 45q-53 -31 -104.5 -45 t-100.5 -14q-100 0 -150.5 52t-50.5 136zM315 909q0 -84 115 -84q35 0 80 9.5t78 23.5l30 174h-124q-66 0 -100 -12t-50 -31q-29 -33 -29 -80z" />
<glyph unicode="&#xab;" horiz-adv-x="1050" d="M127 520q0 31 16.5 58.5t65.5 74.5l317 308l76 -76l-307 -348l176 -359l-90 -65l-211 307q-23 33 -33 58.5t-10 41.5zM506 520q0 31 16.5 58.5t65.5 74.5l317 308l76 -76l-307 -348l176 -359l-90 -65l-211 307q-23 33 -33 58.5t-10 41.5z" />
<glyph unicode="&#xac;" d="M225 795l23 129h665l-84 -498h-127l66 369h-543z" />
<glyph unicode="&#xad;" horiz-adv-x="645" d="M119 459l26 145h406l-27 -145h-405z" />
<glyph unicode="&#xae;" horiz-adv-x="1587" d="M111 580q0 178 55 332.5t158.5 269t252 180t334.5 65.5q145 0 261 -45t196 -125.5t123 -192.5t43 -245q0 -178 -55.5 -332.5t-158.5 -269.5t-251.5 -180.5t-335.5 -65.5q-145 0 -261 45t-195.5 126t-122.5 192.5t-43 245.5zM250 586q0 -115 34.5 -206t100.5 -155.5 t160 -98.5t211 -34q147 0 265 54.5t201 149.5t128 227t45 290q0 115 -35 206t-100.5 155.5t-159.5 98.5t-211 34q-147 0 -266 -54.5t-202 -149.5t-127 -228.5t-44 -288.5zM543 358l125 701h200q125 0 183 -45q55 -45 55 -131q0 -37 -11.5 -75t-32 -69.5t-50 -56.5t-68.5 -35 l90 -289h-121l-82 269h-124l-48 -269h-116zM723 721h102q72 0 116 38t44 115q0 45 -27.5 68t-93.5 23h-98z" />
<glyph unicode="&#xaf;" horiz-adv-x="823" d="M137 1251l25 138h524l-24 -138h-525z" />
<glyph unicode="&#xb0;" horiz-adv-x="948" d="M184 995q0 82 32 167t91 149q59 59 133 87.5t158 28.5q133 0 209 -77.5t76 -219.5q0 -82 -32 -166.5t-91 -148.5q-59 -59 -133 -88t-158 -29q-133 0 -209 78t-76 219zM334 995q0 -80 38 -125t120 -45q92 0 153 66q41 45 64.5 109.5t23.5 129.5q0 80 -38 125t-120 45 q-92 0 -153 -65q-41 -45 -64.5 -109.5t-23.5 -130.5z" />
<glyph unicode="&#xb1;" d="M123 0l22 129h668l-22 -129h-668zM231 610l23 129h270l47 275h127l-49 -275h273l-23 -129h-272l-47 -276h-127l49 276h-271z" />
<glyph unicode="&#xb2;" horiz-adv-x="946" d="M213 643q0 18 3 32.5t12.5 30t26.5 34t44 44.5l195 187q55 51 88.5 89t52 66.5t26 51t7.5 45.5q0 47 -36 67.5t-95 20.5q-47 0 -105.5 -6.5t-105.5 -16.5l18 109q45 12 109.5 21t115.5 9q115 0 182.5 -50t67.5 -148q0 -31 -7 -61.5t-28.5 -66.5t-59.5 -77t-97 -94 l-228 -203h340l-20 -117h-502q-4 16 -4 33z" />
<glyph unicode="&#xb3;" horiz-adv-x="946" d="M201 621l18 110q100 -23 187 -22q92 0 142 42t50 119q0 53 -34 77t-118 24h-40l18 104h43q92 0 136 39t44 103q0 49 -31.5 71.5t-109.5 22.5q-35 0 -81 -4t-93 -11l18 111q35 10 90.5 15t102.5 5q143 0 205 -61q49 -49 49 -137q0 -59 -35 -114.5t-111 -86.5 q49 -16 77 -56t28 -95q0 -78 -28 -131.5t-76 -88t-111.5 -50t-134.5 -15.5q-49 0 -106.5 8t-98.5 21z" />
<glyph unicode="&#xb4;" horiz-adv-x="823" d="M170 1235l410 319l79 -129l-432 -280z" />
<glyph unicode="&#xb6;" horiz-adv-x="1208" d="M193 952q0 94 27.5 176t82.5 142q59 63 146.5 97t218.5 34h565l-25 -135h-141l-297 -1682h-147l297 1682h-148l-297 -1682h-147l190 1084q-154 0 -239.5 72.5t-85.5 211.5z" />
<glyph unicode="&#xb7;" horiz-adv-x="454" d="M145 688q0 39 11.5 73t27.5 50q31 31 84 31h15q84 0 84 -76q0 -39 -11.5 -73t-27.5 -50q-31 -31 -84 -31h-15q-84 0 -84 76z" />
<glyph unicode="&#xb8;" horiz-adv-x="823" d="M193 -444l18 106q66 -16 131 -16q113 0 113 63q0 29 -31 43.5t-68 29.5t-67.5 38.5t-30.5 66.5q0 29 17.5 62t56.5 65h92q-31 -45 -31 -75q0 -27 31 -40.5t66.5 -29.5t66.5 -46t31 -87q0 -39 -13.5 -76t-42.5 -66q-63 -63 -190 -63q-33 0 -75 7t-74 18z" />
<glyph unicode="&#xb9;" horiz-adv-x="946" d="M238 610l18 113h166l102 580h-157l18 106q51 4 115.5 7t101.5 3q41 0 60.5 -15t13.5 -54l-111 -627h148l-19 -113h-456z" />
<glyph unicode="&#xba;" horiz-adv-x="843" d="M188 981q0 106 36 200.5t102 155.5q47 45 108 67.5t141 22.5q127 0 195 -73.5t68 -196.5q0 -106 -36 -200.5t-102 -155.5q-47 -45 -108.5 -67.5t-140.5 -22.5q-127 0 -195 73.5t-68 196.5zM332 981q0 -152 139 -152q82 0 139 58q41 41 62.5 110.5t21.5 159.5 q0 152 -139 152q-82 0 -139 -58q-41 -41 -62.5 -110.5t-21.5 -159.5z" />
<glyph unicode="&#xbb;" horiz-adv-x="1050" d="M70 188l307 349l-176 358l90 66l211 -308q23 -33 33 -58.5t10 -41.5q0 -31 -16.5 -58.5t-65.5 -74.5l-318 -307zM449 188l307 349l-176 358l90 66l211 -308q23 -33 33 -58.5t10 -41.5q0 -31 -16.5 -58.5t-65.5 -74.5l-318 -307z" />
<glyph unicode="&#xbc;" horiz-adv-x="1925" d="M266 610l19 113h166l102 580h-158l19 106q51 4 115.5 7t101.5 3q41 0 60.5 -15t13.5 -54l-111 -627h147l-18 -113h-457zM451 -29l958 1456h160l-959 -1456h-159zM1087 223q0 23 10.5 49.5t26.5 57.5l254 489h133l-258 -506h215l33 183h135l-32 -183h94l-21 -118h-94 l-35 -195h-135l35 195h-356q-4 16 -5 28z" />
<glyph unicode="&#xbd;" horiz-adv-x="1925" d="M246 610l18 113h166l102 580h-157l18 106q51 4 115.5 7t101.5 3q41 0 60.5 -15t13.5 -54l-111 -627h148l-19 -113h-456zM432 -29l959 1456h159l-958 -1456h-160zM1126 39q0 18 3 32.5t12.5 30t26.5 34t44 44.5l195 187q55 51 88.5 89t52 66.5t26 51t7.5 45.5 q0 47 -36 67.5t-95 20.5q-47 0 -105.5 -6.5t-105.5 -16.5l18 109q45 12 109.5 21t115.5 9q115 0 182.5 -50t67.5 -148q0 -31 -7 -61.5t-28.5 -66.5t-59.5 -77t-97 -94l-228 -203h340l-20 -117h-502q-4 16 -4 33z" />
<glyph unicode="&#xbe;" horiz-adv-x="1925" d="M233 621l19 110q100 -23 186 -22q92 0 142.5 42t50.5 119q0 53 -34 77t-118 24h-41l19 104h43q92 0 136 39t44 103q0 49 -32 71.5t-109 22.5q-35 0 -81 -4t-93 -11l18 111q35 10 90 15t102 5q143 0 205 -61q49 -49 49 -137q0 -59 -34.5 -114.5t-110.5 -86.5 q49 -16 76.5 -56t27.5 -95q0 -78 -27.5 -131.5t-75.5 -88t-111.5 -50t-135.5 -15.5q-49 0 -106.5 8t-98.5 21zM451 -29l958 1456h160l-959 -1456h-159zM1087 223q0 23 10.5 49.5t26.5 57.5l254 489h133l-258 -506h215l33 183h135l-32 -183h94l-21 -118h-94l-35 -195h-135 l35 195h-356q-4 16 -5 28z" />
<glyph unicode="&#xbf;" horiz-adv-x="839" d="M-35 -119q0 84 30.5 150.5t80 125t106.5 110.5t110.5 107.5t95.5 116.5t56 137h123q0 -80 -32 -144.5t-79 -121.5t-101 -109.5t-101 -105.5t-79 -112.5t-32 -131.5q0 -86 51 -133q57 -51 185 -51q53 0 120.5 9t120.5 24l10 -129q-49 -20 -127.5 -33.5t-156.5 -13.5 q-96 0 -170 21.5t-121 66.5q-41 39 -65.5 92t-24.5 125zM440 878q0 39 11.5 73t27.5 50q31 31 84 31h14q84 0 84 -76q0 -39 -11 -73t-28 -50q-31 -31 -84 -31h-14q-84 0 -84 76z" />
<glyph unicode="&#xc0;" horiz-adv-x="1183" d="M-57 0l675 1401h201l225 -1401h-178l-55 373h-514l-176 -373h-178zM365 516h426l-101 684h-2zM576 1815l102 114l299 -319l-67 -76z" />
<glyph unicode="&#xc1;" horiz-adv-x="1183" d="M-57 0l675 1401h201l225 -1401h-178l-55 373h-514l-176 -373h-178zM365 516h426l-101 684h-2zM531 1624l409 320l80 -129l-432 -281z" />
<glyph unicode="&#xc2;" horiz-adv-x="1183" d="M-57 0l675 1401h201l225 -1401h-178l-55 373h-514l-176 -373h-178zM365 516h426l-101 684h-2zM450 1597l293 301h141l185 -301l-62 -61l-211 219l-287 -217z" />
<glyph unicode="&#xc3;" horiz-adv-x="1183" d="M-57 0l675 1401h201l225 -1401h-178l-55 373h-514l-176 -373h-178zM365 516h426l-101 684h-2zM443 1636q18 111 73.5 162t130.5 51q39 0 75 -12t69 -27.5t62.5 -28t58.5 -12.5t53 17.5t41 64.5l90 -16q-18 -111 -73.5 -162t-131.5 -51q-39 0 -74.5 12.5t-68.5 27.5 t-63.5 27.5t-57.5 12.5q-29 0 -53.5 -17.5t-40.5 -64.5z" />
<glyph unicode="&#xc4;" horiz-adv-x="1183" d="M-57 0l675 1401h201l225 -1401h-178l-55 373h-514l-176 -373h-178zM365 516h426l-101 684h-2zM471 1690q0 37 10.5 71.5t28.5 53.5q29 29 86 28h8q47 0 66.5 -18.5t19.5 -48.5q0 -37 -10 -72t-29 -53q-29 -29 -86 -29h-8q-47 0 -66.5 18.5t-19.5 49.5zM850 1690 q0 37 10.5 71.5t28.5 53.5q29 29 86 28h8q47 0 66.5 -18.5t19.5 -48.5q0 -37 -10 -72t-29 -53q-29 -29 -86 -29h-8q-47 0 -66.5 18.5t-19.5 49.5z" />
<glyph unicode="&#xc5;" horiz-adv-x="1183" d="M-57 0l675 1401h201l225 -1401h-178l-55 373h-514l-176 -373h-178zM365 516h426l-101 684h-2zM545 1720q0 143 68.5 211t193.5 68h10q94 0 145.5 -48t51.5 -126q0 -143 -68.5 -211t-193.5 -68h-11q-94 0 -145 48t-51 126zM657 1735q0 -41 26 -62.5t73 -21.5h8 q68 0 102.5 37.5t34.5 121.5q0 41 -25.5 62.5t-72.5 21.5h-8q-68 0 -103 -37.5t-35 -121.5z" />
<glyph unicode="&#xc6;" horiz-adv-x="1808" d="M-68 0l1049 1401h872l-41 -144h-587l-84 -473h479l-27 -149h-479l-88 -492h623l-27 -143h-801l66 373h-488l-274 -373h-193zM506 516h407l127 723h-2z" />
<glyph unicode="&#xc7;" horiz-adv-x="1112" d="M106 512q0 96 19.5 195.5t54.5 193.5t84 177t111 145q92 96 213 150t284 54q72 0 147 -13t146 -44l-53 -133q-66 23 -124 32t-118 9q-125 0 -216 -46t-156 -124q-94 -109 -148.5 -267.5t-54.5 -328.5q0 -197 89 -293t282 -96q55 0 128.5 9t131.5 22l-6 -142 q-61 -16 -145.5 -28.5t-162.5 -12.5q-18 0 -36.5 1t-34.5 3q-6 -23 -6 -36q0 -27 30.5 -40.5t66.5 -29.5t66.5 -46t30.5 -87q0 -39 -13.5 -76t-41.5 -66q-63 -63 -191 -63q-33 0 -74.5 7t-74.5 18l18 106q66 -16 131 -16q113 0 113 63q0 29 -30.5 43.5t-67.5 29.5t-68 38.5 t-31 66.5q0 51 47 105q-174 41 -257 174t-83 346z" />
<glyph unicode="&#xc8;" horiz-adv-x="1054" d="M68 0l247 1401h785l-41 -144h-588l-84 -473h479l-26 -149h-480l-88 -492h623l-27 -143h-800zM551 1815l102 114l299 -319l-67 -76z" />
<glyph unicode="&#xc9;" horiz-adv-x="1054" d="M68 0l247 1401h785l-41 -144h-588l-84 -473h479l-26 -149h-480l-88 -492h623l-27 -143h-800zM529 1624l409 320l80 -129l-432 -281z" />
<glyph unicode="&#xca;" horiz-adv-x="1054" d="M68 0l247 1401h785l-41 -144h-588l-84 -473h479l-26 -149h-480l-88 -492h623l-27 -143h-800zM430 1597l293 301h141l185 -301l-62 -61l-211 219l-287 -217z" />
<glyph unicode="&#xcb;" horiz-adv-x="1054" d="M68 0l247 1401h785l-41 -144h-588l-84 -473h479l-26 -149h-480l-88 -492h623l-27 -143h-800zM448 1690q0 37 10.5 71.5t28.5 53.5q29 29 86 28h8q47 0 66.5 -18.5t19.5 -48.5q0 -37 -10 -72t-29 -53q-29 -29 -86 -29h-8q-47 0 -66.5 18.5t-19.5 49.5zM827 1690 q0 37 10.5 71.5t28.5 53.5q29 29 86 28h8q47 0 66.5 -18.5t19.5 -48.5q0 -37 -10 -72t-29 -53q-29 -29 -86 -29h-8q-47 0 -66.5 18.5t-19.5 49.5z" />
<glyph unicode="&#xcc;" horiz-adv-x="514" d="M72 0l247 1401h181l-248 -1401h-180zM248 1815l102 114l299 -319l-67 -76z" />
<glyph unicode="&#xcd;" horiz-adv-x="514" d="M72 0l247 1401h181l-248 -1401h-180zM242 1624l409 320l80 -129l-432 -281z" />
<glyph unicode="&#xce;" horiz-adv-x="514" d="M72 0l247 1401h181l-248 -1401h-180zM127 1597l293 301h141l185 -301l-62 -61l-211 219l-287 -217z" />
<glyph unicode="&#xcf;" horiz-adv-x="514" d="M72 0l247 1401h181l-248 -1401h-180zM174 1690q0 37 10.5 71.5t28.5 53.5q29 29 86 28h8q47 0 66.5 -18.5t19.5 -48.5q0 -37 -10 -72t-29 -53q-29 -29 -86 -29h-8q-47 0 -66.5 18.5t-19.5 49.5zM553 1690q0 37 10.5 71.5t28.5 53.5q29 29 86 28h8q47 0 66.5 -18.5 t19.5 -48.5q0 -37 -10 -72t-29 -53q-29 -29 -86 -29h-8q-47 0 -66.5 18.5t-19.5 49.5z" />
<glyph unicode="&#xd0;" horiz-adv-x="1316" d="M29 639l24 139h185l110 623h309q154 0 280 -31t212 -123q55 -59 87 -150t32 -227q0 -80 -15.5 -171t-48.5 -181t-84 -175t-123 -155q-88 -86 -209.5 -137t-304.5 -51h-383l113 639h-184zM305 143h174q127 0 219.5 37t159.5 103q57 53 99 122.5t70 147.5t41 161t13 165 q0 104 -22.5 172.5t-67.5 111.5q-57 55 -149 74.5t-230 19.5h-108l-86 -479h282l-24 -139h-283z" />
<glyph unicode="&#xd1;" horiz-adv-x="1361" d="M68 0l247 1401h136l542 -1100l195 1100h164l-248 -1401h-135l-543 1100l-195 -1100h-163zM568 1636q18 111 73.5 162t130.5 51q39 0 75 -12t69 -27.5t62.5 -28t58.5 -12.5t53 17.5t41 64.5l90 -16q-18 -111 -73.5 -162t-131.5 -51q-39 0 -74.5 12.5t-68.5 27.5 t-63.5 27.5t-57.5 12.5q-29 0 -53.5 -17.5t-40.5 -64.5z" />
<glyph unicode="&#xd2;" horiz-adv-x="1298" d="M106 496q0 98 17.5 202.5t51.5 203.5t83 188.5t115 158.5q78 84 182 131t231 47q227 0 345 -141t118 -383q0 -98 -17.5 -202.5t-51 -204t-83.5 -188.5t-114 -158q-78 -84 -182.5 -131.5t-231.5 -47.5q-227 0 -345 141.5t-118 383.5zM295 487q0 -74 15.5 -139t49 -114.5 t87 -78t131.5 -28.5q195 0 319 186q39 57 69.5 131t51 153t32 160t11.5 154q0 74 -15.5 139.5t-49 114.5t-88 78t-130.5 29q-195 0 -319 -187q-39 -59 -70 -131.5t-51.5 -151.5t-31.5 -160t-11 -155zM668 1815l102 114l299 -319l-67 -76z" />
<glyph unicode="&#xd3;" horiz-adv-x="1298" d="M106 496q0 98 17.5 202.5t51.5 203.5t83 188.5t115 158.5q78 84 182 131t231 47q227 0 345 -141t118 -383q0 -98 -17.5 -202.5t-51 -204t-83.5 -188.5t-114 -158q-78 -84 -182.5 -131.5t-231.5 -47.5q-227 0 -345 141.5t-118 383.5zM295 487q0 -74 15.5 -139t49 -114.5 t87 -78t131.5 -28.5q195 0 319 186q39 57 69.5 131t51 153t32 160t11.5 154q0 74 -15.5 139.5t-49 114.5t-88 78t-130.5 29q-195 0 -319 -187q-39 -59 -70 -131.5t-51.5 -151.5t-31.5 -160t-11 -155zM621 1624l409 320l80 -129l-432 -281z" />
<glyph unicode="&#xd4;" horiz-adv-x="1298" d="M106 496q0 98 17.5 202.5t51.5 203.5t83 188.5t115 158.5q78 84 182 131t231 47q227 0 345 -141t118 -383q0 -98 -17.5 -202.5t-51 -204t-83.5 -188.5t-114 -158q-78 -84 -182.5 -131.5t-231.5 -47.5q-227 0 -345 141.5t-118 383.5zM295 487q0 -74 15.5 -139t49 -114.5 t87 -78t131.5 -28.5q195 0 319 186q39 57 69.5 131t51 153t32 160t11.5 154q0 74 -15.5 139.5t-49 114.5t-88 78t-130.5 29q-195 0 -319 -187q-39 -59 -70 -131.5t-51.5 -151.5t-31.5 -160t-11 -155zM522 1597l293 301h141l185 -301l-62 -61l-211 219l-287 -217z" />
<glyph unicode="&#xd5;" horiz-adv-x="1298" d="M106 496q0 98 17.5 202.5t51.5 203.5t83 188.5t115 158.5q78 84 182 131t231 47q227 0 345 -141t118 -383q0 -98 -17.5 -202.5t-51 -204t-83.5 -188.5t-114 -158q-78 -84 -182.5 -131.5t-231.5 -47.5q-227 0 -345 141.5t-118 383.5zM295 487q0 -74 15.5 -139t49 -114.5 t87 -78t131.5 -28.5q195 0 319 186q39 57 69.5 131t51 153t32 160t11.5 154q0 74 -15.5 139.5t-49 114.5t-88 78t-130.5 29q-195 0 -319 -187q-39 -59 -70 -131.5t-51.5 -151.5t-31.5 -160t-11 -155zM525 1636q18 111 73.5 162t130.5 51q39 0 75 -12t69 -27.5t62.5 -28 t58.5 -12.5t53 17.5t41 64.5l90 -16q-18 -111 -73.5 -162t-131.5 -51q-39 0 -74.5 12.5t-68.5 27.5t-63.5 27.5t-57.5 12.5q-29 0 -53.5 -17.5t-40.5 -64.5z" />
<glyph unicode="&#xd6;" horiz-adv-x="1298" d="M106 496q0 98 17.5 202.5t51.5 203.5t83 188.5t115 158.5q78 84 182 131t231 47q227 0 345 -141t118 -383q0 -98 -17.5 -202.5t-51 -204t-83.5 -188.5t-114 -158q-78 -84 -182.5 -131.5t-231.5 -47.5q-227 0 -345 141.5t-118 383.5zM295 487q0 -74 15.5 -139t49 -114.5 t87 -78t131.5 -28.5q195 0 319 186q39 57 69.5 131t51 153t32 160t11.5 154q0 74 -15.5 139.5t-49 114.5t-88 78t-130.5 29q-195 0 -319 -187q-39 -59 -70 -131.5t-51.5 -151.5t-31.5 -160t-11 -155zM555 1684q0 37 10.5 71.5t28.5 53.5q29 29 86 28h8q47 0 66.5 -18.5 t19.5 -48.5q0 -37 -10 -72t-29 -53q-29 -29 -86 -29h-8q-47 0 -66.5 18.5t-19.5 49.5zM934 1684q0 37 10.5 71.5t28.5 53.5q29 29 86 28h8q47 0 66.5 -18.5t19.5 -48.5q0 -37 -10 -72t-29 -53q-29 -29 -86 -29h-8q-47 0 -66.5 18.5t-19.5 49.5z" />
<glyph unicode="&#xd7;" d="M256 481l225 195l-155 192l102 88l156 -192l225 197l78 -93l-228 -196l160 -197l-102 -88l-160 197l-223 -195z" />
<glyph unicode="&#xd8;" horiz-adv-x="1298" d="M106 496q0 98 17.5 202.5t51.5 203.5t83 188.5t115 158.5q78 84 182 131t231 47q111 0 201 -38l88 161h139l-122 -225q78 -68 117.5 -175.5t39.5 -246.5q0 -98 -17.5 -202.5t-51 -204t-83.5 -188.5t-114 -158q-78 -84 -182.5 -131.5t-231.5 -47.5q-57 0 -107 10.5 t-93 26.5l-86 -160h-140l123 224q-78 68 -119 175.5t-41 248.5zM295 487q0 -72 14.5 -136t46.5 -113l551 1005q-57 29 -129 29q-195 0 -319 -187q-39 -59 -70 -131.5t-51.5 -151.5t-31.5 -160t-11 -155zM449 154q29 -12 59.5 -19.5t69.5 -7.5q195 0 319 186q39 57 69.5 131 t51 153t32 159.5t11.5 154.5q0 72 -14.5 135.5t-47.5 112.5z" />
<glyph unicode="&#xd9;" horiz-adv-x="1310" d="M133 354q0 41 6 90.5t17 108.5l149 848h180l-149 -844q-10 -53 -15.5 -97t-5.5 -83q0 -129 74 -189.5t207 -60.5q88 0 157.5 28.5t116.5 77.5q37 37 68 105t51 184l156 879h164l-162 -914q-12 -70 -27.5 -123t-35 -96t-43 -77.5t-54.5 -65.5q-72 -74 -177 -114t-235 -40 q-96 0 -177 24.5t-140 72t-92 119t-33 167.5zM629 1815l102 114l299 -319l-67 -76z" />
<glyph unicode="&#xda;" horiz-adv-x="1310" d="M133 354q0 41 6 90.5t17 108.5l149 848h180l-149 -844q-10 -53 -15.5 -97t-5.5 -83q0 -129 74 -189.5t207 -60.5q88 0 157.5 28.5t116.5 77.5q37 37 68 105t51 184l156 879h164l-162 -914q-12 -70 -27.5 -123t-35 -96t-43 -77.5t-54.5 -65.5q-72 -74 -177 -114t-235 -40 q-96 0 -177 24.5t-140 72t-92 119t-33 167.5zM662 1624l409 320l80 -129l-432 -281z" />
<glyph unicode="&#xdb;" horiz-adv-x="1310" d="M133 354q0 41 6 90.5t17 108.5l149 848h180l-149 -844q-10 -53 -15.5 -97t-5.5 -83q0 -129 74 -189.5t207 -60.5q88 0 157.5 28.5t116.5 77.5q37 37 68 105t51 184l156 879h164l-162 -914q-12 -70 -27.5 -123t-35 -96t-43 -77.5t-54.5 -65.5q-72 -74 -177 -114t-235 -40 q-96 0 -177 24.5t-140 72t-92 119t-33 167.5zM532 1597l293 301h141l185 -301l-62 -61l-211 219l-287 -217z" />
<glyph unicode="&#xdc;" horiz-adv-x="1310" d="M133 354q0 41 6 90.5t17 108.5l149 848h180l-149 -844q-10 -53 -15.5 -97t-5.5 -83q0 -129 74 -189.5t207 -60.5q88 0 157.5 28.5t116.5 77.5q37 37 68 105t51 184l156 879h164l-162 -914q-12 -70 -27.5 -123t-35 -96t-43 -77.5t-54.5 -65.5q-72 -74 -177 -114t-235 -40 q-96 0 -177 24.5t-140 72t-92 119t-33 167.5zM555 1690q0 37 10.5 71.5t28.5 53.5q29 29 86 28h8q47 0 66.5 -18.5t19.5 -48.5q0 -37 -10 -72t-29 -53q-29 -29 -86 -29h-8q-47 0 -66.5 18.5t-19.5 49.5zM934 1690q0 37 10.5 71.5t28.5 53.5q29 29 86 28h8q47 0 66.5 -18.5 t19.5 -48.5q0 -37 -10 -72t-29 -53q-29 -29 -86 -29h-8q-47 0 -66.5 18.5t-19.5 49.5z" />
<glyph unicode="&#xdd;" horiz-adv-x="1155" d="M174 1401h184l240 -678l483 678h193l-612 -832l-101 -569h-178l100 561zM547 1624l409 320l80 -129l-432 -281z" />
<glyph unicode="&#xde;" horiz-adv-x="1144" d="M68 0l247 1401h183l-47 -256h190q248 0 360 -101q98 -88 99 -247q0 -117 -37 -211t-105 -164q-74 -74 -183 -115t-245 -41h-235l-47 -266h-180zM319 410h183q111 0 187.5 28.5t127.5 81.5q47 49 72.5 118t25.5 148q0 55 -17 94.5t-46 63.5q-37 33 -98.5 45t-139.5 12 h-188z" />
<glyph unicode="&#xdf;" horiz-adv-x="1269" d="M16 -461l236 1342h-178l16 94l184 26l5 23q43 236 164.5 355.5t338.5 119.5q80 0 145.5 -18.5t112.5 -52t73 -85t26 -114.5q0 -74 -29 -129.5t-71 -98.5t-92 -77.5t-92 -66.5t-70.5 -63.5t-28.5 -68.5q0 -39 29.5 -66.5t74.5 -52t97.5 -50.5t97.5 -60.5t74.5 -81.5 t29.5 -117q0 -82 -33.5 -142.5t-91 -101.5t-134.5 -61.5t-165 -20.5q-92 0 -173 14.5t-134 30.5l33 129q59 -16 134 -25t134 -9q115 0 189.5 42t74.5 130q0 47 -29.5 77.5t-73.5 55t-95.5 48t-95.5 55.5t-73.5 77t-29.5 113q0 57 27.5 101t69.5 81t91.5 71.5t91.5 72.5 t69.5 83t27.5 105q0 63 -47 101t-140 38q-145 0 -227 -84q-43 -45 -72.5 -118t-50.5 -187l-252 -1434h-168z" />
<glyph unicode="&#xe0;" d="M78 371q0 131 42 268t132 238q61 72 148 113.5t198 41.5q74 0 144.5 -26.5t119.5 -67.5l29 66h129l-137 -766q-8 -45 -11.5 -91.5t-3.5 -109.5v-37h-155l-8 72q-70 -47 -147 -74t-163 -27q-78 0 -137 31t-99 84t-60.5 127t-20.5 158zM250 375q0 -141 54.5 -200.5 t148.5 -59.5q63 0 132.5 23.5t123.5 58.5l112 630q-47 29 -104.5 46.5t-116.5 17.5q-68 0 -123 -26.5t-96 -73.5q-63 -72 -97 -182.5t-34 -233.5zM448 1425l102 115l299 -319l-67 -76z" />
<glyph unicode="&#xe1;" d="M78 371q0 131 42 268t132 238q61 72 148 113.5t198 41.5q74 0 144.5 -26.5t119.5 -67.5l29 66h129l-137 -766q-8 -45 -11.5 -91.5t-3.5 -109.5v-37h-155l-8 72q-70 -47 -147 -74t-163 -27q-78 0 -137 31t-99 84t-60.5 127t-20.5 158zM250 375q0 -141 54.5 -200.5 t148.5 -59.5q63 0 132.5 23.5t123.5 58.5l112 630q-47 29 -104.5 46.5t-116.5 17.5q-68 0 -123 -26.5t-96 -73.5q-63 -72 -97 -182.5t-34 -233.5zM471 1235l410 319l79 -129l-432 -280z" />
<glyph unicode="&#xe2;" d="M78 371q0 131 42 268t132 238q61 72 148 113.5t198 41.5q74 0 144.5 -26.5t119.5 -67.5l29 66h129l-137 -766q-8 -45 -11.5 -91.5t-3.5 -109.5v-37h-155l-8 72q-70 -47 -147 -74t-163 -27q-78 0 -137 31t-99 84t-60.5 127t-20.5 158zM250 375q0 -141 54.5 -200.5 t148.5 -59.5q63 0 132.5 23.5t123.5 58.5l112 630q-47 29 -104.5 46.5t-116.5 17.5q-68 0 -123 -26.5t-96 -73.5q-63 -72 -97 -182.5t-34 -233.5zM338 1208l293 301h142l184 -301l-62 -61l-210 219l-287 -217z" />
<glyph unicode="&#xe3;" d="M78 371q0 131 42 268t132 238q61 72 148 113.5t198 41.5q74 0 144.5 -26.5t119.5 -67.5l29 66h129l-137 -766q-8 -45 -11.5 -91.5t-3.5 -109.5v-37h-155l-8 72q-70 -47 -147 -74t-163 -27q-78 0 -137 31t-99 84t-60.5 127t-20.5 158zM250 375q0 -141 54.5 -200.5 t148.5 -59.5q63 0 132.5 23.5t123.5 58.5l112 630q-47 29 -104.5 46.5t-116.5 17.5q-68 0 -123 -26.5t-96 -73.5q-63 -72 -97 -182.5t-34 -233.5zM338 1247q18 111 73.5 162t131.5 51q39 0 74.5 -12t68.5 -27.5t62.5 -28t58.5 -12.5t53.5 17.5t40.5 64.5l90 -16 q-18 -111 -73.5 -162t-131.5 -51q-39 0 -74.5 12t-68.5 27.5t-63.5 28t-57.5 12.5q-29 0 -53.5 -17.5t-40.5 -64.5z" />
<glyph unicode="&#xe4;" d="M78 371q0 131 42 268t132 238q61 72 148 113.5t198 41.5q74 0 144.5 -26.5t119.5 -67.5l29 66h129l-137 -766q-8 -45 -11.5 -91.5t-3.5 -109.5v-37h-155l-8 72q-70 -47 -147 -74t-163 -27q-78 0 -137 31t-99 84t-60.5 127t-20.5 158zM250 375q0 -141 54.5 -200.5 t148.5 -59.5q63 0 132.5 23.5t123.5 58.5l112 630q-47 29 -104.5 46.5t-116.5 17.5q-68 0 -123 -26.5t-96 -73.5q-63 -72 -97 -182.5t-34 -233.5zM377 1313q0 37 10 71.5t29 53.5q29 29 86 28h8q47 0 66.5 -18t19.5 -49q0 -37 -10.5 -72t-28.5 -53q-29 -29 -86 -29h-8 q-47 0 -66.5 18.5t-19.5 49.5zM756 1313q0 37 10 71.5t28 53.5q29 29 86 28h9q47 0 66.5 -18t19.5 -49q0 -37 -10.5 -72t-28.5 -53q-29 -29 -86 -29h-8q-47 0 -66.5 18.5t-19.5 49.5z" />
<glyph unicode="&#xe5;" d="M78 371q0 131 42 268t132 238q61 72 148 113.5t198 41.5q74 0 144.5 -26.5t119.5 -67.5l29 66h129l-137 -766q-8 -45 -11.5 -91.5t-3.5 -109.5v-37h-155l-8 72q-70 -47 -147 -74t-163 -27q-78 0 -137 31t-99 84t-60.5 127t-20.5 158zM250 375q0 -141 54.5 -200.5 t148.5 -59.5q63 0 132.5 23.5t123.5 58.5l112 630q-47 29 -104.5 46.5t-116.5 17.5q-68 0 -123 -26.5t-96 -73.5q-63 -72 -97 -182.5t-34 -233.5zM452 1331q0 143 68.5 211t193.5 68h11q94 0 145 -48.5t51 -125.5q0 -143 -68.5 -211t-193.5 -68h-10q-94 0 -145.5 48 t-51.5 126zM565 1346q0 -41 25.5 -62.5t72.5 -21.5h8q68 0 102.5 37.5t34.5 121.5q0 41 -25.5 62.5t-72.5 21.5h-8q-68 0 -102.5 -37.5t-34.5 -121.5z" />
<glyph unicode="&#xe6;" horiz-adv-x="1632" d="M61 270q0 119 70 193q55 57 144.5 81.5t218.5 24.5h221q12 43 18 84t6 60q0 96 -52 139t-179 43q-57 0 -127 -8t-145 -21l18 131q72 16 152.5 25.5t152.5 9.5q121 0 199 -30.5t119 -102.5q63 61 143 97t172 36t156.5 -28.5t107.5 -75.5q49 -55 71.5 -131t22.5 -158 q0 -70 -12 -139q-6 -35 -17.5 -45.5t-41.5 -10.5h-611q-2 -16 -2 -29.5v-27.5q0 -137 70 -205q35 -35 93 -52t151 -17q29 0 62.5 3t68.5 7t66.5 9t56.5 11l-11 -133q-70 -16 -148.5 -27.5t-139.5 -11.5q-129 0 -214 32t-141 97q-82 -57 -179 -93t-200 -36q-160 0 -250 80 t-90 219zM231 274q0 -78 49.5 -121.5t147.5 -43.5q78 0 159 27.5t134 64.5q-31 75 -31 184v29.5t2 29.5h-198q-72 0 -125.5 -10t-85.5 -37q-51 -41 -52 -123zM883 569h495q6 39 6 74q0 55 -12 102.5t-41 81.5q-25 29 -61.5 46.5t-85.5 17.5q-57 0 -105.5 -23.5t-87.5 -64.5 q-41 -45 -66.5 -103.5t-41.5 -130.5z" />
<glyph unicode="&#xe7;" horiz-adv-x="872" d="M72 387q0 139 47 268t137 219q78 78 177 118t235 40q59 0 120.5 -12t108.5 -29l-29 -129q-45 14 -99 22.5t-99 8.5q-98 0 -165 -27.5t-114 -77.5q-72 -76 -107.5 -181t-35.5 -214q0 -115 45 -184q29 -47 88 -71.5t151 -24.5q47 0 115 7t121 19l-6 -125 q-66 -20 -139.5 -31.5t-139.5 -11.5h-22q-6 -18 -6 -32q0 -27 30.5 -40.5t66.5 -29.5t66.5 -46t30.5 -87q0 -39 -13 -76t-42 -66q-63 -63 -191 -63q-33 0 -74.5 7t-74.5 18l18 106q66 -16 131 -16q113 0 113 63q0 29 -30.5 43.5t-67.5 29.5t-68 38.5t-31 66.5q0 49 41 97 q-137 29 -212.5 128t-75.5 275z" />
<glyph unicode="&#xe8;" horiz-adv-x="1017" d="M74 385q0 145 46 277.5t132 224.5q63 68 147 106.5t179 38.5q92 0 156.5 -28.5t107.5 -75.5q49 -55 70.5 -131t21.5 -158q0 -70 -12 -139q-6 -35 -17.5 -45.5t-42.5 -10.5h-612q-2 -16 -2 -29.5v-27.5q0 -137 69 -205q35 -35 93.5 -52t150.5 -17q29 0 63.5 3t69.5 7t67 9 t56 11l-10 -133q-70 -16 -148.5 -27.5t-140.5 -11.5q-229 0 -340 113q-104 109 -104 301zM264 569h500q6 39 6 76q0 55 -12.5 101.5t-40.5 80.5q-25 29 -62 46.5t-86 17.5q-57 0 -105 -23.5t-87 -64.5q-41 -45 -68.5 -103.5t-44.5 -130.5zM422 1425l102 115l299 -319 l-67 -76z" />
<glyph unicode="&#xe9;" horiz-adv-x="1017" d="M74 385q0 145 46 277.5t132 224.5q63 68 147 106.5t179 38.5q92 0 156.5 -28.5t107.5 -75.5q49 -55 70.5 -131t21.5 -158q0 -70 -12 -139q-6 -35 -17.5 -45.5t-42.5 -10.5h-612q-2 -16 -2 -29.5v-27.5q0 -137 69 -205q35 -35 93.5 -52t150.5 -17q29 0 63.5 3t69.5 7t67 9 t56 11l-10 -133q-70 -16 -148.5 -27.5t-140.5 -11.5q-229 0 -340 113q-104 109 -104 301zM264 569h500q6 39 6 76q0 55 -12.5 101.5t-40.5 80.5q-25 29 -62 46.5t-86 17.5q-57 0 -105 -23.5t-87 -64.5q-41 -45 -68.5 -103.5t-44.5 -130.5zM406 1235l410 319l79 -129 l-432 -280z" />
<glyph unicode="&#xea;" horiz-adv-x="1017" d="M74 385q0 145 46 277.5t132 224.5q63 68 147 106.5t179 38.5q92 0 156.5 -28.5t107.5 -75.5q49 -55 70.5 -131t21.5 -158q0 -70 -12 -139q-6 -35 -17.5 -45.5t-42.5 -10.5h-612q-2 -16 -2 -29.5v-27.5q0 -137 69 -205q35 -35 93.5 -52t150.5 -17q29 0 63.5 3t69.5 7t67 9 t56 11l-10 -133q-70 -16 -148.5 -27.5t-140.5 -11.5q-229 0 -340 113q-104 109 -104 301zM264 569h500q6 39 6 76q0 55 -12.5 101.5t-40.5 80.5q-25 29 -62 46.5t-86 17.5q-57 0 -105 -23.5t-87 -64.5q-41 -45 -68.5 -103.5t-44.5 -130.5zM301 1208l293 301h142l184 -301 l-62 -61l-210 219l-287 -217z" />
<glyph unicode="&#xeb;" horiz-adv-x="1017" d="M74 385q0 145 46 277.5t132 224.5q63 68 147 106.5t179 38.5q92 0 156.5 -28.5t107.5 -75.5q49 -55 70.5 -131t21.5 -158q0 -70 -12 -139q-6 -35 -17.5 -45.5t-42.5 -10.5h-612q-2 -16 -2 -29.5v-27.5q0 -137 69 -205q35 -35 93.5 -52t150.5 -17q29 0 63.5 3t69.5 7t67 9 t56 11l-10 -133q-70 -16 -148.5 -27.5t-140.5 -11.5q-229 0 -340 113q-104 109 -104 301zM264 569h500q6 39 6 76q0 55 -12.5 101.5t-40.5 80.5q-25 29 -62 46.5t-86 17.5q-57 0 -105 -23.5t-87 -64.5q-41 -45 -68.5 -103.5t-44.5 -130.5zM334 1313q0 37 10 71.5t29 53.5 q29 29 86 28h8q47 0 66.5 -18t19.5 -49q0 -37 -10.5 -72t-28.5 -53q-29 -29 -86 -29h-8q-47 0 -66.5 18.5t-19.5 49.5zM713 1313q0 37 10 71.5t28 53.5q29 29 86 28h9q47 0 66.5 -18t19.5 -49q0 -37 -10.5 -72t-28.5 -53q-29 -29 -86 -29h-8q-47 0 -66.5 18.5t-19.5 49.5z " />
<glyph unicode="&#xec;" horiz-adv-x="471" d="M63 0l179 1004h166l-179 -1004h-166zM147 1425l102 115l299 -319l-67 -76z" />
<glyph unicode="&#xed;" horiz-adv-x="471" d="M63 0l179 1004h166l-179 -1004h-166zM152 1235l410 319l79 -129l-432 -280z" />
<glyph unicode="&#xee;" horiz-adv-x="471" d="M36 1208l293 301h142l184 -301l-62 -61l-210 219l-287 -217zM63 0l179 1004h166l-179 -1004h-166z" />
<glyph unicode="&#xef;" horiz-adv-x="471" d="M63 0l179 1004h166l-179 -1004h-166zM82 1313q0 37 10 71.5t29 53.5q29 29 86 28h8q47 0 66.5 -18t19.5 -49q0 -37 -10.5 -72t-28.5 -53q-29 -29 -86 -29h-8q-47 0 -66.5 18.5t-19.5 49.5zM461 1313q0 37 10 71.5t28 53.5q29 29 86 28h9q47 0 66.5 -18t19.5 -49 q0 -37 -10.5 -72t-28.5 -53q-29 -29 -86 -29h-8q-47 0 -66.5 18.5t-19.5 49.5z" />
<glyph unicode="&#xf0;" horiz-adv-x="1087" d="M86 379q0 141 39 249.5t104 182.5q66 72 152 108.5t184 36.5q72 0 144.5 -22.5t126.5 -56.5q-16 184 -129 376l-164 -118l-68 92l168 123q-61 84 -139 157l92 82q86 -74 160 -157l188 137l68 -92l-185 -136q181 -254 181 -565q0 -154 -32 -299t-97.5 -256.5t-165 -180.5 t-232.5 -69q-100 0 -174 31t-123 85t-73.5 129t-24.5 163zM256 387q0 -129 57.5 -202.5t167.5 -73.5q104 0 180 75.5t117 204.5q31 88 44.5 181.5t13.5 177.5q-47 31 -115 51t-133 20q-86 0 -145.5 -31.5t-98.5 -89.5q-43 -61 -65.5 -143t-22.5 -170z" />
<glyph unicode="&#xf1;" horiz-adv-x="1101" d="M59 0l179 1004h141l-2 -80q78 51 167 79.5t169 28.5q129 0 210 -67.5t81 -202.5q0 -29 -4.5 -63.5t-12.5 -77.5l-108 -621h-168l110 618q12 76 13 117q0 82 -46.5 114t-128.5 32q-66 0 -144.5 -20.5t-143.5 -51.5l-144 -809h-168zM412 1247q18 111 73.5 162t131.5 51 q39 0 74.5 -12t68.5 -27.5t62.5 -28t58.5 -12.5t53.5 17.5t40.5 64.5l90 -16q-18 -111 -73.5 -162t-131.5 -51q-39 0 -74.5 12t-68.5 27.5t-63.5 28t-57.5 12.5q-29 0 -53.5 -17.5t-40.5 -64.5z" />
<glyph unicode="&#xf2;" horiz-adv-x="1073" d="M74 375q0 152 48 285t136 223q68 70 158 109.5t200 39.5q94 0 166 -29.5t120 -84t72.5 -128t24.5 -161.5q0 -152 -48 -285t-136 -223q-68 -70 -158 -110t-200 -40q-94 0 -166 30t-120 84t-72.5 128t-24.5 162zM248 387q0 -57 13 -106.5t41 -86t70 -57t99 -20.5 q72 0 130 28.5t101 81.5q61 74 92 177t31 212q0 57 -13 106.5t-41 86.5t-70 57.5t-99 20.5q-72 0 -130 -29t-101 -82q-61 -74 -92 -177t-31 -212zM479 1425l102 115l299 -319l-67 -76z" />
<glyph unicode="&#xf3;" horiz-adv-x="1073" d="M74 375q0 152 48 285t136 223q68 70 158 109.5t200 39.5q94 0 166 -29.5t120 -84t72.5 -128t24.5 -161.5q0 -152 -48 -285t-136 -223q-68 -70 -158 -110t-200 -40q-94 0 -166 30t-120 84t-72.5 128t-24.5 162zM248 387q0 -57 13 -106.5t41 -86t70 -57t99 -20.5 q72 0 130 28.5t101 81.5q61 74 92 177t31 212q0 57 -13 106.5t-41 86.5t-70 57.5t-99 20.5q-72 0 -130 -29t-101 -82q-61 -74 -92 -177t-31 -212zM449 1235l410 319l79 -129l-432 -280z" />
<glyph unicode="&#xf4;" horiz-adv-x="1073" d="M74 375q0 152 48 285t136 223q68 70 158 109.5t200 39.5q94 0 166 -29.5t120 -84t72.5 -128t24.5 -161.5q0 -152 -48 -285t-136 -223q-68 -70 -158 -110t-200 -40q-94 0 -166 30t-120 84t-72.5 128t-24.5 162zM248 387q0 -57 13 -106.5t41 -86t70 -57t99 -20.5 q72 0 130 28.5t101 81.5q61 74 92 177t31 212q0 57 -13 106.5t-41 86.5t-70 57.5t-99 20.5q-72 0 -130 -29t-101 -82q-61 -74 -92 -177t-31 -212zM338 1208l293 301h142l184 -301l-62 -61l-210 219l-287 -217z" />
<glyph unicode="&#xf5;" horiz-adv-x="1073" d="M74 375q0 152 48 285t136 223q68 70 158 109.5t200 39.5q94 0 166 -29.5t120 -84t72.5 -128t24.5 -161.5q0 -152 -48 -285t-136 -223q-68 -70 -158 -110t-200 -40q-94 0 -166 30t-120 84t-72.5 128t-24.5 162zM248 387q0 -57 13 -106.5t41 -86t70 -57t99 -20.5 q72 0 130 28.5t101 81.5q61 74 92 177t31 212q0 57 -13 106.5t-41 86.5t-70 57.5t-99 20.5q-72 0 -130 -29t-101 -82q-61 -74 -92 -177t-31 -212zM344 1247q18 111 73.5 162t131.5 51q39 0 74.5 -12t68.5 -27.5t62.5 -28t58.5 -12.5t53.5 17.5t40.5 64.5l90 -16 q-18 -111 -73.5 -162t-131.5 -51q-39 0 -74.5 12t-68.5 27.5t-63.5 28t-57.5 12.5q-29 0 -53.5 -17.5t-40.5 -64.5z" />
<glyph unicode="&#xf6;" horiz-adv-x="1073" d="M74 375q0 152 48 285t136 223q68 70 158 109.5t200 39.5q94 0 166 -29.5t120 -84t72.5 -128t24.5 -161.5q0 -152 -48 -285t-136 -223q-68 -70 -158 -110t-200 -40q-94 0 -166 30t-120 84t-72.5 128t-24.5 162zM248 387q0 -57 13 -106.5t41 -86t70 -57t99 -20.5 q72 0 130 28.5t101 81.5q61 74 92 177t31 212q0 57 -13 106.5t-41 86.5t-70 57.5t-99 20.5q-72 0 -130 -29t-101 -82q-61 -74 -92 -177t-31 -212zM365 1313q0 37 10 71.5t29 53.5q29 29 86 28h8q47 0 66.5 -18t19.5 -49q0 -37 -10.5 -72t-28.5 -53q-29 -29 -86 -29h-8 q-47 0 -66.5 18.5t-19.5 49.5zM744 1313q0 37 10 71.5t28 53.5q29 29 86 28h9q47 0 66.5 -18t19.5 -49q0 -37 -10.5 -72t-28.5 -53q-29 -29 -86 -29h-8q-47 0 -66.5 18.5t-19.5 49.5z" />
<glyph unicode="&#xf7;" d="M225 610l23 129h667l-22 -129h-668zM418 319q0 35 10 69t27 50q29 29 84 29h8q43 0 62.5 -18.5t19.5 -47.5q0 -35 -10.5 -68.5t-26.5 -49.5q-29 -29 -84 -29h-8q-43 0 -62.5 18.5t-19.5 46.5zM526 948q0 35 10.5 69t26.5 50q29 29 84 29h8q43 0 62.5 -18.5t19.5 -47.5 q0 -35 -10 -68.5t-27 -50.5q-29 -29 -84 -28h-8q-43 0 -62.5 18.5t-19.5 46.5z" />
<glyph unicode="&#xf8;" horiz-adv-x="1073" d="M72 375q0 152 48 285t136 223q68 70 159 109.5t201 39.5q74 0 134 -18l79 147h129l-106 -198q74 -53 111.5 -138t37.5 -196q0 -152 -48 -285t-136 -223q-68 -70 -159 -110t-201 -40q-66 0 -125 17l-78 -146h-129l102 193q-78 53 -116.5 140t-38.5 200zM248 387 q0 -61 14 -113.5t47 -89.5l367 690q-35 12 -74 13q-72 0 -130 -29t-101 -82q-61 -74 -92 -177t-31 -212zM403 125q27 -8 68 -8q72 0 130 28.5t101 81.5q61 74 92 177t31 212q0 121 -55 193z" />
<glyph unicode="&#xf9;" horiz-adv-x="1097" d="M98 242q0 29 4 63.5t13 77.5l108 621h168l-110 -619q-6 -39 -9.5 -66.5t-3.5 -50.5q0 -82 46 -114.5t128 -32.5q66 0 143 20.5t142 53.5l143 809h168l-137 -766q-8 -45 -11 -91.5t-3 -109.5v-37h-156l-6 80q-78 -51 -167 -80t-169 -29q-129 0 -210 67.5t-81 203.5z M451 1425l102 115l299 -319l-67 -76z" />
<glyph unicode="&#xfa;" horiz-adv-x="1097" d="M98 242q0 29 4 63.5t13 77.5l108 621h168l-110 -619q-6 -39 -9.5 -66.5t-3.5 -50.5q0 -82 46 -114.5t128 -32.5q66 0 143 20.5t142 53.5l143 809h168l-137 -766q-8 -45 -11 -91.5t-3 -109.5v-37h-156l-6 80q-78 -51 -167 -80t-169 -29q-129 0 -210 67.5t-81 203.5z M446 1235l410 319l79 -129l-432 -280z" />
<glyph unicode="&#xfb;" horiz-adv-x="1097" d="M98 242q0 29 4 63.5t13 77.5l108 621h168l-110 -619q-6 -39 -9.5 -66.5t-3.5 -50.5q0 -82 46 -114.5t128 -32.5q66 0 143 20.5t142 53.5l143 809h168l-137 -766q-8 -45 -11 -91.5t-3 -109.5v-37h-156l-6 80q-78 -51 -167 -80t-169 -29q-129 0 -210 67.5t-81 203.5z M342 1208l293 301h142l184 -301l-62 -61l-210 219l-287 -217z" />
<glyph unicode="&#xfc;" horiz-adv-x="1097" d="M98 242q0 29 4 63.5t13 77.5l108 621h168l-110 -619q-6 -39 -9.5 -66.5t-3.5 -50.5q0 -82 46 -114.5t128 -32.5q66 0 143 20.5t142 53.5l143 809h168l-137 -766q-8 -45 -11 -91.5t-3 -109.5v-37h-156l-6 80q-78 -51 -167 -80t-169 -29q-129 0 -210 67.5t-81 203.5z M377 1313q0 37 10 71.5t29 53.5q29 29 86 28h8q47 0 66.5 -18t19.5 -49q0 -37 -10.5 -72t-28.5 -53q-29 -29 -86 -29h-8q-47 0 -66.5 18.5t-19.5 49.5zM756 1313q0 37 10 71.5t28 53.5q29 29 86 28h9q47 0 66.5 -18t19.5 -49q0 -37 -10.5 -72t-28.5 -53q-29 -29 -86 -29h-8 q-47 0 -66.5 18.5t-19.5 49.5z" />
<glyph unicode="&#xfd;" horiz-adv-x="1097" d="M98 242q0 29 4 63.5t13 77.5l108 621h168l-110 -619q-6 -39 -9.5 -66.5t-3.5 -50.5q0 -82 46 -114.5t128 -32.5q66 0 143 20.5t142 53.5l143 809h168l-190 -1082q-18 -104 -50 -174t-79 -121q-111 -117 -338 -116q-47 0 -107.5 7t-105.5 19l8 133q18 -4 43 -7t50.5 -5 l51 -4t46.5 -2q80 0 134 16.5t91 57.5q31 33 53.5 84t36.5 129l23 127q-74 -45 -158 -70t-158 -25q-129 0 -210 67.5t-81 203.5zM455 1235l410 319l79 -129l-432 -280z" />
<glyph unicode="&#xfe;" horiz-adv-x="1081" d="M-20 -461l339 1925h168l-90 -518q61 37 138 61.5t151 24.5q78 0 137.5 -30.5t99.5 -85t60.5 -127t20.5 -156.5q0 -131 -42 -268.5t-133 -237.5q-61 -72 -148 -114t-198 -42q-66 0 -131 21.5t-114 56.5l-91 -510h-167zM260 176q47 -29 103.5 -45t115.5 -16q68 0 123 26.5 t96 73.5q63 72 97 181.5t34 232.5q0 141 -54 199.5t-148 58.5q-63 0 -133 -22.5t-123 -57.5z" />
<glyph unicode="&#xff;" horiz-adv-x="1097" d="M98 242q0 29 4 63.5t13 77.5l108 621h168l-110 -619q-6 -39 -9.5 -66.5t-3.5 -50.5q0 -82 46 -114.5t128 -32.5q66 0 143 20.5t142 53.5l143 809h168l-190 -1082q-18 -104 -50 -174t-79 -121q-111 -117 -338 -116q-47 0 -107.5 7t-105.5 19l8 133q18 -4 43 -7t50.5 -5 l51 -4t46.5 -2q80 0 134 16.5t91 57.5q31 33 53.5 84t36.5 129l23 127q-74 -45 -158 -70t-158 -25q-129 0 -210 67.5t-81 203.5zM385 1313q0 37 10 71.5t29 53.5q29 29 86 28h8q47 0 66.5 -18t19.5 -49q0 -37 -10.5 -72t-28.5 -53q-29 -29 -86 -29h-8q-47 0 -66.5 18.5 t-19.5 49.5zM764 1313q0 37 10 71.5t28 53.5q29 29 86 28h9q47 0 66.5 -18t19.5 -49q0 -37 -10.5 -72t-28.5 -53q-29 -29 -86 -29h-8q-47 0 -66.5 18.5t-19.5 49.5z" />
<glyph unicode="&#x152;" horiz-adv-x="1810" d="M106 555q0 92 18.5 185.5t52.5 178.5t81 159.5t107 129.5q104 102 253.5 147.5t370.5 45.5h866l-40 -144h-588l-84 -473h479l-27 -149h-479l-88 -492h623l-27 -143h-897q-178 0 -298 47t-191 125q-59 66 -95.5 158t-36.5 225zM295 557q0 -94 26.5 -172t73.5 -127 q53 -55 141.5 -87t251.5 -32h60l199 1123h-72q-147 0 -264 -31t-209 -117q-51 -47 -90 -110.5t-64.5 -137t-39 -152.5t-13.5 -157z" />
<glyph unicode="&#x153;" horiz-adv-x="1757" d="M72 375q0 152 48 285t136 223q68 70 159 109.5t201 39.5q123 0 207 -50t129 -138l37 43q63 68 148.5 106.5t179.5 38.5q92 0 156.5 -28.5t107.5 -75.5q49 -55 71.5 -131t22.5 -158q0 -70 -12 -139q-6 -35 -17.5 -45.5t-41.5 -10.5h-615q-2 -16 -2 -29.5v-27.5 q0 -137 70 -205q35 -35 93 -52t150 -17q29 0 64 3t69.5 7t66.5 9t56 11l-10 -133q-70 -16 -148.5 -27.5t-140.5 -11.5q-59 0 -117.5 9.5t-110.5 32t-97 59.5t-76 94q-68 -92 -172 -143.5t-227 -51.5q-94 0 -166 30t-121 84t-73.5 128t-24.5 162zM248 387q0 -57 13 -106.5 t41 -86t70 -57t99 -20.5q72 0 130 28.5t101 81.5q61 74 92 177t31 212q0 57 -13 106.5t-41 86.5t-70 57.5t-99 20.5q-72 0 -130 -29t-101 -82q-61 -74 -92 -177t-31 -212zM1004 569h499q6 39 6 76q0 55 -12 101.5t-41 80.5q-25 29 -61.5 46.5t-85.5 17.5q-57 0 -105.5 -23.5 t-87.5 -64.5q-41 -45 -68.5 -103.5t-43.5 -130.5z" />
<glyph unicode="&#x178;" horiz-adv-x="1155" d="M174 1401h184l240 -678l483 678h193l-612 -832l-101 -569h-178l100 561zM465 1690q0 37 10.5 71.5t28.5 53.5q29 29 86 28h8q47 0 66.5 -18.5t19.5 -48.5q0 -37 -10 -72t-29 -53q-29 -29 -86 -29h-8q-47 0 -66.5 18.5t-19.5 49.5zM844 1690q0 37 10.5 71.5t28.5 53.5 q29 29 86 28h8q47 0 66.5 -18.5t19.5 -48.5q0 -37 -10 -72t-29 -53q-29 -29 -86 -29h-8q-47 0 -66.5 18.5t-19.5 49.5z" />
<glyph unicode="&#x2c6;" horiz-adv-x="823" d="M102 1208l293 301h142l184 -301l-62 -61l-210 219l-287 -217z" />
<glyph unicode="&#x2dc;" horiz-adv-x="823" d="M84 1247q18 111 73.5 162t131.5 51q39 0 74.5 -12t68.5 -27.5t62.5 -28t58.5 -12.5t53.5 17.5t40.5 64.5l90 -16q-18 -111 -73.5 -162t-131.5 -51q-39 0 -74.5 12t-68.5 27.5t-63.5 28t-57.5 12.5q-29 0 -53.5 -17.5t-40.5 -64.5z" />
<glyph unicode="&#x2000;" horiz-adv-x="999" />
<glyph unicode="&#x2001;" horiz-adv-x="1999" />
<glyph unicode="&#x2002;" horiz-adv-x="999" />
<glyph unicode="&#x2003;" horiz-adv-x="1999" />
<glyph unicode="&#x2004;" horiz-adv-x="666" />
<glyph unicode="&#x2005;" horiz-adv-x="499" />
<glyph unicode="&#x2006;" horiz-adv-x="333" />
<glyph unicode="&#x2007;" horiz-adv-x="333" />
<glyph unicode="&#x2008;" horiz-adv-x="249" />
<glyph unicode="&#x2009;" horiz-adv-x="399" />
<glyph unicode="&#x200a;" horiz-adv-x="111" />
<glyph unicode="&#x2010;" horiz-adv-x="645" d="M119 459l26 145h406l-27 -145h-405z" />
<glyph unicode="&#x2011;" horiz-adv-x="645" d="M119 459l26 145h406l-27 -145h-405z" />
<glyph unicode="&#x2012;" horiz-adv-x="645" d="M119 459l26 145h406l-27 -145h-405z" />
<glyph unicode="&#x2013;" horiz-adv-x="1024" d="M-12 459l26 145h1018l-26 -145h-1018z" />
<glyph unicode="&#x2014;" horiz-adv-x="2048" d="M-12 459l26 145h2042l-26 -145h-2042z" />
<glyph unicode="&#x2018;" horiz-adv-x="438" d="M225 1020q0 29 6 59q6 37 18.5 82t27 92t30 92.5t31.5 81.5h78l-45 -256q76 -18 75 -88q0 -37 -11 -67.5t-27 -46.5q-31 -31 -84 -31h-11q-88 0 -88 82z" />
<glyph unicode="&#x2019;" horiz-adv-x="438" d="M184 1282q0 37 11.5 67.5t27.5 47.5q31 31 84 30h10q89 1 89 -81q0 -29 -7 -60q-6 -37 -18 -82t-26.5 -92t-31 -92t-30.5 -82h-78l45 256q-76 18 -76 88z" />
<glyph unicode="&#x201a;" horiz-adv-x="438" d="M-4 31q0 37 11 67.5t28 46.5q31 31 84 31h10q88 0 88 -82q0 -29 -6 -59q-6 -37 -18.5 -82t-26.5 -92t-30.5 -92t-31.5 -82h-77l45 256q-76 18 -76 88z" />
<glyph unicode="&#x201c;" horiz-adv-x="772" d="M225 1020q0 29 6 59q6 37 18.5 82t27 92t30 92.5t31.5 81.5h78l-45 -256q76 -18 75 -88q0 -37 -11 -67.5t-27 -46.5q-31 -31 -84 -31h-11q-88 0 -88 82zM559 1020q0 29 6 59q6 37 18.5 82t27 92t29.5 92.5t32 81.5h78l-45 -256q76 -18 75 -88q0 -37 -11 -67.5t-28 -46.5 q-31 -31 -84 -31h-10q-88 0 -88 82z" />
<glyph unicode="&#x201d;" horiz-adv-x="772" d="M184 1282q0 37 11.5 67.5t27.5 47.5q31 31 84 30h10q89 1 89 -81q0 -29 -7 -60q-6 -37 -18 -82t-26.5 -92t-31 -92t-30.5 -82h-78l45 256q-76 18 -76 88zM518 1282q0 37 11.5 67.5t27.5 47.5q31 31 84 30h10q88 1 88 -81q0 -29 -6 -60q-6 -37 -18.5 -82t-26.5 -92 t-30.5 -92t-30.5 -82h-78l45 256q-76 18 -76 88z" />
<glyph unicode="&#x201e;" horiz-adv-x="772" d="M-4 31q0 37 11 67.5t28 46.5q31 31 84 31h10q88 0 88 -82q0 -29 -6 -59q-6 -37 -18.5 -82t-26.5 -92t-30.5 -92t-31.5 -82h-77l45 256q-76 18 -76 88zM330 31q0 37 11 67.5t28 46.5q31 31 84 31h10q88 0 88 -82q0 -29 -6 -59q-6 -37 -18.5 -82t-27 -92t-30.5 -92t-31 -82 h-78l46 256q-76 18 -76 88z" />
<glyph unicode="&#x2022;" horiz-adv-x="724" d="M133 616q0 86 24.5 160t65.5 115q33 33 79 50t118 17h35q98 0 147 -39.5t49 -138.5q0 -86 -24.5 -159.5t-65.5 -114.5q-33 -33 -79 -50.5t-117 -17.5h-35q-98 0 -149.5 40t-47.5 138z" />
<glyph unicode="&#x2026;" horiz-adv-x="1363" d="M49 47q0 39 11.5 73t27.5 50q31 31 84 31h14q84 0 84 -76q0 -39 -11 -73t-28 -50q-31 -31 -84 -31h-14q-84 0 -84 76zM504 47q0 39 11 73t28 50q31 31 84 31h14q84 0 84 -76q0 -39 -11.5 -73t-27.5 -50q-31 -31 -84 -31h-14q-84 0 -84 76zM958 47q0 39 11.5 73t27.5 50 q31 31 84 31h15q84 0 84 -76q0 -39 -11.5 -73t-27.5 -50q-31 -31 -84 -31h-15q-84 0 -84 76z" />
<glyph unicode="&#x202f;" horiz-adv-x="399" />
<glyph unicode="&#x2039;" horiz-adv-x="671" d="M127 520q0 31 16.5 58.5t65.5 74.5l317 308l76 -76l-307 -348l176 -359l-90 -65l-211 307q-23 33 -33 58.5t-10 41.5z" />
<glyph unicode="&#x203a;" horiz-adv-x="671" d="M66 188l307 349l-176 358l90 66l211 -308q23 -33 33 -58.5t10 -41.5q0 -31 -16.5 -58.5t-65.5 -74.5l-318 -307z" />
<glyph unicode="&#x205f;" horiz-adv-x="499" />
<glyph unicode="&#x20ac;" horiz-adv-x="1107" d="M74 494l16 94l162 18q2 18 5 41t13 84h-155l16 94l168 19q78 281 248 432t418 151q66 0 129 -11t114 -27l-24 -129q-125 29 -217 28q-100 0 -181 -34.5t-142.5 -95t-105.5 -140.5t-69 -170h399l-20 -117h-408q-14 -88 -18 -121h405l-20 -116h-391q-4 -90 10 -161t51 -120 t99.5 -75.5t154.5 -26.5q55 0 134 11t149 28l-21 -132q-63 -20 -144 -33.5t-151 -13.5q-127 0 -215 38t-143 106.5t-77.5 165t-18.5 213.5h-170z" />
<glyph unicode="&#x2122;" horiz-adv-x="1361" d="M152 1296l18 105h524l-18 -105h-195l-96 -557h-135l96 557h-194zM674 739l114 662h115l129 -406l271 406h120l-114 -662h-121l72 422l-213 -323h-82l-101 327l-73 -426h-117z" />
<glyph unicode="&#x25fc;" horiz-adv-x="1003" d="M0 0v1004h1004v-1004h-1004z" />
</font>
</defs>
</svg>
