<?xml version="1.0" standalone="no"?>
<!DOCTYPE svg PUBLIC "-//W3C//DTD SVG 1.1//EN" "http://www.w3.org/Graphics/SVG/1.1/DTD/svg11.dtd" >
<svg xmlns="http://www.w3.org/2000/svg">
<metadata>Generated by IcoMoon</metadata>
<defs>
<font id="icomoon" horiz-adv-x="1024">
<font-face units-per-em="1024" ascent="960" descent="-64" />
<missing-glyph horiz-adv-x="1024" />
<glyph unicode="&#x20;" horiz-adv-x="512" d="" />
<glyph unicode="&#xe600;" glyph-name="bg_ico_service" d="M512 972.8c282.777 0 512-229.223 512-512s-229.223-512-512-512-512 229.223-512 512 229.223 512 512 512z" />
<glyph unicode="&#xe601;" glyph-name="ok-tic" horiz-adv-x="1022" d="M511.14 908.755c246.651 0 447.31-200.946 447.31-448.027 0-247.009-200.659-449.030-447.31-449.030s-447.31 202.020-447.31 449.030c0 247.081 200.659 448.027 447.31 448.027zM511.14 972.8c-282.327 0-511.212-229.243-511.212-512s228.885-511.928 511.212-511.928 511.212 229.171 511.212 511.928c0 282.757-228.885 512-511.212 512v0zM438.284 277.477c-12.465-12.465-32.739-12.465-45.132 0l-158.178 158.393c-12.465 12.465-12.465 32.739 0 45.204s32.667 12.465 45.132 0l158.178-158.393c12.465-12.465 12.465-32.739 0-45.204zM393.223 278.48c12.465-12.465 32.739-12.465 45.204 0l321.872 324.379c12.465 12.537 12.465 32.739 0 45.275-12.465 12.465-32.739 12.465-45.204 0l-321.872-324.379c-12.465-12.465-12.465-32.81 0-45.275z" />
<glyph unicode="&#xe602;" glyph-name="feature-android" horiz-adv-x="872" d="M809.693 648.381c-34.234 0-61.991-28.186-61.991-62.957v-246.028c0-34.771 27.757-62.957 61.991-62.957 34.24 0 61.991 28.186 61.991 62.957v246.028c0 34.771-27.751 62.957-61.991 62.957zM61.991 648.381c-34.234 0-61.991-28.186-61.991-62.957v-246.028c0-34.771 27.757-62.957 61.991-62.957s61.991 28.186 61.991 62.957v246.028c-0.006 34.771-27.757 62.957-61.991 62.957zM161.284 646.477v-449.492c0-26.701 21.646-48.342 48.342-48.342h55.226v-136.881c0-34.771 27.757-62.957 61.991-62.957 34.24 0 61.991 28.186 61.991 62.957v136.881h96.48v-136.881c0-34.771 27.757-62.957 61.991-62.957 34.24 0 61.997 28.186 61.997 62.957v136.881h55.22c26.706 0 48.347 21.641 48.347 48.342v449.492h-551.585zM566.585 879.392l50.951 73.964c3.021 4.394 2.27 10.165-1.683 12.887s-9.612 1.372-12.633-3.027l-52.927-76.821c-34.878 13.74-73.631 21.398-114.455 21.398s-79.572-7.658-114.444-21.398l-52.927 76.827c-3.027 4.399-8.686 5.749-12.639 3.027s-4.704-8.494-1.677-12.887l50.951-73.964c-81.006-37.685-137.819-109.294-145.047-192.864h551.58c-7.234 83.57-64.041 155.179-145.047 192.858zM319.489 762.83c-16.852 0-30.518 13.661-30.518 30.518 0 16.852 13.661 30.518 30.518 30.518s30.518-13.661 30.518-30.518c0-16.857-13.661-30.518-30.518-30.518zM556.007 762.83c-16.852 0-30.513 13.661-30.513 30.518 0 16.852 13.661 30.518 30.513 30.518 16.857 0 30.518-13.661 30.518-30.518s-13.661-30.518-30.518-30.518z" />
<glyph unicode="&#xe603;" glyph-name="feature-windows" horiz-adv-x="1165" d="M1140.522 831.414c-220.836-91.303-327.017-39.976-422.718 24.429l-108.946-377.889c95.607-64.773 211.031-118.028 422.905-23.177l108.758 376.638zM422.597 71.747c-95.915 64.552-200.182 117.646-421.54 26.115l108.39 378.599c221.405 91.544 327.767 39.742 423.588-25.205l-110.438-379.502zM551.441 519.596c-57.746 38.885-119.848 75.18-208.046 75.85-58.194 0.448-127.465-16.083-215.401-52.445l108.979 377.622c221.258 91.484 327.533 39.708 423.287-25.192l-108.818-375.835zM590.487 414.827c95.794-64.499 202.203-115.873 423.273-24.496l-108.966-376.364c-221.11-91.451-327.299-39.662-422.992 25.232l108.685 375.627z" />
<glyph unicode="&#xe604;" glyph-name="feature-apple" horiz-adv-x="834" d="M696.358 428.78c1.439-154.964 135.944-206.532 137.434-207.19-1.137-3.637-21.492-73.489-70.864-145.642-42.68-62.38-86.976-124.531-156.756-125.818-68.565-1.263-90.613 40.659-169.003 40.659-78.366 0-102.862-39.372-167.767-41.923-67.355-2.549-118.645 67.456-161.68 129.607-87.936 127.133-155.138 359.247-64.903 515.928 44.827 77.808 124.935 127.080 211.886 128.343 66.141 1.262 128.57-44.497 169.003-44.497 40.407 0 116.272 55.029 196.026 46.948 33.388-1.39 127.107-13.487 187.287-101.575-4.849-3.006-111.827-65.283-110.664-194.839zM567.497 809.303c35.759 43.285 59.827 103.542 53.261 163.497-51.544-2.072-113.873-34.348-150.844-77.609-33.134-38.31-62.151-99.627-54.322-158.396 57.452-4.445 116.144 29.195 151.905 72.508z" />
<glyph unicode="&#xe605;" glyph-name="feature-processor" horiz-adv-x="1018" d="M247.924 711.75v-517.686h518.139v517.686h-518.139zM247.924 957.015v-172.505h74.004v172.505h-74.004zM395.931 957.015v-172.505h74.173v172.505h-74.173zM544.108 957.015v-172.505h74.004v172.505h-74.004zM692.115 957.015v-172.505h74.004v172.505h-74.004zM247.924 121.249v-172.392h74.004v172.392h-74.004zM395.931 121.249v-172.392h74.173v172.392h-74.173zM544.108 121.249v-172.392h74.004v172.392h-74.004zM692.115 121.249v-172.392h74.004v172.392h-74.004zM2.207 194.064v73.947h172.845v-73.947h-172.845zM2.207 342.128v73.89h172.845v-73.89h-172.845zM2.207 489.853v73.947h172.845v-73.947h-172.845zM2.207 637.634v74.117h172.845v-74.173h-172.845zM839.161 194.064v73.947h172.675v-73.947h-172.675zM839.161 342.128v73.89h172.675v-73.89h-172.675zM839.161 489.853v73.947h172.675v-73.947h-172.675zM839.161 637.634v74.117h172.675v-74.173h-172.675z" />
<glyph unicode="&#xe606;" glyph-name="feature-screen" horiz-adv-x="1428" d="M1386.789 238.104c22.869 0 41.448 18.53 41.448 41.448v517.266c0 90.063-73.094 163.352-162.865 163.352-25.941 0-60.855-8.631-109.178-20.578-96.646-23.942-242.786-60.172-440.905-60.172-198.607 0-345.966 36.279-443.441 60.27-50.176 12.288-83.285 20.431-108.885 20.431-88.308 0-162.962-74.801-162.962-163.304v-672.524c0-88.308 74.654-162.865 162.962-162.865 24.43 0 53.541 7.558 97.524 19.066 88.308 23.064 236.008 61.684 463.726 61.684 226.548 0 363.715-38.327 445.684-61.245 40.619-11.313 69.973-19.505 95.476-19.505 88.308 0 162.865 74.557 162.865 162.865 0 22.869-18.578 41.496-41.448 41.496s-41.448-18.578-41.448-41.496c0-19.749-8.29-38.278-21.211-52.565l21.211 52.565v155.258c0-22.918 18.578-41.448 41.448-41.448zM1007.909 618.106l-127.269-398.97c-5.461-17.213-21.406-28.818-39.4-28.867 0 0-0.049 0-0.049 0-17.993 0-33.938 11.605-39.448 28.721l-88.113 273.554-87.040-273.408c-5.461-17.213-21.406-28.867-39.497-28.867v0c-18.042 0-33.987 11.654-39.497 28.818l-127.512 399.019c-6.973 21.797 5.022 45.105 26.868 52.078s45.105-5.071 52.078-26.868l87.966-275.163 86.894 272.969c5.461 17.164 21.406 28.818 39.448 28.867h0.049c17.993 0 33.938-11.605 39.448-28.721l88.162-273.701 87.966 275.749c6.973 21.845 30.232 33.89 52.078 26.917 21.748-7.022 33.841-30.33 26.868-52.126z" />
<glyph unicode="&#xe607;" glyph-name="feature-sim" horiz-adv-x="778" d="M708.68-51.2c-213.026 0-426.052 0-639.078 0-2.499 0.696-4.875 1.598-7.415 2.048-32.691 5.735-52.028 23.965-58.418 56.821-2.376 12.003-3.646 24.416-3.646 36.665-0.287 114.542-0.164 229.126-0.164 343.709 0 145.226-0.041 290.412 0.205 435.679 0 4.383 1.803 10.078 4.793 12.945 28.39 27.448 57.312 54.404 85.948 81.646 18.886 17.984 37.566 36.296 56.37 54.486 185.128 0 370.297 0 555.466 0 2.171-0.696 4.261-1.598 6.473-1.966 30.192-5.858 51.618-22.777 60.835-52.314 4.67-15.076 7.948-31.257 7.988-46.948 0.492-250.592 0.451-501.103 0.287-751.695 0-35.272 0.082-70.626-2.294-105.817-2.458-35.354-24.99-57.476-59.852-63.252-2.54-0.41-4.998-1.311-7.497-2.007zM324.455 612.417c0-4.793 0-8.439 0-12.044 0-79.311 0.533-158.623-0.41-237.975-0.205-19.705 4.588-36.624 17.739-50.061 13.56-13.888 28.103-27.366 44.162-38.14 19.787-13.232 42.441-17.042 65.506-7.415 32.077 13.437 54.977 36.542 68.865 68.455 2.171 4.998 3.113 10.938 3.113 16.387 0.164 83.654 0.123 167.307 0.082 250.961 0 3.195-0.287 6.391-0.451 9.791-66.407 0.041-131.953 0.041-198.606 0.041zM444.364 77.189c2.007-0.164 3.564-0.369 5.162-0.369 62.31 0 124.62-0.041 186.93 0.041 12.372 0 20.442 9.299 20.442 23.023 0 81.892 0 163.825 0 245.717 0 3.523 0 7.005 0 10.365-29.086 0-56.739 0-83.531 0-15.199-72.306-58.91-114.542-129.004-130.438 0-49.406 0-98.566 0-148.34zM273.902 419.342c0 64.113 0 127.529 0 191.478-43.547 0-86.276 0-129.045 0-14.707 0-23.392-8.521-23.433-23.31-0.041-52.97 0-105.94 0-158.909 0-2.909 0.246-5.817 0.41-9.258 50.88 0 101.146 0 152.068 0zM255.304 356.294c0-93.199 0-185.906 0-278.777 42.441 0 84.309 0 126.546 0 0 51.29 0 101.884 0 152.355-63.293 28.881-87.054 56.78-107.537 126.382-6.104 0.041-12.249 0.041-19.008 0.041zM192.871 356.13c-24.252 0-47.603 0-71.446 0 0-21.344 0-41.909 0-62.556 0-64.277 0-128.594 0.041-192.912 0-11.266 6.268-22.491 15.158-23.023 18.681-1.106 37.402-0.328 56.247-0.328 0 93.445 0 185.701 0 278.818zM573.778 419.465c27.939 0 55.223 0 83.121 0 0 6.596 0 12.536 0 18.476 0 50.266 0.041 100.573-0.041 150.839 0 11.184-7.251 21.589-16.264 21.794-22.122 0.533-44.203 0.164-66.775 0.164-0.041-64.072-0.041-127.242-0.041-191.273z" />
<glyph unicode="&#xe608;" glyph-name="feature-storage" horiz-adv-x="1283" d="M1282.824 96.997v727.606c0 81.789-65.046 148.197-145.313 148.197h-992.198c-80.267 0-145.313-66.408-145.313-148.197v-727.606c0-81.869 65.046-148.277 145.313-148.277h992.198c80.267 0.080 145.313 66.488 145.313 148.277zM323.229 460.76c0 45.020 9.052 87.877 25.314 126.889l167.342-63.925c9.773-3.765 20.828-0.881 27.637 7.049 6.889 8.091 8.171 19.626 3.204 28.918l-87.877 166.782c51.669 37.089 114.632 58.878 182.562 58.878 175.433 0 318.183-145.553 318.183-324.591s-142.75-324.591-318.183-324.591-318.183 145.633-318.183 324.591zM725.764 460.76c0 47.423-37.81 86.034-84.352 86.034s-84.352-38.531-84.352-86.034c0-47.423 37.81-85.954 84.352-85.954s84.352 38.611 84.352 85.954z" />
<glyph unicode="&#xe609;" glyph-name="feature-camera" horiz-adv-x="1300" d="M649.786 547.253c-93.174 0-168.958-77.607-168.958-172.907s75.784-172.831 168.958-172.831 168.958 77.531 168.958 172.831c0 95.3-75.784 172.907-168.958 172.907zM1130.69 799.893h-194.928c-0.076 95.452-75.708 172.907-169.034 172.907h-233.884c-93.326 0-168.958-77.455-168.958-172.907h-194.928c-93.326 0-168.958-77.379-168.958-172.831v-505.356c0-95.452 75.632-172.907 168.958-172.907h961.732c93.326 0 168.958 77.455 168.958 172.907v505.356c-0.076 95.452-75.708 172.831-168.958 172.831zM649.786 68.475c-164.858 0-298.961 137.293-298.961 305.871 0 168.654 134.103 305.795 298.961 305.795 164.782 0 298.961-137.217 298.961-305.795s-134.103-305.871-298.961-305.871z" />
<glyph unicode="&#xe60a;" glyph-name="big_white_arrow_right" horiz-adv-x="203" d="M-902.007-51.2h924.188l181.141 502.814-184.838 521.186h-920.491z" />
<glyph unicode="&#xe60b;" glyph-name="bg-service" d="M512 972.8c282.777 0 512-229.223 512-512s-229.223-512-512-512-512 229.223-512 512 229.223 512 512 512z" />
<glyph unicode="&#xe60c;" glyph-name="wifi" d="M613.276-51.325h-202.602c-9.84 0-19.006 4.87-24.501 13.012-5.495 8.167-6.594 18.507-2.897 27.598l41.859 103.674c6.094 15.11 23.352 22.428 38.487 16.334 15.135-6.119 22.453-23.352 16.334-38.487l-25.45-63.038h115.437l-86.74 221.409c-1.349 3.472-2.048 7.093-2.048 10.814v242.813c-20.805 5.545-39.786 16.884-54.422 32.943-42.059 46.28-38.862 118.11 7.118 160.144 46.055 42.134 117.935 38.912 160.169-7.268 23.777-25.775 34.192-61.989 27.798-96.83-2.922-16.084-18.382-26.749-34.391-23.752-16.084 2.922-26.699 18.332-23.777 34.391 3.047 16.659-1.873 33.917-13.187 46.18-20.305 22.178-54.672 23.777-76.725 3.671-21.979-20.105-23.477-54.522-3.297-76.725 10.24-11.214 24.451-17.433 40.011-17.433 14.261 0 26.499-10.14 29.072-24.176 0.325-1.773 0.724-4.87 0.724-6.668v-261.719l100.527-256.549c3.572-9.091 2.398-19.381-3.122-27.473-5.445-8.042-14.611-12.862-24.376-12.862zM855.689 243.337c-7.568 0-15.135 2.897-20.905 8.667-11.539 11.564-11.539 30.27 0 41.809 83.993 83.943 130.248 195.584 130.248 314.293 0 118.734-46.255 230.375-130.248 314.293-11.539 11.539-11.539 30.27 0 41.809 11.539 11.589 30.245 11.539 41.834 0.050 95.157-95.182 147.556-221.634 147.556-356.152s-52.424-260.995-147.556-356.127c-5.794-5.744-13.362-8.642-20.93-8.642zM168.261 243.337c-7.568 0-15.135 2.897-20.905 8.667-95.132 95.132-147.531 221.584-147.531 356.102s52.374 261.020 147.531 356.152c11.564 11.464 30.27 11.489 41.809-0.050s11.539-30.245 0-41.809c-83.993-83.918-130.223-195.559-130.223-314.293 0.025-118.709 46.28-230.35 130.223-314.318 11.539-11.514 11.539-30.245 0-41.784-5.769-5.769-13.312-8.667-20.905-8.667zM302.38 377.307c-7.568 0-15.135 2.897-20.905 8.667-59.317 59.292-91.985 138.19-91.985 222.133s32.668 162.866 91.985 222.133c11.539 11.539 30.27 11.539 41.809 0 11.539-11.514 11.539-30.27 0-41.784-99.428-99.453-99.428-261.22 0-360.698 11.539-11.514 11.539-30.27 0-41.784-5.769-5.769-13.312-8.667-20.905-8.667zM721.595 377.307c-7.593 0-15.16 2.897-20.93 8.667-11.539 11.539-11.514 30.27 0.025 41.809 48.178 48.128 74.727 112.165 74.727 180.299s-26.549 132.171-74.727 180.324c-11.539 11.539-11.564 30.27-0.025 41.809 11.514 11.539 30.245 11.589 41.809 0.025 59.367-59.317 92.060-138.215 92.060-222.183 0-83.943-32.693-162.841-92.060-222.158-5.769-5.744-13.337-8.592-20.88-8.592z" />
<glyph unicode="&#xe60d;" glyph-name="error-input" horiz-adv-x="1023" d="M983.381 934.080c-51.529 51.675-135.153 51.675-186.731 0l-285.6-286.136-285.6 286.136c-51.577 51.675-135.202 51.675-186.78 0s-51.577-135.446 0-187.12l285.6-286.136-285.6-286.136c-51.577-51.675-51.577-135.397 0-187.072 25.813-25.813 59.614-38.768 93.414-38.768s67.552 12.955 93.365 38.768l285.551 286.136 285.551-286.087c25.813-25.862 59.614-38.768 93.414-38.768 33.752 0 67.552 12.955 93.365 38.768 51.577 51.626 51.577 135.397 0 187.023l-285.6 286.087 285.6 286.136c51.626 51.724 51.626 135.494 0.049 187.169z" />
<glyph unicode="&#xe60e;" glyph-name="arrow_right" horiz-adv-x="640" d="M612.992 486.72l-576.64-480.32v960.512l576.64-480.192z" />
<glyph unicode="&#xe60f;" glyph-name="btn-arrow_right" horiz-adv-x="610" d="M227.004 932.687l353.016-395.358c38.999-43.76 38.999-114.464 0-158.224l-56.523-63.209c-38.999-43.76-102.208-43.76-141.206 0l-353.016 395.257c-38.999 43.659-38.999 114.566 0 158.123l56.523 63.31c38.898 43.659 102.208 43.659 141.206 0.101zM29.275 205.18l353.016 395.358c38.999 43.659 102.208 43.659 141.206 0l56.523-63.209c38.999-43.76 38.999-114.464 0-158.224l-353.016-395.358c-38.999-43.76-102.208-43.76-141.206 0l-56.523 63.31c-38.999 43.659-38.999 114.363 0 158.123z" />
<glyph unicode="&#xe610;" glyph-name="btn-double-arrow-right" horiz-adv-x="1462" d="M1048.703 939.765l380.775-398.316c42.024-43.924 42.024-115.11 0-159.253l-60.88-63.584c-42.17-44.071-110.213-44.071-152.237 0l-380.848 398.023c-42.097 43.924-42.097 115.329 0 159.326l60.953 63.73c42.024 44.144 110.213 44.144 152.237 0.073zM835.513 207.011l380.848 398.316c42.024 44.071 110.14 44.071 152.237 0l60.88-63.877c42.024-43.924 42.024-115.11 0-159.253l-380.775-398.169c-42.024-43.924-110.213-43.924-152.237 0l-60.953 63.804c-42.097 43.997-42.097 115.256 0 159.18zM244.763 939.765l380.775-398.316c42.024-43.924 42.024-115.11 0-159.253l-60.88-63.511c-42.17-44.071-110.213-44.071-152.237 0l-380.848 398.096c-42.097 43.924-42.097 115.329 0 159.326l60.953 63.73c42.024 43.997 110.213 43.997 152.237-0.073zM31.573 207.011l380.848 398.316c42.024 44.071 110.14 44.071 152.237 0l60.88-63.877c42.024-43.924 42.024-115.11 0-159.253l-380.775-398.169c-42.024-43.924-110.213-43.924-152.237 0l-60.953 63.804c-42.097 43.997-42.097 115.256 0 159.18z" />
<glyph unicode="&#xe611;" glyph-name="estado-disponible" d="M511.358-51.2c-126.67 0-247.211 46.177-342.072 131.577-101.648 91.544-161.536 217.16-168.674 353.704-7.184 136.59 39.268 267.77 130.843 369.418 91.529 101.648 217.206 161.597 353.857 168.736 281.771 14.796 523.525-202.684 538.214-484.578 6.221-118.187-29.058-235.625-99.309-330.7-11.892-16.126-34.637-19.626-50.793-7.643-16.157 11.907-19.581 34.667-7.643 50.778 60.27 81.578 90.49 182.34 85.186 283.758-12.641 241.922-219.284 428.435-461.864 415.87-117.239-6.145-225.093-57.58-303.69-144.814-78.552-87.234-118.416-199.826-112.271-317.035 6.145-117.193 57.519-224.971 144.799-303.538 87.234-78.567 200.636-118.233 317.035-112.287 86.515 4.524 168.781 33.964 237.902 85.186 16.203 11.953 38.901 8.529 50.793-7.582 11.984-16.111 8.56-38.856-7.551-50.809-80.585-59.735-176.501-94.066-277.354-99.34-9.141-0.443-18.312-0.703-27.407-0.703zM378.834 262.823c-22.745 0-45.459 8.59-62.731 25.786l-55.975 55.868c-14.185 14.17-14.231 37.174-0.031 51.359 14.185 14.231 37.189 14.2 51.374 0.046l55.929-55.822c6.343-6.328 16.692-6.221 23.035 0.061l314.879 314.986c14.185 14.185 37.189 14.185 51.374 0 14.185-14.17 14.185-37.174 0.031-51.359l-314.986-315.078c-17.41-17.242-40.155-25.848-62.899-25.848z" />
<glyph unicode="&#xe612;" glyph-name="estado-no-disponible" d="M511.406-51.066c-126.664 0-247.185 46.169-342.046 131.562-101.613 91.522-161.495 217.118-168.634 353.651-7.183 136.578 39.268 267.754 130.835 369.382 91.507 101.628 217.177 161.555 353.799 168.708 281.734 14.796 523.457-202.663 538.149-484.53 6.218-118.161-29.043-235.594-99.283-330.663-11.887-16.117-34.638-19.619-50.784-7.628-16.161 11.902-19.575 34.653-7.643 50.77 60.268 81.564 90.483 182.317 85.185 283.722-12.644 241.887-219.27 428.388-461.824 415.833-117.226-6.159-225.057-57.581-303.653-144.8-78.536-87.218-118.398-199.799-112.254-316.995 6.144-117.166 57.507-224.939 144.77-303.505 87.218-78.551 200.615-118.22 316.995-112.269 86.521 4.526 168.767 33.955 237.88 85.17 16.191 11.947 38.897 8.533 50.799-7.584 11.976-16.102 8.548-38.838-7.554-50.799-80.584-59.718-176.484-94.060-277.311-99.313-9.157-0.46-18.328-0.712-27.425-0.712zM323.985 273.957c-14.188 14.188-14.143 37.176 0.030 51.334l322.679 322.605c14.188 14.158 37.176 14.202 51.363 0 14.202-14.188 14.158-37.176-0.030-51.334l-322.679-322.605c-14.188-14.158-37.176-14.188-51.363 0zM692.862 273.957c14.188 14.188 14.143 37.176-0.045 51.334l-322.679 322.619c-14.188 14.158-37.176 14.202-51.363 0-14.188-14.188-14.158-37.176 0.030-51.334l322.679-322.619c14.202-14.158 37.176-14.188 51.378 0z" />
<glyph unicode="&#xe613;" glyph-name="internet" horiz-adv-x="1432" d="M1399.374 322.168h-186.807l-2.783 9.619c-5.403 18.951-14.203 34.832-25.95 47.193-18.050 18.828-42.854 28.815-71.669 28.815l-374.596 0.041c-91.275 0-164.909-74.248-164.909-165.523l0.041-131.305c3.52-92.216 75.435-162.167 163.968-162.167l2.66 0.082 372.181 0.287c28.897 0 53.701 9.946 71.71 28.815 33.195 34.586 31.844 87.387 31.721 89.556-0.573 16.945-14.039 31.148-29.388 31.148-11.788-0.409-19.606-4.011-25.459-10.274-5.771-6.181-8.8-14.367-8.514-22.839 0-0.327 0-28.529-13.916-43.059-3.807-4.011-10.724-9.332-26.196-9.332l-377.952-0.368c-54.683 1.719-97.456 46.333-97.456 101.631l-0.041 127.826c0 55.993 45.146 101.549 100.607 101.549l375.456-0.041c11.829 0 20.383-3.070 26.196-9.414 11.501-11.788 13.916-34.914 13.875-42.813-0.246-9.087 2.865-17.355 8.923-23.658 5.935-6.181 14.162-9.741 22.757-9.741h183.737v-159.834h-38.966c-17.477 0-31.721-14.326-31.721-31.967 0-17.682 14.244-32.049 31.721-32.049h70.769c17.477 0 31.721 14.367 31.721 32.049v223.849c0 17.6-14.244 31.926-31.721 31.926zM805.267 941.57c0 17.641-14.203 31.967-31.639 31.967-426.578 0-773.628-350.447-773.628-781.159 0-17.682 14.244-31.967 31.721-31.967s31.68 14.326 31.68 31.967c0 395.43 318.603 717.144 710.227 717.144 17.436 0 31.639 14.367 31.639 32.049zM805.267 641.959c0 17.641-14.203 31.967-31.639 31.967-262.979 0-476.963-216.031-476.963-481.507 0-17.682 14.244-31.967 31.721-31.967s31.721 14.326 31.721 31.967c0 230.234 185.497 417.532 413.562 417.532 17.395-0.041 31.598 14.326 31.598 32.008z" />
<glyph unicode="&#xe614;" glyph-name="internet-tablet" horiz-adv-x="806" d="M598.463 120.268h-43.13c-13.302 0-24.092-10.821-24.092-24.185s10.79-24.185 24.092-24.185h43.13c39.906 0 72.37 32.495 72.37 72.432l-0.31 622.183c0 39.813-32.34 72.215-72.060 72.215h-390.686c-39.751 0-72.122-32.402-72.122-72.215l-0.31-622.214c0-39.906 32.495-72.37 72.432-72.37h43.161c13.302 0 24.092 10.821 24.092 24.185s-10.79 24.185-24.092 24.185h-43.161c-13.395 0-24.247 10.79-24.247 24.030l0.31 622.214c0 13.147 10.759 23.875 23.937 23.875h390.686c13.395 0 23.875-10.48 23.875-23.875l0.31-622.214c0-13.24-10.852-24.061-24.185-24.061zM429.754 155.646c-2.574 1.953-4.031 2.915-5.519 3.69-6.759 3.504-13.86 5.271-21.271 5.271-25.333 0-45.983-20.744-45.983-46.231 0-25.426 20.651-46.138 45.983-46.138s45.952 20.713 45.952 46.138c0 13.24-5.519 25.767-15.193 34.356-1.24 1.147-2.574 2.077-3.969 2.915zM781.341 803.565c-6.449 0-12.527-2.543-17.054-7.101-4.558-4.558-7.039-10.635-7.039-17.054l0.31-704.537c0-42.851-34.852-77.734-77.703-77.734h-553.503c-42.851 0-77.734 34.883-77.734 77.734v825.618c0 13.209 10.883 23.937 24.216 23.937h660.569c13.395 0 23.875-10.511 23.875-23.937 0-13.333 10.79-24.185 24.092-24.185s24.092 10.852 24.092 24.185c-0.031 39.875-32.371 72.308-72.091 72.308h-660.538c-39.906 0-72.401-32.433-72.401-72.308v-825.618c0-69.548 56.525-126.074 125.95-126.074h553.503c69.424 0 125.888 56.556 125.888 126.074l-0.31 704.506c-0.031 13.333-10.821 24.185-24.123 24.185z" />
<glyph unicode="&#xe615;" glyph-name="movil" horiz-adv-x="644" d="M528.695 878.831h-340.641c-36.405 0-66.021-29.733-66.021-66.197l-0.088-36.376c0-36.347 29.587-65.933 65.933-65.933h269.908c11.764 0 21.334-9.657 21.334-21.51v-292.383c0-11.852-9.365-21.158-21.334-21.158h-269.732c-12.028 0-21.422 9.306-21.422 21.158v241.931c0 12.35-9.979 22.387-22.3 22.387s-22.3-10.038-22.3-22.387v-241.931c0-36.347 29.645-65.904 66.021-65.904h269.762c36.347 0 65.933 29.557 65.933 65.904v292.383c0 36.522-29.587 66.284-65.933 66.284h-269.937c-11.969 0-21.334 9.306-21.334 21.158l0.059 36.347c0 11.618 9.804 21.48 21.422 21.48h340.641c38.688 0 70.147-31.489 70.147-70.206v-699.806c0-38.717-31.489-70.206-70.147-70.206h-413.919c-38.688 0-70.147 31.489-70.147 70.206v886.339c0 12.35-9.979 22.387-22.3 22.387s-22.3-10.038-22.3-22.387v-886.368c0-63.417 51.477-114.981 114.747-114.981h413.949c63.27 0 114.747 51.594 114.747 114.981v699.777c0 63.417-51.477 115.010-114.747 115.010z" />
<glyph unicode="&#xe616;" glyph-name="internet-circle" d="M504.936-51.376c-278.677 0-505.345 229.681-505.345 511.985 0 282.421 226.668 512.19 505.345 512.19 20.125 0 36.447-16.556 36.447-36.944s-16.293-36.944-36.447-36.944c-238.486 0-432.51-196.627-432.51-438.301 0-241.586 194.024-438.126 432.51-438.126 214.061 0 398.169 161.672 428.239 376.025 2.867 20.183 21.646 34.195 41.215 31.357 19.92-2.867 33.785-21.558 30.977-41.742-35.131-250.567-250.303-439.501-500.431-439.501zM964.415 496.53c-32.995 0-59.79 27.174-59.79 60.579s26.794 60.579 59.79 60.579c32.995 0 59.79-27.174 59.79-60.579s-26.794-60.579-59.79-60.579zM964.415 570.419c-7.313 0-13.046-5.85-13.046-13.309s5.733-13.309 13.046-13.309c7.225 0 13.075 5.967 13.075 13.309s-5.88 13.309-13.075 13.309zM902.87 651.826c-32.995 0-59.79 27.174-59.79 60.579s26.794 60.579 59.79 60.579c32.937 0 59.731-27.174 59.731-60.579s-26.794-60.579-59.731-60.579zM902.87 725.714c-7.254 0-13.163-5.967-13.163-13.309s5.909-13.309 13.163-13.309c7.196 0 13.046 5.967 13.046 13.309s-5.85 13.309-13.046 13.309zM794.816 773.16c-32.995 0-59.79 27.174-59.79 60.579s26.823 60.609 59.79 60.609c32.995 0 59.79-27.204 59.79-60.609s-26.794-60.579-59.79-60.579zM794.816 847.019c-7.313 0-13.075-5.85-13.075-13.309 0-7.43 5.733-13.251 13.075-13.251 7.196 0 13.075 5.938 13.075 13.251 0 7.371-5.88 13.309-13.075 13.309zM504.936-51.434c-91.82 0-217.834 233.63-229.798 475.099h-239.129c-20.125 0-36.418 16.556-36.418 36.944s16.293 36.944 36.418 36.944h239.042c11.262 249.601 133.854 475.246 229.886 475.246 103.579 0 237.199-248.373 237.199-512.19 0-272.71-147.836-512.044-237.199-512.044zM347.973 423.695c11.145-227.546 122.212-386.79 156.992-400.772 35.131 13.748 151.434 176.736 163.281 400.772h-320.272zM347.973 497.554h320.419c-11.437 240.416-131.338 397.437-163.778 401.386-36.798-4.797-145.818-171.149-156.641-401.386z" />
<glyph unicode="&#xe617;" glyph-name="f-internet" horiz-adv-x="1017" d="M803.012-51.2h-693.775c-40.046 0-74.020 15.815-93.168 43.407-18.498 26.603-21.322 61.651-7.738 96.133 10.167 24.739 34.341 82.747 43.379 96.5 36.092 55.579 78.765 67.299 108.221 67.299h736.109c33.607 0 54.703 28.467 54.901 54.873 0.113 12.85-4.264 24.457-13.076 34.596-11.833 13.612-10.252 34.115 3.558 45.807 13.782 11.692 34.652 10.139 46.485-3.502 19.232-22.141 29.23-48.914 28.919-77.466-0.508-65.746-54.703-119.348-120.788-119.348h-38.888l43.915-97.319c14.798-35.612 12.624-70.857-5.592-97.658-18.752-27.507-52.444-43.322-92.462-43.322zM159.93 187.128c-18.893 0-36.657-12.567-52.755-37.42-4.632-7.456-23.101-50.128-37.589-85.317-5.479-13.923-5.225-26.688 0.875-35.443 6.665-9.63 20.814-15.137 38.775-15.137h693.775c17.679 0 31.433 5.281 37.702 14.516 5.874 8.642 5.789 21.407-0.254 35.923l-55.438 122.878h-625.092zM767.485 313.254h-497.103c-18.216 0-32.958 14.572-32.958 32.506s14.742 32.506 32.958 32.506h497.103c34.991 0 63.458 28.157 63.458 62.78v397.242c0 34.596-28.467 62.696-63.458 62.696h-622.748c-34.934 0-63.345-28.128-63.345-62.696v-397.242c0-34.624 28.411-62.78 63.345-62.78 18.187 0 32.958-14.572 32.958-32.506s-14.742-32.506-32.958-32.506c-71.253 0-129.232 57.33-129.232 127.792v397.242c0 70.434 57.979 127.707 129.232 127.707h622.748c71.337 0 129.345-57.273 129.345-127.707v-397.242c0-70.462-58.008-127.792-129.345-127.792z" />
<glyph unicode="&#xe618;" glyph-name="f-telefonia" horiz-adv-x="1023" d="M728.972-51.2c-22.924 0-41.842 18.275-42.456 41.403-0.643 23.509 17.836 43.070 41.316 43.713 31.169 0.877 60.555 13.596 82.777 35.819l109.034 109.181-151.929 152.309-97.894-98.099c-15.906-15.936-44.152-15.936-60.117 0l-324.969 325.437c-7.953 7.982-12.456 18.801-12.456 30.088s4.474 22.105 12.456 30.088l97.894 97.982-153.099 153.332-109.356-109.356c-47.485-47.719-47.514-125.496 0.088-173.215l514.588-515.202c16.608-16.608 16.608-43.567 0-60.204-16.579-16.608-43.509-16.608-60.087 0l-514.617 515.231c-80.672 80.877-80.672 212.572-0.058 293.595l139.414 139.414c16.608 16.637 43.538 16.608 60.117 0l213.186-213.508c7.953-7.982 12.456-18.801 12.456-30.088s-4.474-22.134-12.456-30.088l-97.894-97.982 264.852-265.232 97.894 98.099c7.953 7.982 18.772 12.485 30.058 12.485v0c11.286 0 22.076-4.503 30.058-12.515l212.016-212.572c16.579-16.637 16.579-43.538-0.029-60.175l-139.064-139.268c-37.631-37.69-87.543-59.239-140.526-60.731-0.409 0.058-0.819 0.058-1.199 0.058z" />
<glyph unicode="&#xe619;" glyph-name="f-television" horiz-adv-x="1052" d="M862.26 41.207c-33.228 0-60.286 27.611-60.286 61.531s27.058 61.558 60.286 61.558c33.2 0 60.203-27.611 60.203-61.558s-27.030-61.531-60.203-61.531zM862.26 116.626c-7.553 0-13.695-6.197-13.695-13.861s6.142-13.861 13.695-13.861c7.498 0 13.612 6.197 13.612 13.861-0.028 7.664-6.114 13.861-13.612 13.861zM896.29-51.2h-740.693c-85.794 0-155.598 71.242-155.598 158.89v506.992c0 87.62 69.803 158.89 155.598 158.89h284.856c-1.466 3.071-4.15 7.193-8.881 12.063l-120.184 122.287c-14.442 14.691-14.47 38.567-0.083 53.314 14.387 14.829 37.793 14.857 52.262 0.083l120.267-122.397c29.548-30.295 39.563-67.036 26.781-98.466-10.596-26.090-34.915-42.275-63.384-42.275h-291.635c-45.014 0-81.7-37.461-81.7-83.47v-506.992c0-46.037 36.658-83.47 81.7-83.47h740.693c45.124 0 81.838 37.461 81.838 83.47v506.965c0 46.037-36.714 83.47-81.838 83.47h-290.307c-28.524 0-52.843 16.185-63.467 42.33-12.754 31.374-2.794 68.171 26.698 98.327l121.263 123.421c14.442 14.802 37.848 14.691 52.262-0.083 14.414-14.746 14.359-38.623-0.083-53.314l-121.18-123.338c-4.703-4.814-7.359-8.936-8.826-11.952h283.639c85.877 0 155.708-71.269 155.708-158.89v-506.992c0-87.62-69.831-158.862-155.708-158.862z" />
<glyph unicode="&#xe61a;" glyph-name="btn-arrow_left" horiz-adv-x="610" d="M227.004 600.335l352.915-395.257c38.999-43.861 38.999-114.566 0-158.325l-56.422-63.107c-38.999-43.76-102.208-43.76-141.308 0l-352.915 395.257c-39.1 43.659-39.1 114.566 0 158.123l56.523 63.31c38.898 43.659 102.208 43.659 141.206 0zM580.020 710.95l-353.016-395.358c-39.1-43.659-102.309-43.659-141.308 0l-56.422 63.209c-38.999 43.861-38.999 114.566 0 158.325l352.915 395.358c39.1 43.76 102.309 43.76 141.308 0l56.523-63.31c39.1-43.76 39.1-114.363 0-158.224z" />
<glyph unicode="&#xe61b;" glyph-name="btn_plus" horiz-adv-x="971" d="M849.503 951.941h-728.14c-66.75 0-121.363-54.613-121.363-121.363v-728.178c0-66.75 54.613-121.401 121.363-121.401h728.178c66.75 0 121.363 54.613 121.363 121.401v728.178c0 66.712-54.651 121.363-121.401 121.363zM788.859 405.807h-242.726v-242.726h-121.363v242.726h-242.726v121.363h242.726v242.726h121.363v-242.726h242.726v-121.363z" />
<glyph unicode="&#xe61c;" glyph-name="btn_ticket" horiz-adv-x="1648" d="M0.045 914.498v-220.38c0-32.202 25.565-58.346 57.055-58.346 45.742 0 88.767-18.172 121.102-51.265 66.764-68.234 66.809-179.181 0-247.46-32.38-33.048-75.36-51.22-121.147-51.22-15.099 0-29.619-6.102-40.352-17.059s-16.702-25.788-16.702-41.243l0.045-220.335c0-16.079 6.414-30.643 16.747-41.243s24.586-17.148 40.352-17.148l1533.974-0.089c15.099-0.045 29.663 6.146 40.308 17.103 10.689 10.868 16.702 25.744 16.702 41.243v220.335c0 32.202-25.565 58.302-57.099 58.302-45.742 0-88.722 18.261-121.057 51.265-66.809 68.189-66.809 179.181 0 247.46 32.335 33.004 75.316 51.22 121.147 51.22 15.143 0 29.663 6.146 40.308 17.059 10.689 10.912 16.702 25.788 16.702 41.243v220.335c0 32.246-25.521 58.391-57.099 58.346l-1533.929 0.178c-15.143 0.045-29.663-6.146-40.352-17.059-10.734-10.957-16.747-25.788-16.702-41.243zM968.861 856.063v-65.428c0-16.079 6.458-30.643 16.702-41.243 10.333-10.511 24.675-17.103 40.352-17.103 31.578 0.045 57.099 26.1 57.055 58.302v65.428l450.959-0.045v-109.477c-54.471-11.224-104.578-38.482-144.752-79.636-111.259-113.664-111.303-298.724 0-412.433 40.174-41.065 90.281-68.412 144.752-79.591l0.045-109.522-451.004 0.045v65.428c0 32.246-25.61 58.391-57.099 58.391-31.578 0-57.099-26.1-57.010-58.302v-65.473l-854.618 0.045v109.522c54.471 11.224 104.623 38.571 144.752 79.636 111.303 113.664 111.259 298.68-0.045 412.388-40.174 41.11-90.236 68.412-144.752 79.636v109.522l854.662-0.089zM968.861 543.264c0-16.123 6.458-30.687 16.791-41.243 10.289-10.556 24.586-17.148 40.352-17.148 31.489 0 57.010 26.1 57.055 58.391l-0.045 82.487c0.045 32.246-25.565 58.391-57.099 58.391s-56.966-26.055-57.055-58.346v-82.531zM968.905 378.291l-0.089-82.576c0-16.034 6.503-30.643 16.791-41.154s24.586-17.148 40.352-17.148c31.489 0 57.055 26.1 57.055 58.346v82.531c0 32.202-25.565 58.346-57.055 58.346-31.534-0.089-57.055-26.1-57.055-58.346z" />
<glyph unicode="&#xe61d;" glyph-name="thin_right_arrow" horiz-adv-x="623" d="M77.869 960.512l532.257-471.663c17.809-15.761 17.809-41.361 0-57.121s-46.703-15.761-64.467 0l-532.302 471.619c-17.809 15.805-17.809 41.405 0 57.166 17.809 15.805 46.703 15.805 64.512 0zM610.126 431.727l-532.257-471.619c-17.809-15.805-46.703-15.805-64.512 0-17.764 15.761-17.764 41.361 0 57.121l532.302 471.619c17.764 15.761 46.659 15.761 64.467 0s17.809-41.316 0-57.121z" />
<glyph unicode="&#xe61e;" glyph-name="thin_left_arrow" horiz-adv-x="623" d="M545.658-39.891l-532.257 471.663c-17.809 15.761-17.809 41.361 0 57.121 17.764 15.761 46.703 15.761 64.467 0l532.302-471.619c17.764-15.761 17.764-41.361 0-57.166-17.809-15.761-46.703-15.761-64.512 0zM13.401 488.893l532.257 471.663c17.809 15.761 46.703 15.761 64.512 0 17.764-15.761 17.764-41.361 0-57.077l-532.302-471.708c-17.764-15.761-46.703-15.761-64.467 0-17.853 15.761-17.853 41.361 0 57.121z" />
<glyph unicode="&#xe61f;" glyph-name="info-alert" horiz-adv-x="1025" d="M512.664 192.492c-32.876 0-59.563 26.703-59.563 59.539 0 32.757 26.687 59.389 59.563 59.389 9.404 0 18.757-2.272 27.107-6.526l-21.136-41.214c-7.85 4.040-19.174-2.311-19.174-11.649 0-3.703 1.459-7.176 4.012-9.527l9.527 10.217-6.391-12.473c8.271-4.353 19.174 2.363 19.174 11.783 0 3.866-1.677 7.351-4.393 9.745l31.54 33.947c12.243-11.312 19.217-27.242 19.217-43.688 0-32.84-26.687-59.543-59.484-59.543zM512.581 374.064c-20.094 0-36.349 16.256-36.349 36.298v336.54c0 20.066 16.256 36.337 36.349 36.337s36.337-16.272 36.337-36.337v-336.54c0-20.042-16.24-36.298-36.337-36.298zM511.907-51.2c-126.778 0-247.423 46.162-342.364 131.564-101.725 91.523-161.669 217.1-168.817 353.636-7.188 136.575 39.311 267.747 130.953 369.364 91.619 101.614 217.394 161.558 354.163 168.718 281.893 14.836 523.98-202.653 538.681-484.522 6.217-118.159-29.078-235.6-99.39-330.636-11.902-16.121-34.66-19.622-50.837-7.648-16.161 11.902-19.594 34.66-7.648 50.781 60.32 81.564 90.576 182.317 85.267 283.705-12.66 241.872-219.479 427.837-462.264 415.796-117.346-6.149-225.288-57.565-303.949-144.779-78.618-87.214-118.508-199.802-112.374-316.989 6.134-117.172 57.565-224.923 144.913-303.501 87.309-78.555 200.884-118.187 317.315-112.255 86.603 4.528 168.94 33.97 238.114 85.188 16.2 11.958 38.93 8.54 50.837-7.597 11.997-16.109 8.568-38.835-7.553-50.797-80.672-59.702-176.671-94.053-277.583-99.306-9.167-0.48-18.357-0.722-27.464-0.722zM512.664 192.52c-32.876 0-59.563 26.699-59.563 59.512 0 32.785 26.687 59.432 59.563 59.432 9.567 0 19.055-2.351 27.488-6.772 2.216-1.178 4.31-2.557 6.149-4.096 2.256-1.285 4.377-2.839 6.375-4.651 12.378-11.268 19.475-27.266 19.475-43.918-0.004-32.809-26.691-59.508-59.488-59.508z" />
<glyph unicode="&#xe620;" glyph-name="rueda_open" horiz-adv-x="1025" d="M488.588 972.513c-11.619-1.948-20.879-10.819-23.299-22.325-0.533-1.928-0.851-3.866-0.974-5.825l-26.212-95.135c-10.634-2-21.628-4.030-32.037-6.799-12.511-3.374-24.048-8.245-35.923-12.624l-80.573 71.846c-9.055 8.204-22.315 9.752-33.011 3.876-33.072-18.705-63.683-41.092-91.259-66.022-9.188-8.368-11.947-21.71-6.799-33.011l45.635-97.094c-14.808-17.864-28.242-37.051-39.8-57.284l-108.733 3.887c-12.655 0.461-24.089-7.455-28.16-19.423-13.126-35-21.935-71.323-27.186-108.733-1.784-12.603 4.933-24.858 16.5-30.109l96.12-44.64c0.287-22.951 2.42-45.942 6.799-68.944l-85.434-67.96c-9.804-7.486-13.69-20.387-9.711-32.047 12.788-36.108 29.986-68.801 49.511-99.986 6.553-10.47 19.064-15.547 31.073-12.614l102.909 27.176c15.054-17.485 31.934-33.124 49.521-47.573l-22.335-107.78c-2.287-11.896 3.159-23.956 13.598-30.109 32.221-18.972 66.985-34.928 102.909-46.588 11.865-3.805 24.817 0.544 32.037 10.675l61.15 87.403c22.92-3.825 46.27-5.107 69.898-4.871l50.465-96.099c5.886-10.819 17.987-16.705 30.109-14.583 15.834 2.707 31.514 5.404 47.573 9.711 20.746 5.548 40.825 12.562 60.186 20.387 11.957 4.492 19.474 16.387 18.449 29.124l-10.675 121.357c-1.343 15.803-15.229 27.565-31.062 26.222-15.823-1.343-27.565-15.218-26.222-31.062v0l8.747-99.022c-11.291-4.010-22.284-8.512-33.975-11.639-7.414-2-14.962-3.282-22.335-4.871l-48.527 91.249c-5.466 9.711-16.049 15.423-27.186 14.562-31.821-1.928-62.945 1.097-93.177 7.773-11.486 2.666-23.422-1.938-30.098-11.66l-57.274-81.537c-18.346 6.953-36.077 15.003-53.398 24.253l20.387 100.006c2.051 10.655-2.082 21.535-10.675 28.16-25.196 18.664-47.737 41.040-66.985 66.022-7.178 8.973-19.023 12.798-30.098 9.691l-95.135-25.237c-9.773 17.105-18.674 34.826-26.212 53.398l79.609 63.109c8.604 7.014 12.378 18.346 9.711 29.124-7.507 31.606-10.993 62.668-9.711 93.187 0.103 11.209-6.358 21.453-16.5 26.212l-89.311 42.722c3.641 19.454 9.435 38.579 15.536 57.274l100.97-2.912c10.993-0.277 21.177 5.763 26.212 15.547 13.988 27.822 32.067 54.269 53.398 77.661 7.66 8.471 9.568 20.674 4.851 31.062l-41.748 89.321c15.382 12.726 31.401 24.222 48.537 34.949l74.759-66.985c8.471-7.681 20.664-9.588 31.073-4.861 15.044 6.43 30.098 11.106 46.599 15.536 14.593 3.897 29.483 7.825 43.686 9.711 11.086 1.641 20.192 9.619 23.299 20.387l26.212 96.11c19.587-0.318 38.856-1.067 58.238-3.876l14.562-100.981c1.672-11.096 9.629-20.202 20.387-23.289 30.006-9.014 58.843-21.997 85.424-38.836 9.711-6.553 22.366-6.553 32.047 0l80.563 57.274c15.229-12.891 29.339-27.012 42.712-41.748l-52.413-85.434c-6.102-9.465-6.102-21.607 0-31.073 16.921-25.73 31.001-53.767 40.784-84.45 3.261-11.075 12.839-19.095 24.274-20.387l98.068-7.763c3.302-19.813 6.091-39.594 6.789-59.222l-96.12-32.047c-10.675-3.569-18.244-13.055-19.433-24.253-3.651-31.462-12.378-62.514-24.253-91.249-4.184-10.798-1.518-23.053 6.789-31.062l86.408-86.408c11.301-11.301 29.524-11.301 40.784 0 11.301 11.26 11.301 29.483 0 40.784l-75.733 74.748c7.835 21.976 13.598 44.742 17.485 67.96l102.909 33.975c11.721 3.528 19.874 14.019 20.366 26.222 0.338 36.959-3.63 75.169-11.639 112.62-2.687 12.121-12.88 21.146-25.258 22.325l-105.852 9.722c-8.296 21.997-18.449 42.415-30.109 62.135l57.284 93.197c6.43 10.306 5.65 23.515-1.938 33.021-24.15 29.247-52.177 54.823-81.537 77.651-9.896 7.732-23.679 8.122-33.975 0.964l-87.383-61.15c-19.813 11.198-40.528 21.361-62.135 29.124l-15.557 107.749c-1.702 12.275-11.106 22.069-23.289 24.274-36.159 6.696-74.267 10.122-112.6 8.737-0.984 0.062-1.948 0.062-2.923 0.021zM538.089 640.488c-24.632 3.456-50.249 2.923-75.712-3.887-101.863-27.309-162.244-133.099-134.945-234.952 27.288-101.873 132.115-163.218 233.947-135.919 15.485 3.282 25.402 18.449 22.151 33.934-3.282 15.506-18.52 25.402-33.975 22.13-0.913-0.205-1.836-0.441-2.738-0.718-71.877-19.249-144.81 23.279-164.059 95.135-19.269 71.836 23.258 145.774 95.135 165.054 71.887 19.249 144.821-23.289 164.059-95.146 9.342-34.754 4.307-69.703-11.65-99.032-7.784-13.957-2.779-31.544 11.157-39.318 13.947-7.773 31.555-2.779 39.328 11.157 22.725 41.666 29.719 92.479 16.5 141.754-20.428 76.389-85.239 129.397-159.198 139.806z" />
<glyph unicode="&#xe621;" glyph-name="candado" horiz-adv-x="725" d="M584.832 603.52h-416.875v219.755c0 53.781 41.984 95.915 95.573 95.915h196.779c53.632 0 97.259-43.008 97.259-95.915v-105.28c0-14.72 12.139-26.688 27.093-26.688s27.115 11.968 27.115 26.688v105.28c0 82.283-67.947 149.248-151.467 149.248h-196.779c-83.989 0-149.781-65.579-149.781-149.248v-222.016l-8.448-2.176c-61.867-15.808-105.067-70.827-105.067-133.781v-378.475c0-75.968 62.933-137.771 140.267-137.771h444.331c77.333 0 140.267 61.803 140.267 137.771v378.475c0 76.203-62.933 138.219-140.267 138.219zM670.891 86.827c0-46.571-38.613-84.437-86.059-84.437h-444.331c-47.445 0-86.059 37.867-86.059 84.437v378.475c0 46.805 38.613 84.864 86.059 84.864h444.331c47.445 0 86.059-38.059 86.059-84.864v-378.475z" />
<glyph unicode="&#xe622;" glyph-name="facturacion" horiz-adv-x="921" d="M156.081 177.058c-6.657 0-12.034-5.198-12.034-11.573 0-6.35 5.377-11.522 12.034-11.522h262.158c6.657 0 12.034 5.172 12.034 11.522 0 6.375-5.377 11.573-12.034 11.573h-262.158zM835.018 527.959c-2.074 1.997-5.172 3.149-8.5 3.149s-6.452-1.152-8.5-3.149l-228.745-219.604c-1.152-1.101-2.048-2.407-2.663-3.892l-59.298-134.471c-1.92-4.327-0.947-9.269 2.484-12.623 3.38-3.277 8.808-4.25 13.032-2.637l142.306 55.227c1.357 0.538 2.535 1.255 3.636 2.202l229.103 219.963c4.686 4.506 4.686 11.829 0 16.335l-82.854 79.5zM560.801 186.66l41.145 93.224 57.353-55.023-98.498-38.201zM680.652 237.048l-65.802 63.165 211.693 203.243 65.802-63.113-211.693-203.294zM764.428 185.021c-13.288 0-24.068-10.344-24.068-23.095v-143.996c0-12.418-10.882-22.941-23.812-22.941h-644.577c-13.34 0-23.812 10.062-23.812 22.941v886.2c0 12.392 10.677 22.455 23.812 22.455h644.602c13.135 0 23.812-10.088 23.812-22.455v-299.13c0-12.725 10.805-23.095 24.068-23.095 13.288 0 24.068 10.37 24.068 23.095v299.13c0 37.842-32.286 68.67-71.972 68.67h-644.577c-39.686 0-71.972-30.827-71.972-68.67v-886.175c0-38.124 32.286-69.13 71.972-69.13h644.602c39.686 0 71.972 31.006 71.972 69.13v143.97c-0.026 12.751-10.83 23.095-24.119 23.095z" />
<glyph unicode="&#xe623;" glyph-name="otros" horiz-adv-x="4736" d="M491.52 972.8c271.36 0 491.392-229.248 491.392-512s-220.032-512-491.392-512-491.52 229.248-491.52 512c0 282.752 220.032 512 491.52 512zM2368 972.8c271.488 0 491.52-229.248 491.52-512s-220.032-512-491.52-512-491.52 229.248-491.52 512c0 282.752 220.032 512 491.52 512zM4244.48 972.8c271.488 0 491.52-229.248 491.52-512s-220.032-512-491.52-512c-271.36 0-491.392 229.248-491.392 512s220.032 512 491.392 512z" />
<glyph unicode="&#xe624;" glyph-name="servicios_digitales" horiz-adv-x="1131" d="M1003.1 972.8h-875.656c-70.24 0-127.445-56.881-127.445-126.798v-770.458c0-69.89 57.205-126.744 127.445-126.744 13.682 0 24.805 11.069 24.805 24.67 0 13.628-11.123 24.697-24.805 24.697-42.93 0-77.862 34.716-77.862 77.404v770.431c0 42.715 34.931 77.431 77.862 77.431h875.629c42.903 0 77.835-34.743 77.835-77.431v-770.458c0-42.688-34.931-77.404-77.835-77.404h-728.308c-13.682 0-24.778-11.069-24.778-24.697 0-13.601 11.123-24.67 24.778-24.67h728.308c70.267 0 127.445 56.854 127.445 126.744v770.485c0.027 69.917-57.151 126.798-127.418 126.798zM528.173 295.152l145.624 144.87c11.5 11.473 11.5 30.084 0 41.53l-145.624 144.87c-10.261 10.18-27.498 11.231-38.756 2.639v-336.521c11.312-8.618 28.522-7.568 38.756 2.612z" />
<glyph unicode="&#xe625;" glyph-name="telefonia" horiz-adv-x="591" d="M541.513 227.051c0-14.307 11.214-25.953 24.998-25.953s24.998 11.623 24.998 25.953v630.882c0 63.347-49.609 114.867-110.568 114.867h-370.327c-60.982 0-110.614-51.52-110.614-114.867v-794.266c0-63.325 49.632-114.867 110.614-114.867h370.304c58.184 0 106.633 47.198 110.363 107.452 0.091 2.479 0.227 58.298 0.227 61.118 0 14.307-11.214 25.953-24.998 25.953-13.761 0-24.998-11.623-24.998-25.953 0-1.865-0.045-53.658-0.114-57.593-2.047-33.209-28.614-59.094-60.481-59.094h-370.304c-33.437 0-60.641 28.25-60.641 62.984v794.266c0 34.71 27.181 62.961 60.641 62.961h370.304c33.414 0 60.595-28.25 60.595-62.961v-630.882zM356.020 115.869c0-30.093-23.474-54.477-52.429-54.477s-52.452 24.384-52.452 54.477c0 30.047 23.474 54.454 52.452 54.454 28.956-0.023 52.429-24.406 52.429-54.454z" />
<glyph unicode="&#xe626;" glyph-name="lupa" d="M416.713 233.935c-175.22 0-317.774 143.353-317.774 319.546 0 176.208 142.554 319.546 317.774 319.546 175.206 0 317.738-143.338 317.738-319.546 0-176.193-142.532-319.546-317.738-319.546zM1016.399 28.764l-273.611 275.122c52.616 69.349 83.946 155.851 83.946 249.595 0 227.372-183.942 412.352-410.021 412.352-226.115 0-410.050-184.981-410.050-412.352 0-227.335 183.935-412.352 410.050-412.352 95.849 0 184.051 33.342 253.945 88.979l273.016-274.526 72.726 73.183z" />
<glyph unicode="&#xe627;" glyph-name="copa" horiz-adv-x="1092" d="M822.318 940.806c8.943 0 16.247 7.168 16.247 15.997s-7.305 15.997-16.247 15.997h-552.346c-8.966 0-16.247-7.168-16.247-15.997s7.282-15.997 16.247-15.997h552.346zM822.318 908.789h-617.313c-106.678 0-156.376-37.319-179.314-68.608-28.058-38.389-33.314-89.702-14.814-144.452 28.672-84.673 124.951-186.391 184.161-231.583 2.981-2.276 6.508-3.345 9.967-3.345 4.824 0 9.648 2.116 12.857 6.19 5.484 6.986 4.187 17.044-2.89 22.46-54.386 41.483-147.001 138.945-173.238 216.428-15.178 44.715-11.492 85.766 10.331 115.598 26.487 36.181 79.326 55.319 152.94 55.319h48.742v-303.991c0-215.245 216.792-339.263 261.097-362.314-0.683-1.775-1.183-3.686-1.183-5.689v-80.009c0-8.806 7.282-15.997 16.247-15.997s16.247 7.191 16.247 15.997v80.009c0 1.889-0.501 3.573-1.070 5.257 49.175 22.778 293.478 146.751 293.478 362.746v303.991h48.742c73.614 0 126.475-19.137 152.94-55.319 21.823-29.833 25.509-70.884 10.354-115.621-20.503-60.53-122.47-177.721-173.238-216.428-7.122-5.393-8.374-15.451-2.913-22.46 3.254-4.050 8.055-6.167 12.88-6.167 3.482 0 6.986 1.092 9.967 3.322 56.297 42.94 161.178 163.817 184.161 231.583 18.523 54.75 13.266 106.064-14.791 144.452-22.96 31.334-72.658 68.654-179.314 68.654h-65.035zM806.047 572.803c0-194.97-232.38-313.754-275.706-334.188-39.89 21.322-244.144 139.742-244.144 334.188v303.991h519.828v-303.991zM351.209 76.8c-37.069 0-64.967-27.489-64.967-64.011v-47.991c0-8.806 7.282-15.997 16.247-15.997h454.861c8.966 0 16.247 7.191 16.247 15.997v45.579c0 37.228-28.558 66.401-64.967 66.401h-357.422zM741.080 10.399v-29.582h-422.366v31.994c0 18.842 13.358 31.994 32.495 31.994h357.399c18.523 0 32.472-14.791 32.472-34.406z" />
<glyph unicode="&#xe628;" glyph-name="cross" d="M1023.727 460.971c0-70.602-57.287-128.026-128.026-128.026h-255.983v-255.983c0-70.738-57.355-128.026-128.026-128.026-70.738 0-127.957 57.287-127.957 128.026v255.915l-255.983-0.068c-70.738 0-128.026 57.287-128.026 128.026 0 70.67 57.355 127.957 128.026 127.957l255.983 0.068 0.068 255.983c0.137 70.67 57.355 127.957 128.026 127.957 70.807 0 128.026-57.287 128.026-128.026l-0.068-255.915 256.051 0.068c70.67 0 127.889-57.219 127.889-127.957z" />
<glyph unicode="&#xe629;" glyph-name="arrow_down" horiz-adv-x="1362" d="M127.415 646.729l427.008-502.199c105.179-123.611 275.895-123.611 380.928 0l426.715 502.345c105.326 123.611 69.925 223.817-78.702 223.817l-1076.809-0.293c-148.773 0-184.174-100.059-79.141-223.671z" />
<glyph unicode="&#xe62a;" glyph-name="three_lines" horiz-adv-x="1057" d="M1057.371 940.626h-1057.371v64.348h1057.371v-64.348zM1057.371 610.088h-1057.371v64.418h1057.371v-64.418zM1057.371 279.62h-1057.371v64.277h1057.371v-64.277zM1057.371-50.918h-1057.371v64.348h1057.371v-64.348z" />
<glyph unicode="&#xe62b;" glyph-name="arrow_up" horiz-adv-x="1362" d="M1362.359 275.895l-427.008 502.345c-105.179 123.611-275.895 123.611-380.928 0l-426.715-502.345c-105.326-123.758-70.071-223.963 78.702-223.963l1076.663 0.439c148.919 0 184.32 100.059 79.287 223.525z" />
<glyph unicode="&#xe62c;" glyph-name="thin_down_arrow" horiz-adv-x="1707" d="M19.235 845.497l786.296-874.731c26.291-29.251 68.972-29.251 95.264 0s26.291 76.712 0 105.962l-786.296 874.731c-26.291 29.251-68.972 29.251-95.264 0-26.348-29.251-26.348-76.712 0-105.962zM900.851-29.234l786.296 874.731c26.348 29.251 26.348 76.712 0 105.962-26.291 29.251-68.915 29.251-95.207 0l-786.353-874.788c-26.291-29.251-26.291-76.712 0-105.962s68.972-29.251 95.264 0.057z" />
<glyph unicode="&#xe62d;" glyph-name="arrow_left" horiz-adv-x="640" d="M27.008 486.72l576.64-480.32v960.512l-576.64-480.192z" />
<glyph unicode="&#xe62e;" glyph-name="large_arrow_left" horiz-adv-x="932" d="M931.687 972.8l-22.613-1024-909.075 493.575 931.687 530.425z" />
<glyph unicode="&#xe62f;" glyph-name="ppl" horiz-adv-x="931" d="M477.603 404.992c143.313 0 259.91 117.713 259.91 262.377 0 144.524-116.596 262.097-259.91 262.097-143.22 0-259.724-117.574-259.724-262.097 0-144.663 116.503-262.377 259.724-262.377zM477.603 882.688c117.713 0 213.504-96.582 213.504-215.273 0-118.877-95.791-215.552-213.504-215.552-117.62 0-213.318 96.721-213.318 215.552-0.047 118.691 95.651 215.273 213.318 215.273zM753.431 353.513c-9.775 7.773-24.948 5.911-32.582-3.863-7.913-10.147-6.191-24.855 3.817-32.861 88.483-70.516 142.289-171.706 151.459-284.905l0.884-10.566h-805.748l0.884 10.566c9.216 113.059 63.023 214.249 151.459 284.905 10.007 8.006 11.729 22.761 3.817 32.908-4.422 5.632-11.078 8.89-18.199 8.89-5.306 0-10.24-1.769-14.429-5.073-108.311-86.575-170.449-216.157-170.449-355.561 0-12.893 10.38-23.366 23.18-23.366h853.225c12.753 0 23.18 10.473 23.18 23.366 0 139.59-62.138 269.219-170.496 355.561z" />
<glyph unicode="&#xe630;" glyph-name="house" horiz-adv-x="810" d="M242.472 239.4v-34.87c0-4.689-1.779-8.839-5.282-12.288s-7.653-5.174-12.45-5.174h-35.463c-4.797 0-9 1.725-12.504 5.174-3.503 3.395-5.282 7.545-5.228 12.288v34.87c0 4.689 1.725 8.839 5.228 12.288s7.653 5.174 12.504 5.174h35.463c4.797 0 8.947-1.725 12.45-5.174 3.557-3.449 5.336-7.599 5.282-12.288zM242.472 378.88v-34.87c0-4.689-1.779-8.839-5.282-12.288s-7.653-5.174-12.45-5.174h-35.463c-4.797 0-9 1.725-12.504 5.174-3.503 3.395-5.282 7.545-5.228 12.288v34.87c0 4.689 1.725 8.839 5.228 12.288s7.653 5.174 12.504 5.174h35.463c4.797 0 8.947-1.725 12.45-5.174 3.557-3.449 5.336-7.599 5.282-12.288zM384.377 378.88v-34.87c0-4.689-1.725-8.839-5.228-12.288s-7.653-5.174-12.504-5.174h-35.463c-4.797 0-8.947 1.725-12.504 5.174-3.503 3.395-5.282 7.545-5.228 12.288v34.87c0 4.689 1.725 8.839 5.228 12.288s7.653 5.174 12.504 5.174h35.463c4.797 0 8.947-1.725 12.504-5.174 3.503-3.449 5.228-7.599 5.228-12.288zM242.472 518.36v-34.87c0-4.689-1.779-8.839-5.282-12.288s-7.653-5.174-12.45-5.174h-35.463c-4.797 0-9 1.725-12.504 5.174s-5.282 7.545-5.228 12.288v34.87c0 4.689 1.725 8.839 5.228 12.288s7.653 5.174 12.504 5.174h35.463c4.797 0 8.947-1.725 12.45-5.174 3.557-3.449 5.336-7.545 5.282-12.288zM668.187 239.4v-34.87c0-4.689-1.725-8.839-5.282-12.288-3.449-3.449-7.653-5.174-12.45-5.174h-35.463c-4.797 0-8.947 1.725-12.45 5.174-3.557 3.395-5.282 7.545-5.282 12.288v34.87c0 4.689 1.725 8.839 5.282 12.288 3.449 3.449 7.653 5.174 12.45 5.174h35.463c4.797 0 8.947-1.725 12.45-5.174 3.557-3.449 5.282-7.599 5.282-12.288zM526.282 378.88v-34.87c0-4.689-1.725-8.839-5.282-12.288-3.449-3.449-7.599-5.174-12.45-5.174h-35.463c-4.797 0-8.947 1.725-12.504 5.174-3.503 3.395-5.282 7.545-5.282 12.288v34.87c0 4.689 1.725 8.839 5.282 12.288 3.449 3.449 7.653 5.174 12.504 5.174h35.463c4.743 0 8.947-1.725 12.45-5.174 3.557-3.449 5.282-7.599 5.282-12.288zM384.377 518.36v-34.87c0-4.689-1.725-8.839-5.228-12.288s-7.653-5.174-12.504-5.174h-35.463c-4.797 0-8.947 1.725-12.504 5.174-3.503 3.449-5.282 7.545-5.228 12.288v34.87c0 4.689 1.725 8.839 5.228 12.288s7.653 5.174 12.504 5.174h35.463c4.797 0 8.947-1.725 12.504-5.174 3.503-3.449 5.228-7.545 5.228-12.288zM242.472 657.839v-34.87c0-4.689-1.779-8.839-5.282-12.288s-7.653-5.174-12.45-5.12h-35.463c-4.797 0-9 1.725-12.504 5.174s-5.282 7.545-5.228 12.288v34.816c0 4.743 1.725 8.839 5.228 12.288s7.653 5.174 12.504 5.12h35.463c4.797 0 8.947-1.725 12.45-5.174s5.336-7.491 5.282-12.234zM668.187 378.88v-34.87c0-4.689-1.725-8.839-5.282-12.288-3.449-3.449-7.653-5.174-12.45-5.174h-35.463c-4.797 0-8.947 1.725-12.45 5.174-3.557 3.395-5.282 7.545-5.282 12.288v34.87c0 4.689 1.725 8.839 5.282 12.288 3.449 3.449 7.653 5.174 12.45 5.174h35.463c4.797 0 8.947-1.725 12.45-5.174 3.557-3.449 5.282-7.599 5.282-12.288zM526.282 518.36v-34.87c0-4.689-1.725-8.839-5.282-12.288-3.449-3.449-7.599-5.174-12.45-5.174h-35.463c-4.797 0-8.947 1.725-12.504 5.174s-5.282 7.545-5.282 12.288v34.87c0 4.689 1.725 8.839 5.282 12.288 3.449 3.449 7.653 5.174 12.504 5.174h35.463c4.743 0 8.947-1.725 12.45-5.174 3.557-3.449 5.282-7.545 5.282-12.288zM384.377 657.839v-34.87c0-4.689-1.725-8.839-5.228-12.288s-7.653-5.174-12.504-5.12h-35.463c-4.797 0-8.947 1.725-12.504 5.174-3.503 3.449-5.282 7.545-5.228 12.288v34.816c0 4.743 1.725 8.839 5.228 12.288s7.653 5.174 12.504 5.12h35.463c4.797 0 8.947-1.725 12.504-5.174 3.503-3.395 5.228-7.491 5.228-12.234zM242.472 797.319v-34.87c0-4.689-1.779-8.839-5.282-12.288s-7.653-5.174-12.45-5.174h-35.463c-4.797 0-9 1.725-12.504 5.174s-5.282 7.545-5.228 12.288v34.87c0 4.689 1.725 8.839 5.228 12.288s7.653 5.174 12.504 5.174h35.463c4.797 0 8.947-1.725 12.45-5.174 3.557-3.449 5.336-7.545 5.282-12.288zM668.187 518.36v-34.87c0-4.689-1.725-8.839-5.282-12.288-3.449-3.449-7.653-5.174-12.45-5.174h-35.463c-4.797 0-8.947 1.725-12.45 5.174-3.557 3.449-5.282 7.545-5.282 12.288v34.87c0 4.689 1.725 8.839 5.282 12.288 3.449 3.449 7.653 5.174 12.45 5.174h35.463c4.797 0 8.947-1.725 12.45-5.174 3.557-3.449 5.282-7.545 5.282-12.288zM526.282 657.839v-34.87c0-4.689-1.725-8.839-5.282-12.288-3.449-3.449-7.599-5.174-12.45-5.12h-35.463c-4.797 0-8.947 1.725-12.504 5.174-3.557 3.395-5.282 7.491-5.282 12.234v34.87c0 4.743 1.725 8.839 5.282 12.288 3.449 3.449 7.653 5.174 12.504 5.12h35.463c4.743 0 8.947-1.725 12.45-5.174 3.557-3.395 5.282-7.491 5.282-12.234zM384.377 797.319v-34.87c0-4.689-1.725-8.839-5.228-12.288s-7.653-5.174-12.504-5.174h-35.463c-4.797 0-8.947 1.725-12.504 5.174-3.503 3.449-5.282 7.545-5.228 12.288v34.87c0 4.689 1.725 8.839 5.228 12.288s7.653 5.174 12.504 5.174h35.463c4.797 0 8.947-1.725 12.504-5.174 3.503-3.449 5.228-7.545 5.228-12.288zM668.187 657.839v-34.87c0-4.689-1.725-8.839-5.282-12.288-3.449-3.449-7.653-5.174-12.45-5.174h-35.463c-4.797 0-8.947 1.725-12.45 5.174-3.557 3.449-5.282 7.545-5.282 12.288v34.87c0 4.743 1.725 8.839 5.282 12.288 3.449 3.449 7.653 5.174 12.45 5.174h35.463c4.797 0 8.947-1.725 12.45-5.174s5.282-7.545 5.282-12.288zM526.282 797.319v-34.87c0-4.689-1.725-8.839-5.282-12.288-3.449-3.449-7.599-5.174-12.45-5.174h-35.463c-4.797 0-8.947 1.725-12.504 5.174s-5.282 7.545-5.282 12.288v34.87c0 4.689 1.725 8.839 5.282 12.288 3.449 3.449 7.653 5.174 12.504 5.174h35.463c4.743 0 8.947-1.725 12.45-5.174 3.557-3.449 5.282-7.545 5.282-12.288zM668.187 797.319v-34.87c0-4.689-1.725-8.839-5.282-12.288-3.449-3.449-7.653-5.174-12.45-5.174h-35.463c-4.797 0-8.947 1.725-12.45 5.174-3.557 3.449-5.282 7.545-5.282 12.288v34.87c0 4.689 1.725 8.839 5.282 12.288 3.449 3.449 7.653 5.174 12.45 5.174h35.463c4.797 0 8.947-1.725 12.45-5.174 3.557-3.449 5.282-7.545 5.282-12.288zM526.282 47.589h212.83v836.931h-638.545v-836.931h212.884v122.072c0 4.689 1.725 8.839 5.228 12.288s7.653 5.174 12.504 5.174h177.421c4.743 0 8.947-1.671 12.45-5.174 3.557-3.395 5.282-7.545 5.282-12.288v-122.072zM810.092 919.39v-906.671c0-9.432-3.503-17.624-10.509-24.522-7.006-6.845-15.36-10.348-24.953-10.348h-709.524c-9.593 0-17.893 3.449-24.899 10.348s-10.563 15.091-10.563 24.522v906.671c0 9.432 3.503 17.624 10.563 24.522 7.006 6.899 15.36 10.348 24.899 10.348h709.524c9.593 0 17.947-3.449 24.953-10.348 6.952-6.952 10.509-15.091 10.509-24.522z" />
<glyph unicode="&#xe631;" glyph-name="play_left" d="M169.387 80.275c-101.623 91.465-161.566 217.17-168.672 353.843-7.153 136.53 39.342 267.719 130.855 369.342 91.513 101.575 217.123 161.471 353.7 168.624 281.549 14.449 523.421-202.673 538.204-484.651 6.009-116.072-26.038-227.375-92.705-321.797-11.827-16.786-35.051-20.649-51.837-8.965-16.786 11.874-20.792 35.051-8.965 51.884 56.939 80.64 84.36 175.777 79.209 275.016-12.637 241.014-218.124 427.521-460.044 414.216-116.74-6.104-224.085-57.273-302.341-144.16-78.208-86.792-117.932-198.906-111.828-315.598 6.104-116.835 57.321-224.276 144.16-302.484 86.839-78.16 199.287-117.789 315.836-111.733 84.121 4.34 164.38 32.285 232.049 80.878 16.691 12.017 39.962 8.155 51.932-8.536s8.155-39.962-8.536-51.932c-79.305-56.892-173.202-89.701-271.63-94.756-9.156-0.477-18.264-0.715-27.373-0.715-126.659 0.048-247.214 46.209-342.017 131.523zM570.871 141.316l-293.185 293.089c-6.962 6.962-10.921 16.452-10.921 26.324s3.91 19.314 10.921 26.324l293.185 293.089c10.634 10.682 26.705 13.829 40.535 8.059 13.925-5.77 22.938-19.314 22.938-34.383v-586.226c0-15.022-9.061-28.613-22.938-34.383-4.578-1.908-9.442-2.861-14.211-2.861-9.728 0.095-19.218 3.863-26.324 10.968zM356.562 460.776l203.436-203.341v406.634l-203.436-203.293z" />
<glyph unicode="&#xe632;" glyph-name="play_right" d="M512.691-51.2c-9.108 0-18.217 0.238-27.373 0.715-98.38 5.055-192.325 37.864-271.63 94.756-16.691 11.97-20.506 35.241-8.536 51.932s35.241 20.553 51.932 8.536c67.669-48.642 147.928-76.539 232.049-80.878 116.549-6.056 228.997 33.572 315.836 111.733 86.839 78.208 138.056 185.649 144.16 302.484 6.104 116.692-33.62 228.806-111.828 315.598-78.208 86.839-185.553 138.056-302.245 144.113-241.92 13.305-447.407-173.202-460.044-414.216-5.103-99.238 22.27-194.328 79.209-275.016 11.874-16.834 7.868-40.010-8.965-51.884-16.786-11.684-40.010-7.821-51.837 8.965-66.668 94.422-98.714 205.725-92.705 321.797 14.783 281.978 256.608 499.1 538.204 484.651 136.578-7.153 262.187-67.049 353.7-168.624 91.513-101.623 138.008-232.812 130.855-369.342-7.105-136.673-67.049-262.378-168.672-353.843-94.851-85.313-215.406-131.475-342.112-131.475zM426.997 130.443c-4.816 0-9.633 0.954-14.211 2.861-13.925 5.77-22.938 19.314-22.938 34.383v586.178c0 15.022 9.061 28.613 22.938 34.383 13.829 5.77 29.853 2.623 40.535-8.059l293.185-293.089c6.962-6.962 10.921-16.452 10.921-26.324s-3.91-19.314-10.921-26.324l-293.185-293.089c-7.153-7.153-16.691-10.921-26.324-10.921zM464.145 664.069v-406.634l203.436 203.341-203.436 203.293z" />
<glyph unicode="&#xe633;" glyph-name="carrito" horiz-adv-x="1182" d="M833.555 50.617c-2.11 0-2.979-0.372-2.979-0.372-1.055-0.652-2.296-1.303-3.6-1.924l-0.497-0.497c-2.203-1.986-3.383-4.841-3.383-7.913 0-5.679 4.686-10.303 10.458-10.303 5.803 0 10.489 4.624 10.489 10.303 0 5.927-4.686 10.706-10.489 10.706zM543.87 50.617c-2.141 0-2.979-0.372-2.979-0.372-1.055-0.652-2.296-1.303-3.569-1.924l-0.528-0.497c-2.203-1.986-3.383-4.841-3.383-7.913 0-5.679 4.686-10.303 10.458-10.303s10.458 4.624 10.458 10.303c0.031 5.927-4.655 10.706-10.458 10.706zM543.87 131.455c-15.671 0-29.946-3.662-42.452-10.892-2.358-1.334-4.407-2.979-6.237-4.872l-4.003-2.731c-2.979-1.272-5.741-2.979-8.13-5.213-18.774-17.192-29.574-41.893-29.574-67.836 0-50.272 40.559-91.142 90.397-91.142s90.428 40.869 90.428 91.142c0 50.489-40.59 91.545-90.428 91.545zM543.87 5.837c-18.743 0-33.98 15.299-33.98 34.104 0 9.806 4.034 19.085 11.047 25.446l5.244 4.003c0.993 0.434 2.017 0.931 2.979 1.49 4.189 2.358 9.061 3.538 14.709 3.538 18.743 0 33.98-15.485 33.98-34.477 0.031-18.806-15.237-34.104-33.98-34.104zM833.555 131.455c-15.64 0-29.946-3.662-42.421-10.892-2.358-1.334-4.438-2.979-6.269-4.872l-4.003-2.731c-2.979-1.272-5.741-2.979-8.13-5.213-18.806-17.192-29.574-41.893-29.574-67.836 0-50.272 40.559-91.142 90.397-91.142s90.428 40.869 90.428 91.142c-0.031 50.489-40.59 91.545-90.428 91.545zM833.555 5.837c-18.743 0-33.98 15.299-33.98 34.104 0 9.806 4.034 19.085 11.078 25.446l5.244 4.003c0.993 0.434 2.017 0.931 2.979 1.49 4.189 2.358 9.061 3.538 14.709 3.538 18.743 0 34.011-15.485 34.011-34.477-0.031-18.806-15.299-34.104-34.042-34.104zM1103.753 773.418h-734.159c-15.578 0-28.208-12.785-28.208-28.519s12.63-28.519 28.208-28.519h734.159c12.072 0 22.312-10.365 22.312-22.591 0-4.376-1.521-8.41-3.817-13.189l-148.055-352.96c-19.954-31.994-52.258-50.086-87.387-50.086h-384.085c-35.377 0-68.705 18.961-87.045 49.465l-248.257 599.014c-11.513 28.488-38.511 46.765-68.86 46.765h-70.35c-15.578 0-28.208-12.785-28.208-28.519s12.63-28.519 28.208-28.519h70.381c7.293 0 13.871-4.562 16.726-11.575l248.568-600.069c0.465-1.117 1.055-2.234 1.614-3.351 27.96-49.434 80.622-80.218 137.255-80.218h384.116c55.517 0 107.775 30.101 136.386 78.511 0.59 1.024 1.21 2.172 1.707 3.32l148.086 353.457c6.362 12.227 9.465 25.043 9.465 37.952-0.031 43.911-35.346 79.629-78.76 79.629z" />
<glyph unicode="&#xe634;" glyph-name="invoice" horiz-adv-x="829" d="M592.273-48.425l2.392 4.146 4.529 1.595 224.554 228.445c3.987 4.784 5.485 8.77 5.709 13.012v650.413c0 68.154-54.536 123.615-121.637 123.615l-586.054-0.351c-67.070 0-121.606-55.461-121.606-123.615v-607.709c0-10.939 8.739-19.837 19.518-19.837s19.518 8.898 19.518 19.837v607.677c0 46.308 37.059 83.973 82.601 83.973l586.054 0.383c45.542 0 82.569-37.665 82.569-83.973v-629.555h-208.098c-10.78 0-19.518-8.898-19.518-19.837v-211.319h-441.039c-45.542 0-82.569 37.633-82.569 83.877v37.792c0 10.939-8.739 19.837-19.518 19.837-10.748 0-19.518-8.866-19.518-19.837v-37.792c0-68.122 54.536-123.551 121.606-123.551h460.526v-15.659l0.829 15.691c3.317 0.128 6.41 1.084 9.153 2.743zM601.841 179.956h160.961l-160.961-163.448v163.448zM428.41 664.273v51.442h-18.498v-51.474l-13.746-1.531c-29.819-3.285-51.953-12.023-65.73-26.024-6.729-6.857-11.96-14.894-15.627-23.919-3.668-9.089-5.517-20.252-5.517-33.168 0-13.331 1.818-24.94 5.39-34.476 3.54-9.376 8.196-16.903 14.256-23.058 5.932-6.028 13.809-11.386 23.441-15.914 10.652-5.039 23.313-9.823 37.697-14.256l44.171-12.948c17.668-5.454 30.234-11.768 38.59-19.422 9.95-9.057 14.958-21.751 14.958-37.697 0-16.999-5.581-30.553-16.616-40.344-12.757-11.641-32.562-17.381-60.436-17.381-9.663 0-19.454 0.446-29.437 1.339-11.003 0.957-19.199 2.456-25.099 4.593l-8.611 3.157-1.403 9.153c-0.957 6.187-2.232 13.331-3.827 21.464-0.478 2.264-0.893 4.242-1.308 5.9h-25.323v-55.461c0-1.945 0.191-3.221 0.351-3.955 0.478-0.064 1.595-0.478 3.285-0.893 8.739-2.201 19.901-4.178 33.455-5.9 13.905-1.786 28.033-2.998 42.417-3.668l14.734-0.67v-56.896h18.498v57.151l13.363 1.818c28.225 3.859 49.21 12.885 62.445 26.885 7.176 7.303 12.534 15.851 16.169 25.705 3.763 10.206 5.677 21.846 5.677 34.571 0 22.675-5.39 39.961-16.425 52.814-6.187 7.080-14.288 13.299-24.047 18.402-10.524 5.517-23.919 10.684-39.706 15.436l-38.462 11.513c-20.028 6.41-33.997 13.044-43.023 20.347-7.686 6.251-16.871 18.051-16.871 38.749 0 19.997 8.547 31.669 15.755 37.92 7.367 6.634 16.743 11.226 27.683 13.459 23.664 4.784 52.941 3.125 75.425-0.383l11.832-1.85 1.18-12.055c0.638-6.155 1.754-13.076 3.412-20.73 0.574-2.615 1.084-4.816 1.595-6.729h23.409v54.472c1.914 0.287 0.829 1.052-2.519 2.232-6.729 2.519-15.5 4.656-26.439 6.634-11.481 2.041-23.537 3.572-36.166 4.561l-14.352 1.084z" />
<glyph unicode="&#xe635;" glyph-name="pc" horiz-adv-x="1094" d="M684.901-51.2c-0.372 0-0.704 0-1.076 0h-605.734c-33.645 0-61.62 16.885-72.96 44.115-11.381 27.272-3.642 58.186 20.692 82.726l251.696 251.655c16.429 16.678 36.914 28.058 59.303 33.231-21.023 22.058-33.935 51.895-33.935 84.713v404.94c-0.041 67.621 55.123 122.62 122.91 122.62h545.397c67.704 0 122.827-54.999 122.827-122.62v-394.511h-41.384v394.511c0 44.777-36.542 81.236-81.443 81.236h-545.397c-44.943 0-81.567-36.459-81.567-81.236v-404.94c0-44.984 36.583-81.567 81.567-81.567h586.408c33.893 0 60.586-15.602 71.387-41.715 10.884-26.279 3.228-56.985-19.988-80.202l-207.415-209.154c-25.327-25.244-92.41-83.802-171.287-83.802zM364.757 322.289c-22.016 0-42.584-8.566-57.896-24.127l-251.737-251.737c-12.25-12.374-16.595-26.113-11.794-37.618 4.801-11.463 18.126-18.623 34.762-18.623h605.9c0.248 0 0.538 0 0.786 0 65.345 0 125.227 54.833 142.112 71.677l207.415 209.154c11.215 11.215 15.436 24.623 11.091 35.135-4.263 10.263-16.347 16.181-33.148 16.181h-647.49zM533.354 76.014h-120.013v41.384h119.972v-41.384zM829.952 197.806h-458.325v41.384h458.284v-41.384z" />
<glyph unicode="&#xe636;" glyph-name="compartir" horiz-adv-x="1025" d="M511.915-51.2c-126.798 0-247.453 46.191-342.395 131.577-101.712 91.472-161.669 217.076-168.78 353.602-7.168 136.583 39.308 267.761 130.951 369.359 91.586 101.598 217.36 161.555 354.171 168.723 282.039 14.79 523.974-202.684 538.651-484.553 6.201-118.152-29.069-235.564-99.379-330.62-11.889-16.156-34.643-19.626-50.856-7.623-16.156 11.889-19.569 34.643-7.623 50.799 60.299 81.574 90.562 182.319 85.272 283.689-12.629 241.821-219.465 428.35-462.253 415.778-117.355-6.144-225.324-57.568-303.997-144.774-78.616-87.206-118.493-199.783-112.349-316.967s57.568-224.926 144.888-303.485c87.32-78.559 200.807-118.209 317.309-112.236 86.58 4.551 168.951 33.961 238.124 85.158 16.212 11.946 38.967 8.533 50.856-7.566 12.003-16.099 8.59-38.853-7.566-50.799-80.664-59.73-176.63-94.032-277.545-99.322-9.215-0.512-18.374-0.74-27.476-0.74zM622.842 525.166c47.67 0 86.409 38.682 86.409 86.296s-38.682 86.296-86.409 86.296c-47.727 0-86.409-38.682-86.409-86.296 0-3.584 0.171-7.054 0.626-10.524l-155.355-81.517c-15.757 16.497-37.886 26.736-62.461 26.736-47.727 0-86.409-38.625-86.409-86.296 0-47.613 38.682-86.296 86.409-86.296 20.138 0 38.569 6.883 53.245 18.374l164.002-80.835c0-0.341 0-0.626 0-0.967 0-47.613 38.625-86.296 86.353-86.296s86.409 38.682 86.409 86.296c0 47.727-38.682 86.353-86.409 86.353-25.428 0-48.239-10.922-63.996-28.329l-154.615 76.17c0.967 5.063 1.422 10.239 1.422 15.473 0 1.081-0.057 2.162-0.057 3.186l159.963 83.906c15.245-13.539 35.269-21.73 57.284-21.73z" />
<glyph unicode="&#xe637;" glyph-name="question_round" d="M511.2-51.2c-126.741 0-247.341 46.225-342.169 131.713-101.574 91.499-161.29 217.029-168.339 353.455-7.178 136.556 39.263 267.794 130.762 369.455 91.499 101.617 217.115 161.55 353.628 168.642 281.372 15.091 523.481-202.586 538.312-484.477 6.227-123.584-32.128-244.963-107.887-341.737-9.6-12.237-27.329-14.356-39.436-4.8-12.237 9.556-14.399 27.242-4.8 39.479 67.457 86.137 101.531 194.154 95.996 304.16-13.189 250.843-227.58 444.608-479.201 431.247-121.595-6.356-233.331-59.673-314.798-150.177s-122.762-207.256-116.319-328.894c6.227-121.465 59.414-233.158 149.788-314.625 90.504-81.597 207.386-122.762 328.981-116.622 90.72 4.757 176.857 35.934 249.157 90.158 12.367 9.297 30.053 6.789 39.306-5.621 9.34-12.41 6.789-30.053-5.621-39.35-81.207-60.97-178.025-95.996-279.902-101.315-9.21-0.432-18.378-0.692-27.458-0.692zM507.827 316.871c-15.524 0-28.107 12.583-28.107 28.107v85.704c0 28.669 18.032 54.268 44.885 63.954 24.345 10.551 96.818 47.566 96.818 112.99 0 62.743-50.982 113.768-113.595 113.768-62.787 0-113.855-51.068-113.855-113.768 0-15.524-12.583-28.107-28.107-28.107s-28.107 12.583-28.107 28.107c0 93.704 76.321 169.982 170.112 169.982 93.661 0 169.852-76.278 169.852-169.982 0-101.098-101.271-152.037-132.319-165.269-0.822-0.346-1.557-0.605-2.378-0.908-3.632-1.6-7.048-5.405-7.048-10.81v-85.704c0-15.48-12.583-28.064-28.15-28.064zM507.827 132.749c-28.453 0-51.587 23.134-51.587 51.544 0 28.496 23.134 51.673 51.587 51.673 8.346 0 16.691-2.162 24.129-6.27l-20.713-37.361 30.874 30.312c10.94-9.643 17.167-23.61 17.167-38.355 0-28.41-23.134-51.544-51.457-51.544zM507.827 132.749c-28.453 0-51.587 23.134-51.587 51.544 0 28.496 23.134 51.673 51.587 51.673 8.346 0 16.691-2.162 24.129-6.27 1.557-0.865 3.027-1.859 4.411-2.984 2.032-1.124 3.978-2.465 5.751-4.065 10.94-9.643 17.167-23.61 17.167-38.355 0-28.41-23.134-51.544-51.457-51.544z" />
<glyph unicode="&#xe638;" glyph-name="btn_subtract" d="M895.925 972.8h-767.93c-70.397 0-127.995-57.598-127.995-127.995v-767.97c0-70.397 57.558-127.995 127.995-127.995h767.97c70.437 0 127.995 57.558 127.995 127.995v767.97c0 70.357-57.638 127.995-128.035 127.995zM831.968 396.822h-639.975v127.995h639.975v-127.995z" />
<glyph unicode="&#xe639;" glyph-name="btn-double-arrow-left" horiz-adv-x="1462" d="M413.297 939.765l-380.775-398.316c-42.024-43.924-42.024-115.11 0-159.253l60.88-63.584c42.17-44.071 110.213-44.071 152.237 0l380.848 398.023c42.097 43.924 42.097 115.329 0 159.326l-60.953 63.73c-42.024 44.144-110.213 44.144-152.237 0.073zM626.487 207.011l-380.848 398.316c-42.024 44.071-110.14 44.071-152.237 0l-60.88-63.877c-42.024-43.924-42.024-115.11 0-159.253l380.775-398.169c42.024-43.924 110.213-43.924 152.237 0l60.953 63.804c42.097 43.997 42.097 115.256 0 159.18zM1217.237 939.765l-380.775-398.316c-42.024-43.924-42.024-115.11 0-159.253l60.88-63.511c42.17-44.071 110.213-44.071 152.237 0l380.848 398.096c42.097 43.924 42.097 115.329 0 159.326l-60.953 63.73c-42.024 43.997-110.213 43.997-152.237-0.073zM1430.427 207.011l-380.848 398.316c-42.024 44.071-110.14 44.071-152.237 0l-60.88-63.877c-42.024-43.924-42.024-115.11 0-159.253l380.775-398.169c42.024-43.924 110.213-43.924 152.237 0l60.953 63.804c42.097 43.997 42.097 115.256 0 159.18z" />
<glyph unicode="&#xe63a;" glyph-name="arrow-circle-left" d="M512.393 972.8c-8.989 0-18.021-0.218-27.14-0.742-136.574-7.112-262.196-67.022-353.696-168.689-91.544-101.623-138.014-232.83-130.814-369.404 7.156-136.574 67.022-262.196 168.601-353.653 100.969-90.977 233.572-137.839 369.361-130.814 100.838 5.236 196.658 39.576 277.206 99.311 5.629 4.189 9.338 10.254 10.341 17.235 0.96 6.851-0.742 13.745-4.887 19.33-8.334 11.345-25.22 13.963-36.609 5.454-72.214-53.539-158.26-84.344-248.8-89.1-122.306-6.152-241.121 35.998-331.574 117.462-91.195 82.163-144.995 194.913-151.41 317.48-6.414 122.655 35.3 240.423 117.419 331.618 82.206 91.282 194.956 145.083 317.567 151.54 256.175 12.523 469.806-182.782 483.027-435.073 5.542-106.118-26.093-211.537-89.1-296.798-4.189-5.629-5.891-12.523-4.8-19.417 1.004-6.938 4.669-13.047 10.298-17.192 11.258-8.378 28.362-5.672 36.609 5.498 70.207 95.078 105.463 212.497 99.223 330.701-14.137 272.101-238.503 485.252-510.822 485.252zM286.282 448.103l226.591-228.86c10.036-10.036 30.5-10.036 40.405-0.087 5.367 5.323 8.421 12.785 8.421 20.552s-3.011 15.097-8.203 20.159l-171.961 171.918h331.050c15.839 0 28.798 12.872 28.798 28.711s-12.959 28.711-28.798 28.711h-331.050l171.787 171.743c5.367 5.28 8.378 12.741 8.378 20.464 0 7.68-3.054 15.228-8.16 20.159-10.952 11.039-29.846 11.039-40.841 0.131l-226.198-228.205c-2.007-4.014-3.098-8.421-3.098-12.872l-5.76-0.218h5.76c0.044-4.32 1.047-8.509 2.88-12.305z" />
<glyph unicode="&#xe63b;" glyph-name="arrow_up2" horiz-adv-x="1183" d="M1101.145-4.275h-1019.871l509.888 883.225 509.982-883.225z" />
<glyph unicode="&#xe63c;" glyph-name="human" horiz-adv-x="1034" d="M951-51.2l-0.512 17.561c-6.599 232.557-201.054 421.755-433.458 421.755-232.385 0-426.822-189.193-433.421-421.755l-0.512-17.561h-83.097l0.475 18.53c5.542 215.211 146.411 404.967 347.572 474.88-76.973 54.438-123.341 142.457-123.341 238.23 0 161.201 131.16 292.361 292.361 292.361 161.182 0 292.323-131.16 292.323-292.361 0-95.772-46.368-183.791-123.341-238.23 201.161-69.913 342.030-259.67 347.567-474.88l0.48-18.53h-83.096zM517.067 889.666c-115.359 0-209.227-93.863-209.227-209.227 0-115.345 93.863-209.19 209.227-209.19 115.345 0 209.194 93.844 209.194 209.19 0 115.364-93.849 209.227-209.194 209.227z" />
<glyph unicode="&#xe63d;" glyph-name="tag" d="M145.522 71.964c-14.507 0-29.070-2.048-43.236-5.973-42.553-11.947-78.052-40.334-99.954-79.986-3.129-5.689-3.982-12.231-2.332-18.546 1.65-6.258 5.518-11.548 10.98-14.791 10.923-6.485 25.884-2.219 32.028 9.045 15.644 28.331 41.017 48.583 71.452 57.116 29.696 8.363 62.236 4.267 87.666-10.809 2.276-1.707 3.47-2.503 4.779-3.243 29.696-15.588 62.805-23.836 95.801-23.836 56.775 0 110.137 23.268 150.187 65.365 23.893 25.145 41.813 56.149 51.883 89.657l2.162 7.168 32.768-0.057c31.289 0.512 61.099 13.653 83.797 37.035l364.658 379.051c47.275 49.266 47.275 129.479 0 178.802l-190.748 198.087c-22.756 23.95-53.191 37.148-85.675 37.205-32.768 0-63.317-13.141-86.244-37.092l-364.772-378.88c-20.992-22.13-33.508-51.143-35.1-81.692-0.569-3.243-0.74-4.949-0.74-6.656v-252.814c0-39.993 31.346-72.59 69.916-72.59l163.612-0.284-6.485-14.45c-8.078-17.806-18.944-33.963-32.313-48.071-31.175-32.768-72.647-50.859-116.85-50.859-25.031 0-49.209 5.803-71.908 17.18l1.877 10.695-4.892-8.818c-25.202 15.019-53.646 23.040-82.318 23.040zM294.798 192.341c-12.857 0-22.926 10.468-22.926 23.723v246.329c0.398 3.243 0.512 4.722 0.512 6.144 0 20.309 7.68 39.538 21.618 54.215l364.715 378.88c28.274 29.412 77.483 29.241 105.415-0.114l190.748-198.087c29.013-30.322 29.013-79.531 0-109.796l-364.544-378.937c-13.938-14.393-32.028-22.471-50.972-22.756l-24.917 0.057v10.183c0 37.774-9.216 75.036-26.738 107.748l-2.446 4.551 2.105 4.722c4.267 9.557 6.428 19.797 6.428 30.322 0 39.879-31.232 72.306-69.632 72.306s-69.575-32.427-69.575-72.306 31.175-72.306 69.575-72.306c5.86 0 11.662 0.74 17.18 2.219l7.908 2.162 3.413-7.794c9.728-22.244 14.848-46.99 14.848-71.566v-10.183l-172.715 0.284z" />
<glyph unicode="&#xe63e;" glyph-name="location" d="M510.016-64c0 0-318.016 449.984-318.016 641.984 0 378.016 318.016 382.016 318.016 382.016s321.984-4 321.984-380c0-197.984-321.984-644-321.984-644zM512 768c-70.688 0-128-57.312-128-128s57.312-128 128-128 128 57.312 128 128-57.312 128-128 128z" />
<glyph unicode="&#xe800;" glyph-name="add" horiz-adv-x="1061" d="M173.945 92.882c-89.36 88.905-141.846 205.929-148.478 332.466-7.125 135.594 39.261 265.844 130.629 366.686 91.33 100.956 216.692 160.416 353.043 167.502 136.314 7.125 267.284-38.995 368.732-129.871 209.226-187.398 226.318-509.745 37.745-717.948-79.014-87.351-186.792-145.068-303.437-162.5-19.744-2.956-38.275 10.535-41.231 30.279-2.994 19.706 10.649 38.086 30.469 41.042 100.085 14.969 192.552 64.5 260.349 139.421 161.818 178.72 147.645 454.72-32.364 616.121-87.048 77.991-199.449 117.593-316.473 111.491s-224.612-57.148-302.982-143.741c-78.37-86.593-118.199-198.312-112.098-314.73 6.101-116.38 58.133-223.816 144.461-301.353 64.234-57.565 143.059-94.627 227.985-107.171 19.858-2.994 33.463-21.336 30.507-41.004-2.918-19.706-21.374-33.273-41.193-30.355-99.023 14.628-190.922 57.83-265.806 124.907-6.746 6.101-13.415 12.354-19.858 18.759zM271.111 452.671c0 19.896 16.258 36.040 36.267 36.002h455.402c20.009 0 36.267-16.106 36.229-36.040 0-19.934-16.258-36.040-36.267-36.040h-455.402c-19.971 0.038-36.229 16.182-36.229 36.077zM531.384 193.725c20.047 0 36.229 16.144 36.229 36.077v453.052c0 19.896-16.22 36.077-36.267 36.040-20.009 0-36.229-16.144-36.229-36.077v-453.052c0.038-19.858 16.258-36.040 36.267-36.040z" />
<glyph unicode="&#xe801;" glyph-name="print" d="M713.449-21.364h-402.432c-36.631 0-66.467 29.184-66.467 65.071v185.903h-177.804c-36.678 0-66.56 29.184-66.56 65.117v393.356c0 35.887 29.882 65.071 66.56 65.071h177.804v147.27c0 35.887 29.836 65.071 66.467 65.071h402.432c36.724 0 66.56-29.184 66.56-65.071v-147.27h177.664c36.724 0 66.607-29.184 66.607-65.071v-279.366c0-12.8-10.612-23.18-23.692-23.18s-23.692 10.38-23.692 23.18v279.366c0 10.333-8.611 18.711-19.177 18.711h-177.664v-113.85c0-12.8-10.612-23.18-23.738-23.18-13.079 0-23.692 10.38-23.692 23.18v307.479c0 10.333-8.564 18.711-19.13 18.711h-402.479c-10.519 0-19.037-8.378-19.037-18.711v-307.479c0-12.8-10.612-23.18-23.692-23.18s-23.738 10.38-23.738 23.18v113.85h-177.804c-10.566 0-19.13-8.425-19.13-18.711v-393.356c0-10.333 8.564-18.758 19.13-18.758h177.804v102.959c0 12.8 10.659 23.18 23.738 23.18h487.983c13.126 0 23.738-10.38 23.738-23.18v-102.959h177.664c10.566 0 19.177 8.425 19.177 18.758 0 12.8 10.612 23.18 23.692 23.18s23.692-10.38 23.692-23.18c0-35.887-29.882-65.117-66.607-65.117h-177.664v-185.903c0.047-35.887-29.789-65.071-66.513-65.071zM291.98 355.747v-312.041c0-10.333 8.564-18.711 19.037-18.711h402.432c10.566 0 19.13 8.378 19.13 18.711v312.041h-440.599zM628.736 76.707h-233.007c-13.079 0-23.692 10.38-23.692 23.18s10.612 23.18 23.692 23.18h232.96c13.079 0 23.692-10.38 23.692-23.18 0.047-12.8-10.566-23.18-23.645-23.18zM628.736 165.562h-233.007c-13.079 0-23.692 10.38-23.692 23.18s10.612 23.18 23.692 23.18h232.96c13.079 0 23.692-10.38 23.692-23.18 0.047-12.847-10.566-23.18-23.645-23.18zM628.736 254.324h-233.007c-13.079 0-23.692 10.38-23.692 23.18s10.612 23.18 23.692 23.18h232.96c13.079 0 23.692-10.38 23.692-23.18s-10.566-23.18-23.645-23.18zM822.039 569.391h-619.613c-13.126 0-23.738 10.38-23.738 23.226 0 12.8 10.612 23.18 23.738 23.18h619.613c13.126 0 23.738-10.38 23.738-23.18s-10.612-23.226-23.738-23.226z" />
<glyph unicode="&#xe802;" glyph-name="diagonal-line" horiz-adv-x="663" d="M619.701 950.664l25.54-15.962-602.353-963.765-25.54 15.962 602.353 963.765z" />
<glyph unicode="&#xe803;" glyph-name="warning-triangle" horiz-adv-x="1246" d="M1221.189 172.087l-2.297 3.21-239.644 363.935c-8.662 13.118-27.897 17.242-41.514 8.773-13.893-8.746-17.962-26.956-8.995-40.545l243.214-369.083c8.912-14.613 13.838-34.373 13.838-55.6 0-46.523-22.611-75.084-38.829-75.084h-1048.078c-17.934 0-38.801 32.796-38.801 75.084 0 21.919 5.507 42.953 15.111 57.648l478.734 727.732c38.691 58.922 98.608 59.032 137.354-0.028l127.446-193.481c8.662-13.118 27.98-17.325 41.514-8.773 6.753 4.234 11.375 10.794 13.091 18.46s0.249 15.526-4.096 22.113l-127.419 193.453c-30.305 46.191-73.756 72.704-119.144 72.732-45.443 0-88.922-26.513-119.254-72.704l-480.367-730.14c-0.664-0.996-1.19-1.91-1.688-2.823-13.866-23.912-21.366-53.635-21.366-84.162 0-75.029 43.423-133.784 98.885-133.784h1048.078c55.462 0 98.913 58.783 98.913 133.784 0 33.46-8.746 65.176-24.687 89.282zM586.614 153.406h72.649v59.254h-72.649v-59.254zM659.262 604.88h-72.649v-287.384h72.649v287.384z" />
<glyph unicode="&#xe804;" glyph-name="location-line" horiz-adv-x="675" d="M337.721 723.241c-40.468 0-73.299-32.799-73.299-73.299s32.831-73.267 73.299-73.267c40.468 0 73.299 32.799 73.299 73.299s-32.799 73.267-73.299 73.267zM337.721 762.854c62.366 0 112.912-50.546 112.912-112.912s-50.546-112.912-112.912-112.912c-62.334 0-112.912 50.546-112.912 112.912s50.577 112.912 112.912 112.912zM166.626 215.598c-77.26 131.197-157.436 298.203-157.436 429.812 0 268.668 223.637 319.119 327.707 319.119 103.024 0 328.404-50.419 328.404-319.119 0-208.077-200.915-519.59-326.883-683.554 0.032 0.032-93.739 121.214-171.792 253.742zM338.323 27.455c62.049 84.929 287.397 407.851 287.397 617.987 0 233.841-191.851 279.506-288.791 279.506-97.795 0-288.094-45.602-288.094-279.506 0-210.137 227.027-533.121 289.488-617.987z" />
<glyph unicode="&#xe805;" glyph-name="chat" horiz-adv-x="1074" d="M136 961.728c-71.975 0-130.839-58.916-130.839-130.771v-388.905c0-62.428 45.235-112.564 104-125.354v-123.613c0.016-14.812 12.027-26.814 26.841-26.814 7.405 0 14.109 2.998 18.965 7.847l144.967 145.031c4.85 4.857 7.849 11.563 7.849 18.969 0 14.827-12.020 26.847-26.847 26.847-7.423 0-14.142-3.012-19.002-7.881l-99.097-99.16v80.192c-0.002 14.822-12.017 26.837-26.839 26.839-43.003 0-77.161 34.149-77.161 77.097v388.905c0 42.849 34.184 77.094 77.161 77.094h574.516c42.925 0 77.097-34.245 77.097-77.094v-388.905c0-42.949-34.146-77.097-77.097-77.097h-308.581c-0.113 0.002-0.246 0.003-0.38 0.003-14.824 0-26.841-12.017-26.841-26.841s12.017-26.841 26.841-26.841c0.133 0 0.267 0.001 0.4 0.003h308.561c71.919 0 130.774 58.857 130.774 130.775v388.905c0 71.855-58.83 130.771-130.774 130.771h-574.516zM937.806 745.858c-0.113 0.002-0.246 0.003-0.38 0.003-14.824 0-26.841-12.017-26.841-26.841s12.017-26.841 26.841-26.841c0.133 0 0.267 0.001 0.4 0.003 42.62 0 76.883-34.119 76.883-77.164v-388.836c0-42.833-34.263-77.035-76.903-77.035-14.822-0.002-26.837-12.017-26.839-26.839v-80.321l-99.484 99.288c-4.856 4.861-11.566 7.868-18.978 7.872h-429.474c-21.281 0-40.606 8.684-54.129 22.389-4.92 5.326-11.94 8.65-19.737 8.65-14.824 0-26.841-12.017-26.841-26.841 0-7.669 3.216-14.586 8.373-19.477 23.485-23.798 56.47-38.398 92.334-38.398h418.387l137.419-137.226c4.856-4.849 11.56-7.847 18.965-7.847 14.824 0 26.841 12.017 26.841 26.841 0 0.014 0 0.027 0 0.041v123.674c58.579 12.813 103.742 62.87 103.742 125.229v388.836c0 71.997-58.847 130.841-130.581 130.841z" />
<glyph unicode="&#xe806;" glyph-name="travel-agency" horiz-adv-x="863" d="M27.943 966.457c-12.105 0-21.886-9.839-21.886-21.943v-875.657c0-62.721 50.933-113.714 113.543-113.714h298.629c12.105 0 21.943 9.836 21.943 21.943 0 12.104-9.838 21.943-21.943 21.943h-298.629c-38.437 0-69.714 31.317-69.714 69.829v875.657c0 12.104-9.838 21.943-21.943 21.943zM192.286 873.714c-35.95 0-65.257-29.271-65.257-65.257v-35.771c0-35.986 29.23-65.314 65.143-65.314h267.771c11.813 0 21.371-9.573 21.371-21.314v-177.6c0-12.104 9.838-21.943 21.943-21.943s21.886 9.839 21.886 21.943v177.6c0 35.951-29.214 65.2-65.2 65.2h-267.771c-11.739 0-21.314 9.615-21.314 21.429v35.771c0 11.776 9.653 21.371 21.429 21.371h337.943c38.473 0 69.714-31.276 69.714-69.714v-203.314c0-12.104 9.838-21.943 21.943-21.943s21.943 9.839 21.943 21.943v203.314c0 62.61-50.953 113.6-113.6 113.6h-337.943zM148.914 663.2c-12.105 0-21.886-9.836-21.886-21.943v-243.886c0-36.059 29.307-65.314 65.257-65.314h185.143c12.142 0 21.943 9.839 21.943 21.943 0 12.107-9.801 21.943-21.943 21.943h-185.143c-11.776 0-21.429 9.579-21.429 21.429v243.886c0 12.107-9.838 21.943-21.943 21.943zM698.514 517.886v-0.057c-0.098 0.002-0.213 0.003-0.328 0.003-11.11 0-20.116-9.006-20.116-20.116 0-8.321 5.052-15.461 12.255-18.522 69.546-29.907 121.385-95.554 129.56-176.335 12.133-118.646-73.858-224.381-192.571-236.514-27.658-2.867-54.618-0.354-79.771 6.686-1.566 0.438-3.365 0.69-5.222 0.69-11.111 0-20.119-9.008-20.119-20.119 0-9.103 6.046-16.794 14.342-19.277 15.898-4.437 33.294-2.935 50.028-4.208v-33.771h-75.714c-0.085 0.001-0.184 0.002-0.284 0.002-11.11 0-20.116-9.006-20.116-20.116s9.006-20.116 20.116-20.116c0.1 0 0.2 0.001 0.3 0.002h196.099c0.085-0.001 0.184-0.002 0.284-0.002 11.11 0 20.116 9.006 20.116 20.116s-9.006 20.116-20.116 20.116c-0.1 0-0.2-0.001-0.3-0.002h-80.156v30c0.695-0.085 1.499-0.134 2.314-0.134s1.62 0.049 2.41 0.143c3.321 0.323 6.417 1.463 9.072 3.216 134.726 17.812 233.338 139.966 219.289 277.346-9.672 95.571-71.113 173.689-153.543 209.143-2.417 1.138-5.248 1.812-8.233 1.836zM605.371 455.143v-0.057c-0.081 0.001-0.177 0.002-0.273 0.002-2.274 0-4.459-0.377-6.497-1.072-70.741-2.737-131.26-47.146-155.801-110.301-7.664-19.594-11.829-40.778-11.829-62.914 0-93.199 74.103-168.302 166.171-172.857 2.357-1.048 5.106-1.658 7.998-1.658 0.081 0 0.162 0 0.242 0.001 0.014 0 0.045 0 0.076 0 2.991 0 5.829 0.653 8.38 1.823 91.892 4.562 166.046 79.522 166.046 172.691 0 65.404-36.329 122.555-89.714 152.4-22.11 12.385-48.013 17.601-74.514 19.257-2.882 1.689-6.347 2.687-10.044 2.687-0.085 0-0.17-0.001-0.254-0.002zM605.371 414.857c23.702 0 45.852-6.025 65.086-16.8 0.008 0 0.019 0 0.029 0s0.020 0 0.030 0c41.148-22.976 69.141-66.743 69.141-117.314 0-74.369-59.946-134.229-134.286-134.229s-134.171 59.848-134.171 134.229c0 17.142 3.161 33.343 9.029 48.343 0.008 0 0.019 0 0.029 0s0.020 0 0.030 0c19.448 50.117 67.963 85.714 125.084 85.714v0.057z" />
<glyph unicode="&#xe807;" glyph-name="like" horiz-adv-x="1075" d="M706.867 967.467c-65.109 0-84.384-50.467-108.533-133.667-43.904-151.084-121.771-249.552-237.867-300.667v-56.333c148.139 57.644 241.741 207.923 277.667 322.867 3.157 10.24 5.979 21.325 8.667 32.333 10.837 43.052 21.971 87.6 60.2 87.6 4.736 0 9.603-0.732 14.467-2.2 12.672-3.881 22.867-13.227 30.333-27.733 31.915-61.652 11.267-210.173-25-323.667 39.381-25.088 122.461-61.067 225.8-61.067 17.792 0 35.707 1.116 53.2 3.267l17.933 2.267-1.267-18c-3.029-44.332-5.12-76.452-49.067-88.867l-49.733-13.267c-7.765-2.355-8.659-8.325-7.933-12.933 0.683-4.567 5.403-13.446 15.6-10.333l73.8 21.733-3.6-23.2c-8.832-57.941-11.595-76.368-58.4-90.533l-39.2-12.133c-8.363-2.526-9.331-8.322-8.733-12.8 0.768-4.693 5.536-13.694 15.733-10.667l70.467 23.067-3.133-23.467c-6.955-52.862-10.096-76.024-56.133-89.933l-37.933-12.933c-8.704-2.662-9.664-8.659-9.067-13.267 0.725-4.564 5.384-13.26 15.667-10.4l63.067 21.2-3.333-23.867c-6.869-48.384-40.405-106-161.067-106-16 0-33.315 1.087-51.533 3.067-56.235 6.4-96.467 23.739-139.133 42-59.563 25.685-121.128 52.157-238.333 55.4v-49.067c86.571-3.966 141.637-16.835 219.333-50.2 43.989-18.944 89.501-38.584 152.733-45.667 150.144-17.067 227.893 26.683 259.467 145.467 23.125 86.91 58.701 282.156 78.2 455-26.795-4.908-56.984-7.533-88.6-7.533-67.456 0-133.208 12.044-185.133 33.933l-11.8 4.867 3.067 12.4c27.477 111.49 41.168 265.188-10.8 331.533-17.109 21.804-40.072 32.4-70.067 32.4zM7.267 549.333v-535.8h256.933v535.8h-256.933zM57.2 499.4h157.133v-435.867h-157.133v435.867z" />
<glyph unicode="&#xe808;" glyph-name="phone-fixed" d="M188.965 933.903c-95.509-0.494-173.682-78.546-173.724-174.138l-0.276-173.172c0-0.020 0-0.043 0-0.066 0-15.845 12.844-28.691 28.69-28.693h264.414c15.844 0.002 28.688 12.845 28.69 28.689v130.69h347.448l-0.069-130.69c0.002-15.844 12.845-28.688 28.689-28.69h265.655c15.844 0.002 28.688 12.845 28.69 28.689v125.035l0.069 48.138c-0.049 92.015-73.006 166.133-163.724 172.069-3.066 1.248-6.621 1.985-10.345 2.011l0.552-0.011c-0.041 0-0.089 0-0.138 0s-0.097 0-0.145 0c-0.013 0-0.037 0-0.062 0s-0.048 0-0.073 0h-644.203c-0.020 0-0.045 0-0.069 0s-0.048 0-0.073 0l0.004 0.138zM189.103 876.524h644.207c64.711-0.388 116.516-52.254 116.552-116.759l-0.069-48.207v-96.345h-208.276l0.069 130.69c-0.002 15.844-12.845 28.688-28.689 28.69h-404.828c-15.844-0.002-28.688-12.845-28.69-28.689v-130.69h-206.966l0.207 144.483c0.028 64.491 51.925 116.363 116.483 116.759v0.069zM418.069 482.317c-28.573 0-52.345-23.772-52.345-52.345s23.643-52.414 52.345-52.414c28.685 0 52.345 23.908 52.345 52.414 0 28.51-23.788 52.345-52.345 52.345zM602.345 482.317c-28.581 0-52.414-23.641-52.414-52.345 0-28.7 23.703-52.414 52.414-52.414 28.693 0 52.345 23.841 52.345 52.414s-23.78 52.345-52.345 52.345zM843.724 481.972c-15.637-0.271-28.21-13.012-28.21-28.688 0-0.146 0.001-0.292 0.003-0.437v-319.426c0-51.023-40.858-91.862-92.069-91.862h-426.483c-51.211 0-92.069 40.825-92.069 91.862v318.69c0.002 0.121 0.003 0.263 0.003 0.406 0 15.846-12.846 28.693-28.693 28.693s-28.693-12.846-28.693-28.693c0-0.143 0.001-0.285 0.003-0.427v-318.668c0-82.086 67.274-149.241 149.448-149.241h426.483c82.174 0 149.448 67.145 149.448 149.241v319.448c0.002 0.123 0.003 0.269 0.003 0.415 0 15.846-12.846 28.693-28.693 28.693-0.17 0-0.339-0.001-0.508-0.004zM418.069 302.593c-28.573 0-52.345-23.848-52.345-52.414 0-28.58 23.643-52.414 52.345-52.414 28.685 0 52.345 23.897 52.345 52.414 0 28.503-23.788 52.414-52.345 52.414zM602.345 302.593c-28.581 0-52.414-23.721-52.414-52.414 0-28.711 23.703-52.414 52.414-52.414 28.693 0 52.345 23.834 52.345 52.414 0 28.566-23.78 52.414-52.345 52.414z" />
<glyph unicode="&#xe809;" glyph-name="edit" horiz-adv-x="1040" d="M757.561 970.4l-40.187-39.002-578.812-556.438c-43.579-115.050-86.903-228.992-132.125-348.624-17.704-45.744 27.784-90.534 73.25-72.125 125.688 49.126 201.95 78.8 337.687 133.939l619.062 595.437zM755.311 812.086l122.625-126.189-458.25-439.437-122.687 126.189zM226.686 284.275l104.187-107.126-173.062-70.314z" />
<glyph unicode="&#xe900;" glyph-name="calendar" d="M269.548 966.108c-14.657-0.218-26.454-12.151-26.454-26.839 0-0.136 0.001-0.272 0.003-0.407v-57.267c0-12.235-9.381-21.679-21.613-21.679h-72.194c-41.242 0-75.29-33.927-75.29-75.224v-561.357c0-71.151 58.253-129.354 129.484-129.354h459.613c71.169 0 129.484 58.176 129.484 129.354v561.228c0 41.353-34.075 75.353-75.355 75.353-0.113 0.002-0.246 0.003-0.38 0.003-14.824 0-26.841-12.017-26.841-26.841s12.017-26.841 26.841-26.841c0.133 0 0.267 0.001 0.4 0.003 12.212 0 21.657-9.441 21.657-21.676v-561.228c0-42.123-33.593-75.677-75.806-75.677h-459.613c-42.318 0-75.806 33.528-75.806 75.677v561.357c0 12.047 9.508 21.547 21.613 21.547h72.194c41.28 0 75.29 34.076 75.29 75.356v57.288c0.002 0.115 0.003 0.251 0.003 0.387 0 14.824-12.017 26.841-26.841 26.841-0.136 0-0.272-0.001-0.408-0.003zM601.032 966.108c-14.629-0.254-26.39-12.172-26.39-26.838 0-0.136 0.001-0.272 0.003-0.408v-57.267c0-12.205-9.509-21.679-21.677-21.679h-168.387c-0.113 0.002-0.246 0.003-0.38 0.003-14.824 0-26.841-12.017-26.841-26.841s12.017-26.841 26.841-26.841c0.133 0 0.267 0.001 0.4 0.003h168.367c41.261 0 75.355 34.046 75.355 75.356v57.288c0.002 0.115 0.003 0.251 0.003 0.388 0 14.824-12.017 26.841-26.841 26.841-0.159 0-0.317-0.001-0.476-0.004zM880.839 750.239c-14.359-0.587-25.777-12.37-25.777-26.82 0-9.792 5.243-18.359 13.075-23.047 6.349-3.863 10.445-10.4 10.445-18.457v-594.901c0-42.11-33.528-75.809-75.806-75.809h-550.194c-8.273 0-14.997 4.373-18.71 10.775-4.737 8.052-13.36 13.371-23.225 13.371-14.832 0-26.856-12.024-26.856-26.856 0-4.966 1.348-9.617 3.698-13.608 12.983-22.376 37.526-37.359 65.093-37.359h550.194c71.27 0 129.484 58.378 129.484 129.486v594.901c0 26.961-14.379 51.041-36.065 64.258-4.041 2.566-8.963 4.089-14.241 4.089-0.392 0-0.781-0.008-1.169-0.025zM449.742 689.076c-7.267-0.226-13.774-3.307-18.47-8.152l-124.046-123.977c-4.863-4.863-7.87-11.58-7.87-19 0-14.84 12.030-26.87 26.87-26.87 7.42 0 14.137 3.008 19 7.87l78.452 78.518v-281.289c-0.002-0.113-0.003-0.246-0.003-0.38 0-14.824 12.017-26.841 26.841-26.841s26.841 12.017 26.841 26.841c0 0.133-0.001 0.267-0.003 0.4v346.042c0 0.002 0 0.005 0 0.008 0 14.824-12.017 26.841-26.841 26.841-0.271 0-0.542-0.004-0.811-0.012z" />
<glyph unicode="&#xe901;" glyph-name="calling" d="M157.716 692.468c-6.353-0.104-12.069-2.746-16.195-6.953l-71.598-71.599-27.724-27.517c-0.010 0-0.022 0-0.034 0s-0.024 0-0.036 0c-54.656-54.872-54.688-144.402 0.002-199.175 0.010 0 0.022 0 0.034 0s0.024 0 0.036 0l367.308-367.171c4.244-4.522 10.259-7.339 16.931-7.339 12.813 0 23.199 10.387 23.199 23.199 0 6.655-2.802 12.656-7.292 16.887l-367.391 367.185c-36.885 36.995-36.903 96.397 0 133.519h0.069l27.655 27.517 55.379 55.381 119.379-119.381-74.966-74.826c-4.204-4.199-6.805-10.003-6.805-16.414s2.601-12.215 6.804-16.414l232-231.933c4.196-4.183 9.985-6.77 16.379-6.77s12.184 2.587 16.38 6.77l74.965 74.967 118.483-118.689-82.828-82.898c-17.824-17.825-40.769-26.928-63.931-27.588-12.536-0.365-22.56-10.615-22.56-23.206 0-12.821 10.394-23.215 23.215-23.215 0.23 0 0.46 0.003 0.689 0.010 34.547 0.988 69.057 14.883 95.415 41.242l99.241 99.24c4.183 4.196 6.769 9.985 6.769 16.379s-2.586 12.183-6.77 16.379l-151.31 151.52c-4.199 4.204-10.003 6.804-16.414 6.804s-12.215-2.6-16.414-6.804l-74.966-75.035-199.103 199.104 74.897 74.897c4.204 4.199 6.805 10.003 6.805 16.414s-2.601 12.215-6.804 16.414l-152.207 152.138c-4.201 4.217-10.014 6.827-16.436 6.827-0.089 0-0.178-0.001-0.267-0.002zM455.095 947.641c-0.121 0.002-0.263 0.003-0.406 0.003-15.846 0-28.693-12.846-28.693-28.693s12.846-28.693 28.693-28.693c0.143 0 0.285 0.001 0.427 0.003 274.596 0 496.875-221.982 496.875-496.623-0.002-0.121-0.003-0.263-0.003-0.406 0-15.846 12.846-28.693 28.693-28.693s28.693 12.846 28.693 28.693c0 0.143-0.001 0.285-0.003 0.427 0 305.664-248.656 553.98-554.276 553.98zM454.474 739.363c-0.121 0.002-0.263 0.003-0.406 0.003-15.846 0-28.693-12.846-28.693-28.693s12.846-28.693 28.693-28.693c0.143 0 0.285 0.001 0.427 0.003 156.874 0 283.634-126.584 283.634-283.518-0.002-0.121-0.003-0.263-0.003-0.406 0-15.846 12.846-28.693 28.693-28.693s28.693 12.846 28.693 28.693c0 0.143-0.001 0.285-0.003 0.427 0 187.946-153.124 340.875-341.034 340.875z" />
<glyph unicode="&#xe902;" glyph-name="gift" d="M418.47 871.090c-64.539 0-117.481-52.926-117.481-117.331 0-21.766 12.801-38.449 23.259-56.001l-192.741-0.379c-70.292 0-128.074-57.613-128.074-128.072l0.148-181.555c-1.382-5.192-1.382-10.661 0-15.853l0.148-186.072c0-70.459 57.823-128.148 128.148-128.148h752.667c70.456 0 128.222 57.727 128.222 128.148v383.924c0 70.398-57.833 128-128.222 128h-71.111c-41.672 0.569-41.672-62.217 0-61.63h71.111c37.131 0 66.593-29.336 66.593-66.37v-159.111h-415.111v181.703l115.037-115.109c29.036-29.085 72.666 14.469 43.63 43.554l-115.111 115.185c4.424 0.015 9.294 0 13.494 0 64.441 0 116.136 52.945 116.136 117.407 0 64.406-52.898 117.407-117.407 117.407-35.789 0-65.123-18.064-86.741-43.554-21.584 25.498-50.817 43.554-86.593 43.554zM418.47 809.461c31.16 0 55.704-24.629 55.704-55.702v-55.706h-55.852c-31.138 0-55.704 24.648-55.704 55.854 0 31.073 24.628 55.702 55.852 55.702zM591.804 809.461c31.158 0 55.778-24.701 55.778-55.778 0-31.262-24.598-55.854-55.778-55.854-18.642 0-37.284 0-55.926 0v56.001c0.038 30.997 24.729 55.702 55.926 55.702zM414.989 636.276c0.883 0 1.773-0.379 2.667-0.379h12.815l-115.111-115.185c-31.185-29.017 14.539-74.741 43.556-43.554l115.481 115.557v-182.151h-409.185l-0.148 158.743c0 37.152 29.501 66.442 66.444 66.442l283.481 0.379zM65.211 349.089h409.185v-229.702h-342.519c-37.006 0-66.519 29.366-66.519 66.518zM536.026 349.089h415.111v-163.184c0-37.19-29.339-66.518-66.593-66.518h-348.519z" />
<glyph unicode="&#xe903;" glyph-name="search-doc" d="M519.419 732.794c-65.77 0-131.575-25.019-181.677-75.099-75.137-75.181-91.97-185.136-54.258-277.933l-271.548-271.614c-4.112-4.11-6.656-9.79-6.656-16.064s2.544-11.953 6.656-16.064l107.419-107.355c4.111-4.113 9.79-6.657 16.065-6.657s11.954 2.544 16.064 6.657l226.516 226.449c4.112 4.111 6.655 9.791 6.655 16.066 0 12.547-10.172 22.719-22.719 22.719-6.274 0-11.953-2.543-16.065-6.654l-210.452-210.389-75.29 75.228 263.419 263.432c5.051 4.196 8.244 10.479 8.244 17.507 0 3.631-0.852 7.064-2.368 10.108-38.57 78.653-25.324 176.64 40.447 242.45 82.879 82.799 216.235 82.805 298.968 0 82.777-82.739 82.777-216.166 0-298.906-65.92-65.995-164.278-79.244-243.29-40.131-3.218 1.854-7.076 2.948-11.19 2.948-12.543 0-22.712-10.168-22.712-22.712 0-9.313 5.606-17.317 13.627-20.822 96.288-47.653 215.943-31.19 295.695 48.652 100.139 100.094 100.139 263.066 0 363.16-50.044 50.090-115.778 75.096-181.548 75.099zM418.194 948.214c-62.323 0-113.548-51.058-113.548-113.486v-79.614c-0.002-0.113-0.003-0.246-0.003-0.38 0-14.824 12.017-26.841 26.841-26.841s26.841 12.017 26.841 26.841c0 0.134-0.001 0.267-0.003 0.4v79.594c0 33.366 26.566 59.808 59.871 59.808l329.226-0.33v-205.613c0.002-14.822 12.017-26.837 26.839-26.839h205.355v-457.421c0-33.468-26.515-59.963-59.935-60l-510.903 0.393c-0.122 0.002-0.267 0.003-0.411 0.003-14.824 0-26.841-12.017-26.841-26.841s12.017-26.841 26.841-26.841c0.121 0 0.242 0.001 0.363 0.002l510.885-0.397c62.425 0 113.677 51.21 113.677 113.677v484.58c0.002 0.109 0.003 0.238 0.003 0.366 0 9.242-4.67 17.392-11.78 22.22l-224.932 224.963c-4.918 6.944-12.921 11.422-21.97 11.422-0.124 0-0.248-0.001-0.371-0.003l-355.981 0.331c-0.010 0-0.021 0-0.033 0s-0.023 0-0.035 0zM801.097 856.084l140.516-140.645h-140.516v140.645z" />
<glyph unicode="&#xe904;" glyph-name="headset" d="M517.017 966.871c-108.59 1.519-213.007-60.793-259.484-166.195-61.964-140.523 1.978-305.479 142.581-367.484v0c94.504-41.779 200.124-26.607 277.935 30.644 6.968 4.916 11.464 12.933 11.464 22 0 14.824-12.017 26.841-26.841 26.841-6.216 0-11.939-2.113-16.489-5.66-62.764-46.18-147.789-58.594-224.392-24.729-114.076 50.308-165.424 182.658-115.161 296.646 50.258 113.978 182.729 165.35 296.71 115.16v0c43.685-19.311 78.040-50.648 101.097-88.388 4.798-7.756 13.257-12.846 22.905-12.846 14.825 0 26.843 12.018 26.843 26.843 0 5.179-1.467 10.015-4.007 14.116-28.49 46.629-71.317 85.571-125.16 109.371-35.133 15.469-71.804 23.040-108 23.549zM842.759 752.419c-24.071 4.506-47.651-11.984-52.065-35.807-1.938-10.498 1.485-20.391 6.387-29.161l-42.774-103.289c-1.289-3.032-2.038-6.559-2.038-10.26 0-14.825 12.018-26.844 26.844-26.844 11.125 0 20.67 6.768 24.741 16.412l43.744 105.916c14.865 5.1 27.75 14.921 30.839 30.968 0.306 1.412 0.503 3.052 0.546 4.73 3.915 19.612-12.589 43.002-36.157 47.471-0.010 0-0.021 0-0.033 0s-0.023 0-0.035 0zM238.888 372.805c-0.016 0-0.036 0-0.055 0-6.288 0-12.071-2.162-16.646-5.784-112.991-86.842-185.75-223.523-185.75-376.925 0.002-14.822 12.017-26.837 26.839-26.839h896.774c14.822 0.002 26.837 12.017 26.839 26.839 0 153.402-72.717 290.083-185.677 376.968-4.477 3.467-10.172 5.557-16.356 5.557-14.827 0-26.847-12.020-26.847-26.847 0-8.645 4.086-16.335 10.432-21.246 93.527-71.937 153.58-182.483 161.61-307.593h-836.774c8.029 125.11 68.139 235.655 161.677 307.547 6.555 4.949 10.748 12.725 10.748 21.482 0 14.814-12.001 26.825-26.811 26.841z" />
<glyph unicode="&#xe905;" glyph-name="download" horiz-adv-x="1135" d="M995.558-51.2h-856.129c-76.888 0-139.43 62.592-139.43 139.43v247.942c0 18.136 14.701 32.837 32.837 32.837s32.837-14.701 32.837-32.837v-247.942c0-40.667 33.089-73.706 73.756-73.706h856.078c40.718 0 73.756 33.039 73.756 73.706v247.942c0 18.136 14.701 32.837 32.837 32.837s32.837-14.701 32.837-32.837v-247.942c0.051-76.838-62.491-139.43-139.379-139.43zM566.509 137.283c-36.12 0-71.988 13.741-99.318 41.071l-192.777 192.777c-16.822 16.873-25.512 37.636-25.512 59.813-0.051 22.228 8.588 43.142 24.299 58.955 16.166 15.863 35.413 23.491 59.662 24.299l70.422-0.101v425.867c0 18.136 14.701 32.837 32.837 32.837s32.837-14.701 32.837-32.837v-458.754c0-8.689-3.435-17.075-9.598-23.238s-14.499-9.598-23.188-9.598c0 0 0 0-0.051 0l-103.511 0.152c-2.728-0.303-8.437-0.657-13.135-5.203-3.132-3.132-4.951-7.527-4.951-12.225 0-4.597 1.819-8.942 5.052-12.124l192.474-192.575c31.069-31.069 79.010-31.069 108.614-1.566l193.383 193.484c5.658 5.709 6.315 10.861 6.315 13.539 0 2.728-0.657 7.881-5.102 12.326-3.284 3.334-7.123 5.355-12.326 5.102l-104.825 0.051c-18.136 0-32.837 14.701-32.837 32.837v457.794c0 18.136 14.701 32.837 32.837 32.837s32.837-14.701 32.837-32.837v-425.008l71.635-0.051c19.55 0.556 43.344-8.487 59.207-24.35 15.661-15.661 24.249-36.575 24.198-58.853-0.051-22.127-8.689-42.991-24.35-58.5l-193.029-193.231c-28.593-28.543-65.471-42.637-102.097-42.688z" />
<glyph unicode="&#xe906;" glyph-name="mobile-contract" horiz-adv-x="894" d="M287.976-41.113h-168.435c-63.42 0-114.956 51.682-114.956 115.212v870.567c0 13.168 10.674 23.842 23.842 23.842s23.842-10.674 23.842-23.842v-870.567c0-37.23 30.188-67.491 67.271-67.491h168.435c13.168 0 23.842-10.674 23.842-23.842s-10.674-23.879-23.842-23.879zM619.014 333.795c-13.168 0-23.842 10.674-23.842 23.842v403.702c0 37.23-30.188 67.491-67.345 67.491h-336.064c-10.601 0-19.22-8.657-19.22-19.294v-35.69c0-10.637 8.62-19.294 19.22-19.294h266.151c36.9 0 66.905-30.004 66.905-66.905l-0.073-286.986c0-36.9-29.968-66.905-66.831-66.905h-266.151c-36.9 0-66.905 30.004-66.905 66.905v225.473c0 13.168 10.674 23.842 23.842 23.842s23.842-10.674 23.842-23.842v-225.436c0-10.601 8.62-19.184 19.22-19.184h266.151c10.564 0 19.11 8.583 19.11 19.184l0.073 286.986c0 10.601-8.583 19.22-19.184 19.22h-266.151c-36.9 0-66.905 30.041-66.905 66.978v35.653c0 36.937 30.004 66.978 66.905 66.978h336.064c63.42 0 115.066-51.682 115.066-115.176v-403.702c0-13.168-10.674-23.842-23.879-23.842zM750.366-46.615h-346.517c-11.151 0-20.174 9.023-20.174 20.174s9.023 20.174 20.174 20.174h346.517c5.575 0 10.747 2.127 14.525 5.906l85.171 84.988c4.182 4.035 6.492 9.537 6.492 15.222v105.602c0 11.371-9.353 20.614-20.798 20.614h-179.073v-153.36c0-11.151-9.023-20.174-20.174-20.174h-232.772c-11.151 0-20.174 9.023-20.174 20.174l-0.073 173.497c0 5.355 2.127 10.454 5.906 14.269 3.815 3.815 8.913 5.906 14.269 5.906h432.056c33.709 0 61.146-27.327 61.146-60.926v-105.602c0-16.506-6.749-32.572-18.487-43.98l-84.915-84.731c-11.297-11.408-26.666-17.753-43.099-17.753zM423.913 92.88h192.424v133.186h-192.497l0.073-133.186z" />
<glyph unicode="&#xe907;" glyph-name="new" d="M511.098-51.2c-25.448 0-49.217 14.302-60.896 36.636l-67.616 163.304-162.198-65.281c-25.899-8.401-52.7-1.803-70.116 16.023-17.211 17.457-21.514 38.972-12.704 63.928l61.92 169.082-155.928 64.912c-1.721 0.738-4.098 2.090-5.614 3.114-1.106 0.533-1.803 0.861-2.377 1.27-21.146 11.515-34.628 33.357-35.57 58.232-0.41 26.637 13.892 50.364 37.291 62.494l162.976 67.534-65.363 162.566c-8.319 25.448-1.803 52.249 15.982 69.911 17.539 17.252 38.931 21.432 63.928 12.499l168.836-61.838 65.24 155.928c0.41 0.943 1.106 2.336 1.967 3.729 11.187 24.137 34.546 39.422 60.978 39.955 26.514 0 50.118-14.179 62.125-36.964l67.616-163.386 162.198 65.24c26.227 8.483 52.29 2.172 69.952-15.777 25.735-26.309 16.146-54.503 12.95-63.805l-62.043-169 155.887-65.199c1.229-0.533 2.459-1.147 3.606-1.844 0.164-0.041 0.328-0.123 0.533-0.205 23.399-11.31 38.521-34.423 39.422-60.281 0.533-26.678-13.687-50.61-37.046-62.863l-163.099-67.494 65.281-162.279c8.401-25.653 2.172-51.839-15.695-69.911-17.539-17.252-38.931-21.391-64.133-12.417l-37.291 13.154c-13.892 4.918-21.186 20.121-16.269 33.972 4.918 13.892 20.121 21.227 33.972 16.269l37.455-13.195c5.204-1.844 7.008-1.68 6.926-1.68 5.327 5.204 6.639 10.573 5 15.613l-74.46 185.064c-5.45 13.523 1.024 28.973 14.548 34.546l185.269 76.591c2.049 1.188 6.475 6.065 6.352 13.236-0.205 5.245-3.155 10.122-8.032 12.991-1.27 0.574-2.91 1.434-4.467 2.295l-177.811 74.501c-13.073 5.532-19.547 20.367-14.63 33.726l70.608 192.236c1.516 4.467 1.311 6.106 1.311 6.147-5.45 5.942-10.819 7.171-15.982 5.573l-184.859-74.419c-13.4-5.491-28.932 1.024-34.546 14.548l-76.714 185.474c-1.68 2.951-7.335 6.27-13.4 6.27-5-0.082-9.876-3.114-12.622-7.95-0.697-1.844-1.598-3.565-2.623-5.163l-74.255-177.319c-5.532-13.073-20.367-19.465-33.726-14.671l-192.482 70.526c-4.549 1.639-6.229 1.434-6.229 1.434-6.147-5.778-6.721-11.638-5.45-15.572l74.542-185.269c5.45-13.564-1.024-28.973-14.507-34.546l-185.228-76.673c-3.237-1.762-6.598-7.212-6.516-12.827 0.205-5.778 3.483-10.983 8.729-13.318 1.557-0.738 3.032-1.557 4.385-2.582l177.155-73.763c13.113-5.491 19.629-20.367 14.712-33.726l-70.567-192.768c-1.598-4.508-1.311-6.065-1.311-6.065 5.409-6.024 11.105-7.335 15.982-5.737l184.818 74.46c13.564 5.45 28.973-0.984 34.546-14.507l76.673-185.515c1.598-2.787 7.991-5.983 12.868-5.901 5.491 0.164 10.491 3.114 13.195 7.827 0.697 1.762 1.557 3.442 2.582 5l74.255 177.606c5.532 13.195 20.49 19.506 33.849 14.63l45.856-17.13c13.769-5.163 20.777-20.531 15.654-34.3s-20.408-20.736-34.3-15.654l-21.924 8.196-65.158-156.051c-0.451-1.065-1.147-2.459-2.008-3.893-0.041 0-0.041-0.041-0.041-0.041-11.187-23.727-34.505-38.89-60.814-39.504-0.41 0.041-0.861 0.041-1.311 0.041z" />
</font>
</defs>
</svg>
